<svg width="74" height="74" viewBox="0 0 74 74" fill="none" xmlns="http://www.w3.org/2000/svg">
<circle cx="37" cy="37" r="36.5" fill="white" stroke="#DCA86A"/>
<path d="M36.9062 24.0645C37.2566 24.0475 37.6048 24.1265 37.9141 24.292C38.2233 24.4575 38.4819 24.704 38.6621 25.0049C38.8422 25.3059 38.9377 25.6502 38.9375 26.001V32.0635H47C47.5138 32.0635 48.0068 32.2676 48.3701 32.6309C48.7334 32.9941 48.9374 33.4872 48.9375 34.001V48.0635H51C51.2486 48.0635 51.4873 48.1631 51.6631 48.3389C51.8386 48.5146 51.9374 48.7526 51.9375 49.001C51.9375 49.2495 51.8388 49.4883 51.6631 49.6641C51.4873 49.8399 51.2486 49.9385 51 49.9385H23C22.7826 49.9385 22.573 49.8631 22.4062 49.7266L22.3369 49.6641C22.1612 49.4883 22.0625 49.2495 22.0625 49.001C22.0626 48.7836 22.1379 48.5739 22.2744 48.4072L22.3369 48.3389C22.5127 48.1631 22.7514 48.0635 23 48.0635H25.0625V32.6689L25.0771 32.4307C25.106 32.1941 25.1782 31.9644 25.291 31.7529C25.4039 31.5415 25.5539 31.3529 25.7344 31.1973L25.9248 31.0537L35.9248 24.3887C36.1802 24.2183 36.4717 24.1106 36.7754 24.0752L36.9062 24.0645ZM36.9648 25.9492L26.9648 32.6172L26.9375 32.6357V48.0635H37.0625V25.8848L36.9648 25.9492ZM38.9375 48.0635H47.0625V33.9385H38.9375V48.0635ZM30 42.0635C30.2486 42.0635 30.4873 42.1631 30.6631 42.3389C30.8386 42.5146 30.9374 42.7526 30.9375 43.001V45.001C30.9375 45.2495 30.8388 45.4883 30.6631 45.6641C30.4873 45.8399 30.2486 45.9385 30 45.9385C29.7514 45.9385 29.5127 45.8399 29.3369 45.6641C29.1612 45.4883 29.0625 45.2495 29.0625 45.001V43.001C29.0626 42.7526 29.1614 42.5146 29.3369 42.3389C29.5127 42.1631 29.7514 42.0635 30 42.0635ZM34 42.0635C34.2486 42.0635 34.4873 42.1631 34.6631 42.3389C34.8386 42.5146 34.9374 42.7526 34.9375 43.001V45.001C34.9375 45.2495 34.8388 45.4883 34.6631 45.6641C34.4873 45.8399 34.2486 45.9385 34 45.9385C33.7514 45.9385 33.5127 45.8399 33.3369 45.6641C33.1612 45.4883 33.0625 45.2495 33.0625 45.001V43.001C33.0626 42.7526 33.1614 42.5146 33.3369 42.3389C33.5127 42.1631 33.7514 42.0635 34 42.0635ZM30 35.0635C30.2486 35.0635 30.4873 35.1631 30.6631 35.3389C30.8386 35.5146 30.9374 35.7526 30.9375 36.001V38.001C30.9375 38.2495 30.8388 38.4883 30.6631 38.6641C30.4873 38.8399 30.2486 38.9385 30 38.9385C29.7514 38.9385 29.5127 38.8399 29.3369 38.6641C29.1612 38.4883 29.0625 38.2495 29.0625 38.001V36.001C29.0626 35.7526 29.1614 35.5146 29.3369 35.3389C29.5127 35.1631 29.7514 35.0635 30 35.0635ZM34 35.0635C34.2486 35.0635 34.4873 35.1631 34.6631 35.3389C34.8386 35.5146 34.9374 35.7526 34.9375 36.001V38.001C34.9375 38.2495 34.8388 38.4883 34.6631 38.6641C34.4873 38.8399 34.2486 38.9385 34 38.9385C33.7514 38.9385 33.5127 38.8399 33.3369 38.6641C33.1612 38.4883 33.0625 38.2495 33.0625 38.001V36.001C33.0626 35.7526 33.1614 35.5146 33.3369 35.3389C33.5127 35.1631 33.7514 35.0635 34 35.0635Z" fill="#DCA86A" stroke="#DCA86A" stroke-width="0.125"/>
</svg>
