<svg width="75" height="60" viewBox="0 0 75 60" fill="none" xmlns="http://www.w3.org/2000/svg">
<path d="M6.24008 54.9084H51.1642C51.4951 54.9084 51.8125 54.777 52.0466 54.5429C52.2806 54.3089 52.4121 53.9915 52.4121 53.6605V11.2322C52.4123 10.9823 52.3375 10.7381 52.1973 10.5311C52.0571 10.3242 51.8581 10.1642 51.6259 10.0717L26.6681 0.0885613C26.4787 0.0131278 26.2737 -0.014751 26.071 0.00736322C25.8683 0.0294775 25.6741 0.100911 25.5055 0.215417C25.3368 0.329923 25.1987 0.484013 25.1034 0.664211C25.008 0.844409 24.9583 1.04523 24.9584 1.2491V10.4585L5.67853 20.1047C5.47273 20.2084 5.29967 20.3671 5.17853 20.5631C5.05738 20.7592 4.99289 20.9849 4.99219 21.2154V53.6605C4.99219 53.9915 5.12366 54.3089 5.35769 54.5429C5.59171 54.777 5.90912 54.9084 6.24008 54.9084ZM27.4542 3.09598L49.9163 12.0808V52.4126H27.4542V3.09598ZM7.48797 21.9891L24.9584 13.2538V52.4126H7.48797V21.9891Z" fill="#DCA86A"/>
<path d="M31.1971 16.2238H46.1718C46.5028 16.2238 46.8202 16.0923 47.0542 15.8583C47.2882 15.6243 47.4197 15.3069 47.4197 14.9759C47.4197 14.645 47.2882 14.3276 47.0542 14.0935C46.8202 13.8595 46.5028 13.728 46.1718 13.728H31.1971C30.8661 13.728 30.5487 13.8595 30.3147 14.0935C30.0807 14.3276 29.9492 14.645 29.9492 14.9759C29.9492 15.3069 30.0807 15.6243 30.3147 15.8583C30.5487 16.0923 30.8661 16.2238 31.1971 16.2238Z" fill="#DCA86A"/>
<path d="M31.1971 21.2155H46.1718C46.5028 21.2155 46.8202 21.084 47.0542 20.85C47.2882 20.616 47.4197 20.2986 47.4197 19.9676C47.4197 19.6367 47.2882 19.3192 47.0542 19.0852C46.8202 18.8512 46.5028 18.7197 46.1718 18.7197H31.1971C30.8661 18.7197 30.5487 18.8512 30.3147 19.0852C30.0807 19.3192 29.9492 19.6367 29.9492 19.9676C29.9492 20.2986 30.0807 20.616 30.3147 20.85C30.5487 21.084 30.8661 21.2155 31.1971 21.2155Z" fill="#DCA86A"/>
<path d="M31.1971 26.207H46.1718C46.5028 26.207 46.8202 26.0755 47.0542 25.8415C47.2882 25.6074 47.4197 25.29 47.4197 24.9591C47.4197 24.6281 47.2882 24.3107 47.0542 24.0767C46.8202 23.8427 46.5028 23.7112 46.1718 23.7112H31.1971C30.8661 23.7112 30.5487 23.8427 30.3147 24.0767C30.0807 24.3107 29.9492 24.6281 29.9492 24.9591C29.9492 25.29 30.0807 25.6074 30.3147 25.8415C30.5487 26.0755 30.8661 26.207 31.1971 26.207Z" fill="#DCA86A"/>
<path d="M31.1971 31.1987H46.1718C46.5028 31.1987 46.8202 31.0672 47.0542 30.8332C47.2882 30.5991 47.4197 30.2817 47.4197 29.9508C47.4197 29.6198 47.2882 29.3024 47.0542 29.0684C46.8202 28.8344 46.5028 28.7029 46.1718 28.7029H31.1971C30.8661 28.7029 30.5487 28.8344 30.3147 29.0684C30.0807 29.3024 29.9492 29.6198 29.9492 29.9508C29.9492 30.2817 30.0807 30.5991 30.3147 30.8332C30.5487 31.0672 30.8661 31.1987 31.1971 31.1987Z" fill="#DCA86A"/>
<path d="M31.1971 36.1901H46.1718C46.5028 36.1901 46.8202 36.0586 47.0542 35.8246C47.2882 35.5906 47.4197 35.2732 47.4197 34.9422C47.4197 34.6113 47.2882 34.2939 47.0542 34.0598C46.8202 33.8258 46.5028 33.6943 46.1718 33.6943H31.1971C30.8661 33.6943 30.5487 33.8258 30.3147 34.0598C30.0807 34.2939 29.9492 34.6113 29.9492 34.9422C29.9492 35.2732 30.0807 35.5906 30.3147 35.8246C30.5487 36.0586 30.8661 36.1901 31.1971 36.1901Z" fill="#DCA86A"/>
<path d="M31.1971 41.1816H46.1718C46.5028 41.1816 46.8202 41.0501 47.0542 40.8161C47.2882 40.5821 47.4197 40.2646 47.4197 39.9337C47.4197 39.6027 47.2882 39.2853 47.0542 39.0513C46.8202 38.8173 46.5028 38.6858 46.1718 38.6858H31.1971C30.8661 38.6858 30.5487 38.8173 30.3147 39.0513C30.0807 39.2853 29.9492 39.6027 29.9492 39.9337C29.9492 40.2646 30.0807 40.5821 30.3147 40.8161C30.5487 41.0501 30.8661 41.1816 31.1971 41.1816Z" fill="#DCA86A"/>
<path d="M31.1971 46.173H46.1718C46.5028 46.173 46.8202 46.0416 47.0542 45.8075C47.2882 45.5735 47.4197 45.2561 47.4197 44.9251C47.4197 44.5942 47.2882 44.2768 47.0542 44.0427C46.8202 43.8087 46.5028 43.6772 46.1718 43.6772H31.1971C30.8661 43.6772 30.5487 43.8087 30.3147 44.0427C30.0807 44.2768 29.9492 44.5942 29.9492 44.9251C29.9492 45.2561 30.0807 45.5735 30.3147 45.8075C30.5487 46.0416 30.8661 46.173 31.1971 46.173Z" fill="#DCA86A"/>
<path d="M21.2154 23.7112H11.2323C10.9013 23.7112 10.5839 23.8427 10.3499 24.0767C10.1158 24.3107 9.98438 24.6281 9.98438 24.9591C9.98438 25.29 10.1158 25.6074 10.3499 25.8415C10.5839 26.0755 10.9013 26.207 11.2323 26.207H21.2154C21.5464 26.207 21.8638 26.0755 22.0978 25.8415C22.3318 25.6074 22.4633 25.29 22.4633 24.9591C22.4633 24.6281 22.3318 24.3107 22.0978 24.0767C21.8638 23.8427 21.5464 23.7112 21.2154 23.7112Z" fill="#DCA86A"/>
<path d="M21.2154 28.7029H11.2323C10.9013 28.7029 10.5839 28.8344 10.3499 29.0684C10.1158 29.3024 9.98438 29.6198 9.98438 29.9508C9.98438 30.2817 10.1158 30.5991 10.3499 30.8332C10.5839 31.0672 10.9013 31.1987 11.2323 31.1987H21.2154C21.5464 31.1987 21.8638 31.0672 22.0978 30.8332C22.3318 30.5991 22.4633 30.2817 22.4633 29.9508C22.4633 29.6198 22.3318 29.3024 22.0978 29.0684C21.8638 28.8344 21.5464 28.7029 21.2154 28.7029Z" fill="#DCA86A"/>
<path d="M21.2154 33.6943H11.2323C10.9013 33.6943 10.5839 33.8258 10.3499 34.0598C10.1158 34.2939 9.98438 34.6113 9.98438 34.9422C9.98438 35.2732 10.1158 35.5906 10.3499 35.8246C10.5839 36.0586 10.9013 36.1901 11.2323 36.1901H21.2154C21.5464 36.1901 21.8638 36.0586 22.0978 35.8246C22.3318 35.5906 22.4633 35.2732 22.4633 34.9422C22.4633 34.6113 22.3318 34.2939 22.0978 34.0598C21.8638 33.8258 21.5464 33.6943 21.2154 33.6943Z" fill="#DCA86A"/>
<path d="M21.2154 38.6858H11.2323C10.9013 38.6858 10.5839 38.8173 10.3499 39.0513C10.1158 39.2853 9.98438 39.6027 9.98438 39.9337C9.98438 40.2646 10.1158 40.5821 10.3499 40.8161C10.5839 41.0501 10.9013 41.1816 11.2323 41.1816H21.2154C21.5464 41.1816 21.8638 41.0501 22.0978 40.8161C22.3318 40.5821 22.4633 40.2646 22.4633 39.9337C22.4633 39.6027 22.3318 39.2853 22.0978 39.0513C21.8638 38.8173 21.5464 38.6858 21.2154 38.6858Z" fill="#DCA86A"/>
<path d="M21.2154 43.6772H11.2323C10.9013 43.6772 10.5839 43.8087 10.3499 44.0427C10.1158 44.2768 9.98438 44.5942 9.98438 44.9251C9.98438 45.2561 10.1158 45.5735 10.3499 45.8075C10.5839 46.0416 10.9013 46.173 11.2323 46.173H21.2154C21.5464 46.173 21.8638 46.0416 22.0978 45.8075C22.3318 45.5735 22.4633 45.2561 22.4633 44.9251C22.4633 44.5942 22.3318 44.2768 22.0978 44.0427C21.8638 43.8087 21.5464 43.6772 21.2154 43.6772Z" fill="#DCA86A"/>
<path d="M73.6256 57.4043H63.6425V46.1732H66.1382C67.03 46.1772 67.8938 45.8627 68.5743 45.2865C69.2548 44.7102 69.7072 43.9099 69.8501 43.0297C69.9931 42.1495 69.8171 41.2472 69.354 40.4852C68.8908 39.7232 68.1709 39.1515 67.3237 38.8731C66.9244 35.9031 64.8903 33.6943 62.3946 33.6943C59.8988 33.6943 57.8647 35.9031 57.4654 38.8731C56.6182 39.1515 55.8983 39.7232 55.4351 40.4852C54.972 41.2472 54.796 42.1495 54.939 43.0297C55.0819 43.9099 55.5343 44.7102 56.2148 45.2865C56.8953 45.8627 57.7592 46.1772 58.6509 46.1732H61.1467V57.4043H1.24789C0.91693 57.4043 0.599524 57.5357 0.365499 57.7698C0.131474 58.0038 0 58.3212 0 58.6522C0 58.9831 0.131474 59.3005 0.365499 59.5346C0.599524 59.7686 0.91693 59.9001 1.24789 59.9001H73.6256C73.9565 59.9001 74.2739 59.7686 74.508 59.5346C74.742 59.3005 74.8735 58.9831 74.8735 58.6522C74.8735 58.3212 74.742 58.0038 74.508 57.7698C74.2739 57.5357 73.9565 57.4043 73.6256 57.4043ZM57.403 42.4296C57.403 42.0986 57.5345 41.7812 57.7685 41.5472C58.0025 41.3132 58.3199 41.1817 58.6509 41.1817C58.9818 41.1817 59.2993 41.0502 59.5333 40.8162C59.7673 40.5822 59.8988 40.2648 59.8988 39.9338C59.8988 37.8997 61.0468 36.1901 62.3946 36.1901C63.7423 36.1901 64.8903 37.8997 64.8903 39.9338C64.8903 40.2648 65.0218 40.5822 65.2558 40.8162C65.4899 41.0502 65.8073 41.1817 66.1382 41.1817C66.4692 41.1817 66.7866 41.3132 67.0206 41.5472C67.2547 41.7812 67.3861 42.0986 67.3861 42.4296C67.3861 42.7605 67.2547 43.0779 67.0206 43.312C66.7866 43.546 66.4692 43.6775 66.1382 43.6775H58.6509C58.3199 43.6775 58.0025 43.546 57.7685 43.312C57.5345 43.0779 57.403 42.7605 57.403 42.4296Z" fill="#DCA86A"/>
</svg>
