<svg width="67" height="61" viewBox="0 0 67 61" fill="none" xmlns="http://www.w3.org/2000/svg">
<path d="M65.7384 0H1.07768C0.79186 0 0.517749 0.113541 0.315645 0.315645C0.113541 0.517749 0 0.79186 0 1.07768V59.2723C0 59.5581 0.113541 59.8323 0.315645 60.0344C0.517749 60.2365 0.79186 60.35 1.07768 60.35H65.7384C66.0242 60.35 66.2983 60.2365 66.5004 60.0344C66.7025 59.8323 66.8161 59.5581 66.8161 59.2723V1.07768C66.8161 0.79186 66.7025 0.517749 66.5004 0.315645C66.2983 0.113541 66.0242 0 65.7384 0ZM60.35 53.8839H55.841C55.9686 53.5388 56.0357 53.1742 56.0393 52.8062V39.8741C56.0413 38.256 55.5623 36.6737 54.6631 35.3285L53.3828 33.408H53.8839C54.7414 33.408 55.5637 33.0674 56.17 32.4611C56.7763 31.8548 57.117 31.0325 57.117 30.175C57.117 29.3175 56.7763 28.4952 56.17 27.8889C55.5637 27.2826 54.7414 26.942 53.8839 26.942H50.2295L48.4578 22.0687C48.0562 20.9718 47.328 20.0243 46.3713 19.3541C45.4145 18.6839 44.2753 18.3232 43.1071 18.3205H23.7089C22.5408 18.3232 21.4016 18.6839 20.4448 19.3541C19.4881 20.0243 18.7598 20.9718 18.3583 22.0687L16.5866 26.942H12.9321C12.0747 26.942 11.2524 27.2826 10.646 27.8889C10.0397 28.4952 9.69911 29.3175 9.69911 30.175C9.69911 31.0325 10.0397 31.8548 10.646 32.4611C11.2524 33.0674 12.0747 33.408 12.9321 33.408H13.4333L12.153 35.3274C11.2536 36.673 10.7745 38.2556 10.7768 39.8741V52.8062C10.7804 53.1742 10.8474 53.5388 10.9751 53.8839H6.46607V12.9321H60.35V53.8839ZM12.9321 52.8062V48.3759C13.6326 49.096 14.4704 49.6684 15.3959 50.0592C16.3214 50.4499 17.3159 50.6511 18.3205 50.6509H19.3982V52.8062C19.3982 53.0921 19.2847 53.3662 19.0826 53.5683C18.8805 53.7704 18.6064 53.8839 18.3205 53.8839H14.0098C13.724 53.8839 13.4499 53.7704 13.2478 53.5683C13.0457 53.3662 12.9321 53.0921 12.9321 52.8062ZM53.8839 40.0002L47.767 40.7653L48.3339 38.5022L52.8838 36.5516C53.5361 37.537 53.8839 38.6925 53.8839 39.8741V40.0002ZM51.6208 30.7623L51.0141 29.0973H53.8839C54.1697 29.0973 54.4439 29.2109 54.646 29.413C54.8481 29.6151 54.9616 29.8892 54.9616 30.175C54.9616 30.4608 54.8481 30.7349 54.646 30.937C54.4439 31.1391 54.1697 31.2527 53.8839 31.2527H51.9441L51.6208 30.7623ZM14.872 31.2527H12.9321C12.6463 31.2527 12.3722 31.1391 12.1701 30.937C11.968 30.7349 11.8545 30.4608 11.8545 30.175C11.8545 29.8892 11.968 29.6151 12.1701 29.413C12.3722 29.2109 12.6463 29.0973 12.9321 29.0973H15.802L15.1953 30.7623L14.872 31.2527ZM13.9344 36.5484L18.4843 38.499L19.0512 40.7621L12.9321 40.0002V39.8741C12.9316 38.6914 13.2794 37.5346 13.9322 36.5484H13.9344ZM12.9321 42.1728L20.3423 43.0985C20.3866 43.1041 20.4312 43.107 20.4759 43.1071C20.6396 43.1071 20.8011 43.0698 20.9482 42.998C21.0954 42.9262 21.2242 42.8218 21.3249 42.6928C21.4257 42.5638 21.4957 42.4135 21.5298 42.2534C21.5638 42.0933 21.5609 41.9275 21.5212 41.7687L20.4436 37.458C20.4033 37.2967 20.3264 37.147 20.2187 37.0204C20.111 36.8938 19.9755 36.7939 19.8228 36.7284L15.1457 34.725L16.704 32.3961C22.2468 33.0665 27.8248 33.4044 33.408 33.408C38.9934 33.4045 44.5735 33.0666 50.1185 32.3961L51.6704 34.725L46.9933 36.7284C46.8405 36.7939 46.705 36.8938 46.5974 37.0204C46.4897 37.147 46.4127 37.2967 46.3725 37.458L45.2948 41.7687C45.2552 41.9275 45.2523 42.0933 45.2863 42.2534C45.3203 42.4135 45.3904 42.5638 45.4911 42.6928C45.5919 42.8218 45.7207 42.9262 45.8678 42.998C46.0149 43.0698 46.1765 43.1071 46.3402 43.1071C46.3849 43.107 46.4295 43.1041 46.4738 43.0985L53.8839 42.1728V43.1071C53.8822 44.5357 53.314 45.9053 52.3038 46.9154C51.2937 47.9256 49.9241 48.4938 48.4955 48.4955H18.3205C16.892 48.4938 15.5224 47.9256 14.5123 46.9154C13.5021 45.9053 12.9339 44.5357 12.9321 43.1071V42.1728ZM17.647 30.3302L20.3832 22.8048C20.6329 22.1231 21.0856 21.5344 21.6803 21.1179C22.2749 20.7015 22.983 20.4774 23.7089 20.4759H43.1071C43.8331 20.4774 44.5411 20.7015 45.1358 21.1179C45.7305 21.5344 46.1832 22.1231 46.4329 22.8048L49.1702 30.3323C38.697 31.5381 28.12 31.5374 17.647 30.3302ZM21.5536 52.8062V50.6509H45.2625V52.8062C45.2661 53.1742 45.3332 53.5388 45.4608 53.8839H21.3553C21.4829 53.5388 21.55 53.1742 21.5536 52.8062ZM47.4179 52.8062V50.6509H48.4955C49.5002 50.6511 50.4946 50.4499 51.4202 50.0592C52.3457 49.6684 53.1834 49.096 53.8839 48.3759V52.8062C53.8839 53.0921 53.7704 53.3662 53.5683 53.5683C53.3662 53.7704 53.0921 53.8839 52.8062 53.8839H48.4955C48.2097 53.8839 47.9356 53.7704 47.7335 53.5683C47.5314 53.3662 47.4179 53.0921 47.4179 52.8062ZM6.46607 56.0393H60.35V58.1946H6.46607V56.0393ZM60.35 10.7768H6.46607V2.15536H60.35V10.7768ZM2.15536 2.15536H4.31071V58.1946H2.15536V2.15536ZM64.6607 58.1946H62.5054V2.15536H64.6607V58.1946Z" fill="#DCA86A"/>
<path d="M24.8165 45.5233C24.8748 45.7571 25.0098 45.9646 25.1999 46.1127C25.39 46.2608 25.6242 46.3409 25.8651 46.3402H40.9526C41.1929 46.3402 41.4262 46.2599 41.6156 46.1121C41.805 45.9643 41.9396 45.7575 41.998 45.5244L43.0756 41.2137C43.1155 41.0548 43.1185 40.8889 43.0846 40.7286C43.0507 40.5684 42.9806 40.418 42.8799 40.2888C42.7791 40.1597 42.6502 40.0552 42.503 39.9834C42.3558 39.9115 42.1941 39.8742 42.0303 39.8741H24.7874C24.6237 39.874 24.462 39.9112 24.3147 39.983C24.1675 40.0547 24.0385 40.159 23.9377 40.2881C23.8368 40.4171 23.7666 40.5674 23.7326 40.7276C23.6985 40.8878 23.7014 41.0537 23.741 41.2126L24.8165 45.5233ZM40.6498 42.0295L40.111 44.1849H26.7046L26.1658 42.0295H40.6498Z" fill="#DCA86A"/>
<path d="M23.8224 9.10321C23.912 9.28236 24.0496 9.43302 24.22 9.53829C24.3904 9.64355 24.5867 9.69926 24.787 9.69917H31.253C31.4532 9.69917 31.6494 9.64344 31.8196 9.53822C31.9899 9.433 32.1274 9.28245 32.2169 9.10344C32.3064 8.92444 32.3443 8.72404 32.3264 8.52471C32.3084 8.32538 32.2353 8.13499 32.1152 7.97488L28.8821 3.66417C28.7774 3.53688 28.6458 3.43436 28.4967 3.36397C28.3476 3.29358 28.1848 3.25708 28.02 3.25708C27.8552 3.25708 27.6924 3.29358 27.5433 3.36397C27.3942 3.43436 27.2626 3.53688 27.1579 3.66417L23.9248 7.97488C23.8047 8.13491 23.7315 8.32523 23.7134 8.52451C23.6953 8.72379 23.7331 8.92418 23.8224 9.10321ZM28.02 6.10727L29.0977 7.54381H26.9423L28.02 6.10727Z" fill="#DCA86A"/>
<path d="M37.9349 9.26803C38.0353 9.40188 38.1655 9.51051 38.3151 9.58533C38.4647 9.66015 38.6297 9.6991 38.797 9.6991C38.9643 9.6991 39.1294 9.66015 39.279 9.58533C39.4286 9.51051 39.5588 9.40188 39.6592 9.26803L42.8922 4.95732C43.0123 4.79721 43.0854 4.60682 43.1034 4.40749C43.1214 4.20816 43.0835 4.00777 42.994 3.82876C42.9045 3.64975 42.7669 3.4992 42.5966 3.39398C42.4264 3.28876 42.2302 3.23303 42.0301 3.23303H35.564C35.3639 3.23303 35.1677 3.28876 34.9974 3.39398C34.8272 3.4992 34.6896 3.64975 34.6001 3.82876C34.5106 4.00777 34.4727 4.20816 34.4907 4.40749C34.5087 4.60682 34.5818 4.79721 34.7019 4.95732L37.9349 9.26803ZM39.8747 5.38839L38.797 6.82494L37.7194 5.38839H39.8747Z" fill="#DCA86A"/>
</svg>
