<svg width="28" height="28" viewBox="0 0 28 28" fill="none" xmlns="http://www.w3.org/2000/svg">
<g clip-path="url(#clip0_2599_12757)">
<path d="M26.7517 18.2272C25.9618 17.6112 24.9527 17.3977 23.9808 17.6404C21.5787 18.2424 17.0893 19.2504 14 19.2504C10.9107 19.2504 6.42133 18.2412 4.02033 17.6404C3.0485 17.3989 2.03817 17.6124 1.24833 18.2272C0.455 18.8467 0 19.7789 0 20.7869V24.7139C0 25.7219 0.455 26.654 1.24833 27.2735C2.03817 27.8895 3.04733 28.103 4.01917 27.8604C6.42133 27.2584 10.9107 26.2504 14 26.2504C17.0893 26.2504 21.5787 27.2595 23.9797 27.8604C24.2433 27.9257 24.5082 27.9584 24.7718 27.9584C25.4823 27.9584 26.1753 27.7227 26.7517 27.2735C27.545 26.654 28 25.7219 28 24.7139V20.7869C28 19.7789 27.545 18.8467 26.7517 18.2272ZM12.8333 23.9555C9.82683 24.1329 6.153 24.9215 3.45217 25.597C3.0835 25.6892 2.81167 25.534 2.68333 25.4337C2.4605 25.2599 2.33333 24.9974 2.33333 24.7139V20.7869C2.33333 20.5034 2.4605 20.2409 2.68333 20.067C2.81167 19.9655 3.08117 19.8104 3.45333 19.9037C6.15417 20.5792 9.82683 21.3679 12.8333 21.5452V23.9555ZM25.6667 24.7139C25.6667 24.9974 25.5395 25.2599 25.3167 25.4337C25.1872 25.534 24.9153 25.6892 24.5467 25.597C21.8458 24.9215 18.1732 24.1329 15.1667 23.9555V21.5452C18.1732 21.3679 21.847 20.5792 24.5478 19.9037C24.9153 19.8092 25.1872 19.9655 25.3167 20.067C25.5395 20.2409 25.6667 20.5034 25.6667 20.7869V24.7139ZM26.2768 3.91919L17.0578 0.53586C15.1247 -0.172307 12.9978 -0.176973 11.0658 0.527693L1.73367 3.92269C0.681333 4.30653 0.00116667 5.29236 0.00233333 6.43336C0.00233333 7.57553 0.683667 8.56019 1.736 8.94169L5.83333 10.428V15.1659C5.83333 15.8099 6.356 16.3325 7 16.3325C7.644 16.3325 8.16667 15.8099 8.16667 15.1659V11.2739L11.0157 12.3075C11.9758 12.6564 12.985 12.8302 13.993 12.8302C15.001 12.8302 16.009 12.6564 16.968 12.3075L19.8333 11.268V15.1647C19.8333 15.8087 20.356 16.3314 21 16.3314C21.644 16.3314 22.1667 15.8087 22.1667 15.1647V10.421L25.6667 9.15169V13.998C25.6667 14.642 26.1893 15.1647 26.8333 15.1647C27.4773 15.1647 28 14.642 28 13.998V6.44386C28 6.44386 28.0023 6.43453 28.0023 6.42869C28.0035 5.28769 27.3268 4.30186 26.2768 3.91686V3.91919ZM25.4718 6.74253L16.1723 10.1165C14.7642 10.6252 13.216 10.6264 11.8102 10.1165L2.5305 6.74953C2.36017 6.68769 2.3345 6.52436 2.3345 6.43336C2.3345 6.34236 2.359 6.17903 2.52933 6.11719L11.8627 2.72103C12.5673 2.46436 13.307 2.33603 14.0478 2.33603C14.7945 2.33603 15.5412 2.46669 16.2517 2.72686L25.4718 6.11019C25.6363 6.17086 25.6632 6.32369 25.6655 6.41703C25.6632 6.51036 25.6375 6.68303 25.4718 6.74253Z" fill="#DCA86A"/>
</g>
<defs>
<clipPath id="clip0_2599_12757">
<rect width="28" height="28" fill="white"/>
</clipPath>
</defs>
</svg>
