<svg width="61" height="61" viewBox="0 0 61 61" fill="none" xmlns="http://www.w3.org/2000/svg">
<path d="M59.3766 0H0.973387C0.715229 0 0.467644 0.102553 0.285098 0.285098C0.102553 0.467644 0 0.715229 0 0.973387V6.81371C0 7.07187 0.102553 7.31945 0.285098 7.502C0.467644 7.68454 0.715229 7.7871 0.973387 7.7871H1.94677V52.5629H0.973387C0.715229 52.5629 0.467644 52.6655 0.285098 52.848C0.102553 53.0305 0 53.2781 0 53.5363V59.3766C0 59.6348 0.102553 59.8824 0.285098 60.0649C0.467644 60.2474 0.715229 60.35 0.973387 60.35H59.3766C59.6348 60.35 59.8824 60.2474 60.0649 60.0649C60.2474 59.8824 60.35 59.6348 60.35 59.3766V53.5363C60.35 53.2781 60.2474 53.0305 60.0649 52.848C59.8824 52.6655 59.6348 52.5629 59.3766 52.5629H58.4032V7.7871H59.3766C59.6348 7.7871 59.8824 7.68454 60.0649 7.502C60.2474 7.31945 60.35 7.07187 60.35 6.81371V0.973387C60.35 0.715229 60.2474 0.467644 60.0649 0.285098C59.8824 0.102553 59.6348 0 59.3766 0ZM3.89355 7.7871H5.84032V52.5629H3.89355V7.7871ZM41.8556 52.5629V33.0952H52.5629V52.5629H41.8556ZM52.5629 31.1484H41.8556V29.2016H52.5629V31.1484ZM52.5629 27.2548H41.8556V7.7871H52.5629V27.2548ZM39.9089 52.5629H37.9621V7.7871H39.9089V52.5629ZM24.3347 22.3879H36.0153V37.9621H24.3347V22.3879ZM24.3347 39.9089H36.0153V41.8556H24.3347V39.9089ZM36.0153 20.4411H24.3347V18.4944H36.0153V20.4411ZM24.3347 43.8024H36.0153V52.5629H24.3347V43.8024ZM36.0153 16.5476H24.3347V7.7871H36.0153V16.5476ZM22.3879 52.5629H20.4411V7.7871H22.3879V52.5629ZM18.4944 31.1484H7.7871V29.2016H18.4944V31.1484ZM7.7871 33.0952H18.4944V52.5629H7.7871V33.0952ZM18.4944 27.2548H7.7871V7.7871H18.4944V27.2548ZM58.4032 58.4032H1.94677V54.5097H58.4032V58.4032ZM56.4564 52.5629H54.5097V7.7871H56.4564V52.5629ZM58.4032 5.84032H1.94677V1.94677H58.4032V5.84032Z" fill="#DCA86A"/>
</svg>
