<svg width="71" height="61" viewBox="0 0 71 61" fill="none" xmlns="http://www.w3.org/2000/svg">
<path d="M61.6931 50.4946C66.8929 46.6329 70.0175 36.8395 70.3063 23.3527C70.3245 22.5119 70.0107 21.7182 69.4231 21.1178C68.8373 20.5193 68.0536 20.1898 67.2164 20.1898H66.4509C64.4412 20.1898 62.6025 21.3707 61.7665 23.1983L55.6748 36.5167C54.9681 35.9089 54.0137 35.5096 52.884 35.3598V31.1703C52.884 29.1191 51.2912 27.0495 47.733 27.0495H32.6233C30.6876 27.0495 29.3348 27.6627 28.5024 28.5514C27.67 27.6627 26.3173 27.0495 24.3816 27.0495H16.3732C15.8042 27.0495 15.343 27.5108 15.343 28.0797C15.343 28.6487 15.8042 29.1099 16.3732 29.1099H24.3816C26.259 29.1099 27.4722 29.9187 27.4722 31.1703V40.1065C27.4722 40.6754 27.9335 41.1367 28.5024 41.1367C29.0714 41.1367 29.5326 40.6754 29.5326 40.1065V31.1703C29.5326 29.9187 30.7458 29.1099 32.6233 29.1099H47.733C49.6104 29.1099 50.8236 29.9187 50.8236 31.1703V35.355C47.9872 35.7157 46.7028 37.5708 46.7028 39.412V43.6405H40.8421C39.6438 43.6405 38.5762 44.3115 38.0559 45.3916C37.5365 46.4696 37.6766 47.72 38.4217 48.6549C39.6751 50.2277 41.6102 51.4863 43.9502 52.3264L42.7858 56.0031H29.6716L28.998 53.8761C32.534 53.5275 34.1368 51.8401 34.1368 50.1653C34.1368 48.8399 33.0584 47.7615 31.733 47.7615H29.5326V46.5092C29.5326 45.9134 30.2666 45.7011 30.9534 45.7011H35.3477C35.9168 45.7011 36.3779 45.2398 36.3779 44.6709C36.3779 44.1019 35.9168 43.6406 35.3477 43.6406H30.9534C29.9597 43.6406 29.112 43.9185 28.5016 44.3965C27.832 43.8847 26.9247 43.6406 26.0514 43.6406H10.3021V39.4121C10.3021 37.5709 9.01762 35.7159 6.18125 35.3552V31.1705C6.18125 29.9188 7.39442 29.11 9.27187 29.11H12.2523C12.8213 29.11 13.2825 28.6488 13.2825 28.0798C13.2825 27.5109 12.8213 27.0496 12.2523 27.0496H9.27187C5.71353 27.0496 4.12083 29.1192 4.12083 31.1705V35.3552C1.28446 35.7159 0 37.5709 0 39.4121V57.0334C0 57.6023 0.461258 58.0636 1.03021 58.0636H6.73056C7.29951 58.0636 7.76076 57.6023 7.76076 57.0334C7.76076 56.4644 7.29951 56.0031 6.73056 56.0031H2.06042V39.412C2.06042 38.1604 3.27359 37.3516 5.15104 37.3516C7.02849 37.3516 8.24166 38.1604 8.24166 39.412V47.7613H7.89826C6.57287 47.7613 5.49444 48.8398 5.49444 50.1652C5.49444 51.8401 7.09731 53.5273 10.6333 53.876L9.00773 59.0086C8.83603 59.551 9.13643 60.13 9.67887 60.3017C9.78231 60.3346 9.88711 60.3501 9.99013 60.3501C10.4274 60.3501 10.833 60.0696 10.972 59.6306L11.4684 58.0633H28.163L28.6594 59.6306C28.7984 60.0696 29.2041 60.3501 29.6413 60.3501C29.7443 60.3501 29.8491 60.3346 29.9525 60.3017C30.495 60.13 30.7954 59.551 30.6237 59.0086L30.3244 58.0633H42.1336L41.8343 59.0086C41.6626 59.551 41.9631 60.13 42.5054 60.3017C42.609 60.3346 42.7138 60.3501 42.8168 60.3501C43.254 60.3501 43.6597 60.0696 43.7987 59.6306L44.2951 58.0633H55.9746C56.5437 58.0633 57.0048 57.602 57.0048 57.0331C57.0048 56.4641 56.5437 56.0029 55.9746 56.0029H44.9472L45.9261 52.9116C47.5261 53.2937 49.2569 53.4991 51.0512 53.4991C54.3045 53.4991 57.3906 52.826 59.8782 51.5882L62.4251 59.6306C62.5643 60.0696 62.9699 60.3501 63.407 60.3501C63.51 60.3501 63.6148 60.3346 63.7184 60.3017C64.2607 60.13 64.5612 59.551 64.3895 59.0086L61.6931 50.4946ZM10.3021 45.7008H26.0515C26.7383 45.7008 27.4722 45.913 27.4722 46.5089V47.7612H10.3021V45.7008ZM7.55486 50.165C7.55486 49.9757 7.70898 49.8216 7.89826 49.8216H31.7332C31.9224 49.8216 32.0766 49.9757 32.0766 50.165C32.0766 50.7252 30.9856 51.8816 27.6141 51.882C27.61 51.882 27.6057 51.882 27.6016 51.882H12.0294C12.0255 51.882 12.0217 51.882 12.0179 51.882C9.95524 51.8819 8.84647 51.452 8.27958 51.0912C7.74469 50.7511 7.55486 50.3797 7.55486 50.165ZM12.1209 56.0029L12.7733 53.9425H26.8578L27.5103 56.0029H12.1209ZM63.6402 24.0553C64.1417 22.9587 65.2451 22.2502 66.4509 22.2502H67.1453L58.7377 40.632C57.9158 42.4286 56.1245 43.5977 54.1547 43.6368C54.7762 43.0291 55.2929 42.3055 55.6663 41.4892L63.6402 24.0553ZM48.7632 39.412C48.7632 38.1604 49.9764 37.3516 51.8538 37.3516C53.2609 37.3516 54.3098 37.804 54.734 38.5737L53.7925 40.632C52.9565 42.4596 51.1178 43.6405 49.1081 43.6405H48.7632V39.412ZM40.0329 47.3707C39.7818 47.0554 39.7366 46.6498 39.9119 46.2858C40.0884 45.9195 40.4361 45.7008 40.8421 45.7008H49.1082H54.0532C56.8668 45.7008 59.4411 44.0475 60.6113 41.4889L68.1973 24.9032C67.7042 37.3192 64.619 46.3662 59.8425 49.2591C57.522 50.6646 54.3999 51.4386 51.0512 51.4386C46.3274 51.4386 42.0024 49.8418 40.0329 47.3707Z" fill="#DCA86A"/>
<path d="M5.1513 20.8682H51.8541C52.4232 20.8682 52.8843 20.4069 52.8843 19.838V1.03021C52.8843 0.461258 52.4232 0 51.8541 0H37.4171C36.8481 0 36.3869 0.461258 36.3869 1.03021C36.3869 1.59916 36.8481 2.06042 37.4171 2.06042H50.8239V4.538C46.5957 6.85391 43.277 9.2374 41.9826 10.2047C40.4649 9.26926 36.531 7.02259 33.7563 7.02259C31.2723 7.02259 29.1347 8.11007 26.4281 9.48657C22.2499 11.6121 16.576 14.498 6.18151 14.678V2.06042H33.2963C33.8653 2.06042 34.3265 1.59916 34.3265 1.03021C34.3265 0.461258 33.8653 0 33.2963 0H5.1513C4.58235 0 4.12109 0.461258 4.12109 1.03021V19.838C4.12109 20.4069 4.58235 20.8682 5.1513 20.8682ZM27.3623 11.3232C29.8229 10.0716 31.7662 9.083 33.7563 9.083C36.0865 9.083 40.1115 11.4175 41.4653 12.3168C41.8355 12.563 42.3222 12.5438 42.6719 12.2694C42.7093 12.24 46.1131 9.58176 50.8239 6.898V18.8076H6.18151V16.7387C17.0692 16.5587 22.9979 13.5433 27.3623 11.3232Z" fill="#DCA86A"/>
</svg>
