<svg width="74" height="74" viewBox="0 0 74 74" fill="none" xmlns="http://www.w3.org/2000/svg">
<circle cx="37" cy="37" r="36.5" fill="white" stroke="#DCA86A"/>
<path d="M25 27.0625H49C49.2174 27.0625 49.427 27.1379 49.5938 27.2744L49.6631 27.3369C49.8389 27.5127 49.9375 27.7514 49.9375 28V45C49.9375 45.5139 49.7335 46.0068 49.3701 46.3701C49.0068 46.7335 48.5139 46.9375 48 46.9375H26C25.5505 46.9375 25.1172 46.7813 24.7725 46.499L24.6299 46.3701C24.2665 46.0068 24.0625 45.5139 24.0625 45V28L24.0674 27.9072C24.0857 27.7235 24.1575 27.5491 24.2744 27.4062L24.3369 27.3369C24.5127 27.1611 24.7514 27.0625 25 27.0625ZM39.1289 38.3105L37.6289 39.6914C37.456 39.8501 37.2299 39.9384 36.9951 39.9385C36.7899 39.9385 36.591 39.8711 36.4287 39.748L36.3613 39.6914L34.8613 38.3105L34.8184 38.2715L34.7764 38.3105L27.5293 44.9541L27.4102 45.0625H46.582L46.4639 44.9541L39.2139 38.3105L39.1709 38.2715L39.1289 38.3105ZM47.958 30.2266L40.6191 36.9541L40.5684 37L40.6191 37.0459L47.958 43.7734L48.0625 43.8691V30.1309L47.958 30.2266ZM25.9375 43.8682L26.042 43.7725L33.3809 37.0459L33.4316 37L33.3809 36.9541L26.042 30.2275L25.9375 30.1318V43.8682ZM27.5293 29.0459L36.958 37.6895L37 37.7285L37.042 37.6895L46.4707 29.0459L46.5898 28.9375H27.4102L27.5293 29.0459Z" fill="#DCA86A" stroke="#DCA86A" stroke-width="0.125"/>
</svg>
