<svg width="53" height="61" viewBox="0 0 53 61" fill="none" xmlns="http://www.w3.org/2000/svg">
<path fill-rule="evenodd" clip-rule="evenodd" d="M26.7072 48.1885H17.8789V51.6857C17.8815 52.3435 18.1453 52.9736 18.6128 53.4387C19.0802 53.9039 19.7135 54.1664 20.3747 54.169H33.0397C33.7008 54.1664 34.3342 53.9039 34.8017 53.4388C35.2692 52.9737 35.533 52.3435 35.5356 51.6857V48.1885H26.7072ZM50.4686 35.6841C50.5842 35.7507 50.6855 35.8393 50.7667 35.9449C50.8478 36.0504 50.9073 36.1708 50.9417 36.2992C50.9761 36.4276 50.9847 36.5615 50.9671 36.6933C50.9495 36.825 50.906 36.952 50.839 37.067C50.7721 37.182 50.6831 37.2827 50.577 37.3635C50.4709 37.4443 50.3499 37.5034 50.2208 37.5377C50.0917 37.5719 49.9572 37.5805 49.8248 37.563C49.6924 37.5454 49.5647 37.5021 49.4491 37.4355L46.6083 35.8035C46.4917 35.7375 46.3893 35.6491 46.3072 35.5435C46.225 35.4379 46.1647 35.3172 46.1297 35.1883C46.0946 35.0594 46.0856 34.9249 46.1031 34.7925C46.1205 34.6601 46.1641 34.5325 46.2314 34.4169C46.2986 34.3014 46.3882 34.2002 46.495 34.1193C46.6017 34.0384 46.7235 33.9792 46.8533 33.9453C46.9831 33.9114 47.1183 33.9034 47.2513 33.9218C47.3842 33.9401 47.5122 33.9845 47.6278 34.0523L50.4686 35.6841ZM51.7093 15.5864C51.9701 15.517 52.248 15.5536 52.4818 15.6881C52.7155 15.8226 52.886 16.044 52.9557 16.3035C53.0254 16.5631 52.9887 16.8396 52.8535 17.0721C52.7183 17.3047 52.4958 17.4743 52.2349 17.5437L49.0663 18.3884C48.8054 18.4578 48.5276 18.4211 48.2938 18.2866C48.0601 18.1521 47.8896 17.9308 47.8199 17.6712C47.7502 17.4116 47.787 17.1352 47.9222 16.9026C48.0574 16.67 48.2799 16.5004 48.5408 16.4311L51.7093 15.5864ZM4.78464 38.8479C4.66901 38.9157 4.54105 38.96 4.40812 38.9784C4.27519 38.9967 4.13993 38.9887 4.01012 38.9548C3.88032 38.9209 3.75854 38.8618 3.65181 38.7808C3.54507 38.6999 3.45549 38.5987 3.38823 38.4832C3.32097 38.3677 3.27735 38.24 3.2599 38.1076C3.24244 37.9752 3.25149 37.8407 3.28653 37.7118C3.32156 37.5829 3.38189 37.4622 3.46403 37.3566C3.54618 37.251 3.64851 37.1627 3.76513 37.0966L6.60598 35.4646C6.83941 35.3301 7.11699 35.2934 7.37765 35.3625C7.63831 35.4316 7.86069 35.6009 7.99589 35.8332C8.13108 36.0654 8.16801 36.3416 8.09855 36.6009C8.02908 36.8603 7.85892 37.0815 7.62549 37.216L4.78464 38.8479ZM0.755302 19.1186C0.62613 19.0843 0.505021 19.025 0.39889 18.944C0.29276 18.8631 0.203686 18.7622 0.136754 18.6471C0.0698229 18.5319 0.0263443 18.4047 0.00880157 18.2729C-0.00874117 18.141 -4.36385e-06 18.007 0.0345124 17.8784C0.104222 17.6189 0.274709 17.3975 0.508468 17.263C0.624213 17.1964 0.752009 17.1532 0.884557 17.1357C1.01711 17.1183 1.15181 17.1269 1.28098 17.1613L4.4496 18.006C4.57878 18.0403 4.69989 18.0997 4.80602 18.1806C4.91215 18.2615 5.00122 18.3624 5.06815 18.4776C5.13508 18.5927 5.17856 18.7199 5.19611 18.8518C5.21365 18.9836 5.20491 19.1177 5.17039 19.2462C5.13588 19.3747 5.07626 19.4952 4.99493 19.6008C4.91361 19.7064 4.81218 19.795 4.69644 19.8616C4.58069 19.9282 4.4529 19.9715 4.32035 19.9889C4.1878 20.0064 4.05309 19.9977 3.92392 19.9633L0.755302 19.1186ZM11.9296 2.33264C11.7944 2.10039 11.7575 1.82422 11.8269 1.56487C11.8964 1.30553 12.0666 1.08427 12.3 0.949755C12.5334 0.815243 12.811 0.778502 13.0716 0.847614C13.3323 0.916727 13.5547 1.08603 13.6899 1.31828L15.33 4.14479C15.3981 4.25983 15.4427 4.38715 15.4611 4.51941C15.4796 4.65167 15.4715 4.78625 15.4375 4.9154C15.4034 5.04455 15.344 5.16571 15.2626 5.27191C15.1813 5.3781 15.0796 5.46723 14.9635 5.53416C14.8474 5.60108 14.7191 5.64447 14.586 5.66184C14.4529 5.67921 14.3177 5.6702 14.1882 5.63534C14.0586 5.60048 13.9373 5.54046 13.8312 5.45873C13.7251 5.377 13.6362 5.27519 13.5698 5.15915L11.9296 2.33264ZM38.3053 0.506798C38.4394 0.274545 38.6608 0.10482 38.9207 0.0349579C39.1806 -0.0349037 39.4578 0.000821643 39.6912 0.134275C39.9246 0.267728 40.0952 0.487976 40.1654 0.746569C40.2357 1.00516 40.1997 1.28092 40.0656 1.51317L38.4254 4.33993C38.3589 4.45495 38.2704 4.55584 38.1648 4.63682C38.0592 4.7178 37.9386 4.77729 37.8099 4.8119C37.6812 4.84651 37.5469 4.85556 37.4147 4.83853C37.2824 4.8215 37.1549 4.77872 37.0393 4.71264C36.9237 4.64656 36.8223 4.55848 36.7409 4.45341C36.6595 4.34834 36.5997 4.22835 36.5649 4.10029C36.5301 3.97223 36.521 3.83861 36.5382 3.70705C36.5553 3.5755 36.5983 3.44858 36.6647 3.33356L38.3048 0.507051L38.3053 0.506798ZM36.4957 36.7142C36.4957 36.4452 36.6031 36.1872 36.7943 35.9969C36.9855 35.8067 37.2448 35.6998 37.5152 35.6998C37.7856 35.6998 38.0449 35.8067 38.2361 35.9969C38.4273 36.1872 38.5347 36.4452 38.5347 36.7142V39.0464C38.8109 38.6671 39.0954 38.2885 39.3851 37.9042C41.6952 34.835 44.2999 31.3742 44.2999 24.1443C44.2873 19.5102 42.4283 15.0701 39.1304 11.7977C35.8326 8.52529 31.365 6.6876 26.7074 6.6876C22.0497 6.6876 17.5822 8.52529 14.2843 11.7977C10.9864 15.0701 9.12739 19.5102 9.11486 24.1443C9.11486 36.8922 17.2152 37.9451 17.8409 46.1595H25.062V38.9555C21.0292 37.9394 17.5207 34.7354 15.343 30.9824C14.045 28.781 13.214 26.3384 12.901 23.8052C12.6207 21.3397 12.9374 19.0096 13.8254 17.1022L13.8271 17.103C13.9147 16.9142 14.0587 16.757 14.2394 16.6526C14.4201 16.5482 14.6288 16.5018 14.837 16.5197C16.9452 16.7085 19.1346 17.6014 21.142 19.077C23.2641 20.6366 25.1289 22.8034 26.5234 25.4078L26.6763 25.1387L26.6747 25.1377C27.9418 22.92 29.652 20.9841 31.6999 19.4493C33.7072 17.9737 35.8967 17.0808 38.0048 16.892C38.213 16.8741 38.4217 16.9204 38.6024 17.0248C38.7831 17.1292 38.927 17.2865 39.0146 17.4752L39.0164 17.4745C39.9044 19.3818 40.2212 21.712 39.9407 24.1776C39.38 29.1032 36.4801 34.1017 32.4736 37.0473C30.7606 38.3066 28.915 39.1413 27.1006 39.4764V46.16H36.5551C36.8255 46.16 37.0848 46.2669 37.276 46.4571C37.4672 46.6473 37.5746 46.9053 37.5746 47.1744V51.686C37.5718 52.8818 37.0931 54.0278 36.2433 54.8733C35.3935 55.7189 34.2417 56.1952 33.0398 56.198H31.7547V57.9051C31.7535 58.5532 31.4942 59.1744 31.0336 59.6326C30.5731 60.0909 29.9487 60.3488 29.2974 60.35H24.117C23.4656 60.3488 22.8413 60.0909 22.3807 59.6326C21.9201 59.1744 21.6608 58.5532 21.6596 57.9051V56.1977H20.3747C19.1728 56.1949 18.021 55.7186 17.1712 54.8731C16.3213 54.0275 15.8427 52.8815 15.8399 51.6857V47.1741C15.8399 39.088 7.07572 38.0449 7.07572 24.1445C7.08896 18.9728 9.16312 14.0174 12.8433 10.3651C16.5235 6.71285 21.5093 4.6618 26.7072 4.6618C31.9052 4.6618 36.891 6.71285 40.5712 10.3651C44.2514 14.0174 46.3255 18.9728 46.3388 24.1445C46.3388 32.0367 43.5146 35.7891 41.0098 39.1169C40.5893 39.6748 40.179 40.2201 39.7969 40.7706L42.9973 39.6227C43.2506 39.5332 43.5293 39.5472 43.7722 39.6618C44.0151 39.7763 44.2024 39.982 44.2931 40.2338C44.3838 40.4856 44.3704 40.7629 44.2559 41.0049C44.1414 41.2468 43.9351 41.4338 43.6823 41.5246L37.9482 43.5811C37.7929 43.6543 37.6214 43.6871 37.4499 43.6765C37.2783 43.6659 37.1123 43.6123 36.9672 43.5206C36.8221 43.4289 36.7028 43.3021 36.6203 43.152C36.5378 43.002 36.4948 42.8336 36.4954 42.6626V36.7144L36.4957 36.7142ZM30.1131 30.4287C30.2484 30.1988 30.4696 30.0315 30.7284 29.9631C30.9872 29.8947 31.2627 29.9308 31.4948 30.0636C31.727 30.1963 31.897 30.4149 31.9679 30.6718C32.0388 30.9287 32.0049 31.2031 31.8734 31.4352L28.7076 36.8908C33.6139 34.8272 37.3203 29.207 37.9179 23.9562C38.1237 22.1476 37.9628 20.4462 37.4483 19.0056C33.7388 19.686 30.4112 22.7474 28.4351 26.1526L28.4335 26.1515C26.5856 29.3368 25.6261 33.2988 26.4817 36.6868L30.1131 30.4287ZM24.2665 35.9478L21.6479 31.4352C21.5164 31.2031 21.4824 30.9287 21.5533 30.6718C21.6242 30.4149 21.7943 30.1963 22.0265 30.0636C22.2586 29.9308 22.5341 29.8947 22.7929 29.9631C23.0517 30.0315 23.2728 30.1988 23.4082 30.4287L24.2815 31.934C24.4847 30.5029 24.8602 29.1013 25.4 27.7594C25.2857 27.4924 25.1606 27.2192 25.0249 26.94C23.7854 24.3948 22.0046 22.2265 19.9312 20.7017C18.4609 19.621 16.9016 18.9095 15.3936 18.633C14.1327 22.1641 15.1242 26.5658 17.1031 29.9761C18.8041 32.9074 21.3984 35.4504 24.3813 36.6185C24.337 36.3978 24.2988 36.1742 24.2666 35.9475L24.2665 35.9478ZM29.7159 57.9051V56.1977H23.6986V57.9051C23.6996 58.0152 23.7441 58.1205 23.8223 58.1984C23.9005 58.2762 24.0064 58.3204 24.117 58.3214H29.2974C29.408 58.3204 29.5138 58.2762 29.5921 58.1984C29.6704 58.1205 29.7148 58.0152 29.7159 57.9051Z" fill="#DCA86A"/>
</svg>
