<svg width="61" height="61" viewBox="0 0 61 61" fill="none" xmlns="http://www.w3.org/2000/svg">
<mask id="mask0_3229_3988" style="mask-type:luminance" maskUnits="userSpaceOnUse" x="0" y="0" width="61" height="61">
<path d="M0 -2.18342e-05H60.35V60.35H0V-2.18342e-05Z" fill="white"/>
</mask>
<g mask="url(#mask0_3229_3988)">
<path d="M58.5785 39.5744C58.5785 39.8468 58.3543 40.072 58.083 40.072H22.887C22.6157 40.072 22.3916 39.8469 22.3916 39.5744V38.3587C22.3916 33.8931 24.5772 30.546 27.9311 28.2806C31.3114 25.9975 35.8731 24.8267 40.485 24.8266C45.0969 24.8266 49.6586 25.9974 53.0389 28.2806C56.3929 30.546 58.5785 33.8931 58.5785 38.3587V39.5744ZM60.349 38.3587C60.349 33.2101 57.7899 29.3464 54.0268 26.8047C50.2901 24.2808 45.3624 23.0481 40.485 23.0481C35.6076 23.0481 30.68 24.2808 26.9433 26.8047C23.1802 29.3464 20.6211 33.2101 20.6211 38.3587V39.5744C20.6211 40.8291 21.6378 41.8506 22.887 41.8506H58.083C59.3321 41.8506 60.349 40.8291 60.349 39.5744V38.3587Z" fill="#DCA86A"/>
<path d="M4.59529 38.2724C4.75174 38.7356 5.25679 38.9852 5.72329 38.8299L23.35 32.96L23.3931 32.9444C23.8318 32.7733 24.063 32.2886 23.9114 31.8399C23.7598 31.3911 23.2812 31.1429 22.8273 31.2691L22.7835 31.2825L5.15673 37.1524C4.69024 37.3077 4.43886 37.8091 4.59529 38.2724ZM6.71148 53.6892C6.86752 54.1364 7.34861 54.38 7.8012 54.2494L7.84496 54.2356L22.7477 49.1084L22.7906 49.0924C23.2276 48.917 23.4539 48.4301 23.2978 47.9829C23.1418 47.5356 22.6607 47.2921 22.2081 47.4228L22.1644 47.4366L7.2616 52.5637L7.21863 52.5796C6.78166 52.7551 6.55544 53.242 6.71148 53.6892Z" fill="#DCA86A"/>
<path d="M53.6812 37.3717C54.037 37.6931 54.5863 37.6824 54.9292 37.3395C55.272 36.9967 55.2827 36.4474 54.9613 36.0916L54.9292 36.0578L54.9222 36.0508C54.5682 35.6969 53.9944 35.6969 53.6404 36.0508C53.2865 36.4048 53.2865 36.9786 53.6404 37.3325L53.6474 37.3395L53.6812 37.3717Z" fill="#DCA86A"/>
<path d="M48.2223 37.3717C48.578 37.6931 49.1273 37.6824 49.4702 37.3395C49.813 36.9967 49.8238 36.4474 49.5023 36.0916L49.4702 36.0578L49.4632 36.0508C49.1093 35.6969 48.5354 35.6969 48.1815 36.0508C47.8275 36.4048 47.8275 36.9786 48.1815 37.3325L48.1884 37.3395L48.2223 37.3717Z" fill="#DCA86A"/>
<path d="M42.7633 37.3717C43.119 37.6931 43.6683 37.6824 44.0112 37.3395C44.3541 36.9967 44.3648 36.4474 44.0433 36.0916L44.0112 36.0578L44.0042 36.0508C43.6503 35.6969 43.0764 35.6969 42.7225 36.0508C42.3686 36.4048 42.3685 36.9786 42.7225 37.3325L42.7295 37.3395L42.7633 37.3717Z" fill="#DCA86A"/>
<path d="M37.0016 37.3717C37.3573 37.6931 37.9066 37.6824 38.2495 37.3395C38.5923 36.9967 38.603 36.4474 38.2816 36.0916L38.2495 36.0578L38.2425 36.0508C37.8885 35.6969 37.3147 35.6969 36.9608 36.0508C36.6068 36.4048 36.6068 36.9786 36.9608 37.3325L36.9677 37.3395L37.0016 37.3717Z" fill="#DCA86A"/>
<path d="M31.5445 37.3717C31.9003 37.6931 32.4496 37.6824 32.7924 37.3395C33.1353 36.9967 33.146 36.4474 32.8246 36.0916L32.7924 36.0578L32.7854 36.0508C32.4315 35.6969 31.8576 35.6969 31.5037 36.0508C31.1498 36.4048 31.1498 36.9786 31.5037 37.3325L31.5107 37.3395L31.5445 37.3717Z" fill="#DCA86A"/>
<path d="M26.0836 37.3717C26.4393 37.6931 26.9886 37.6824 27.3315 37.3395C27.6744 36.9967 27.6851 36.4474 27.3636 36.0916L27.3315 36.0578L27.3245 36.0508C26.9706 35.6969 26.3967 35.6969 26.0428 36.0508C25.6889 36.4048 25.6889 36.9786 26.0428 37.3325L26.0498 37.3395L26.0836 37.3717Z" fill="#DCA86A"/>
<path d="M50.8306 32.9946C51.1164 33.3788 51.657 33.4758 52.0605 33.2074C52.4639 32.939 52.5821 32.4036 52.3368 31.9925L52.3118 31.9531L52.3048 31.9426C52.0272 31.527 51.4646 31.4147 51.0482 31.6918C50.6317 31.9689 50.5192 32.5304 50.7968 32.946L50.8038 32.9565L50.8306 32.9946Z" fill="#DCA86A"/>
<path d="M45.4947 33.1265C45.8498 33.4473 46.398 33.4367 46.7402 33.0945C47.0824 32.7522 47.0931 32.204 46.7723 31.849L46.7402 31.8152L46.7297 31.8047C46.3765 31.4515 45.8037 31.4515 45.4505 31.8047C45.0972 32.1579 45.0972 32.7307 45.4505 33.0839L45.461 33.0945L45.4947 33.1265Z" fill="#DCA86A"/>
<path d="M39.9837 33.1261C40.2802 33.4475 40.7379 33.4368 41.0236 33.0939C41.3094 32.7511 41.3183 32.2018 41.0504 31.846L41.0236 31.8122L41.0178 31.8052C40.7229 31.4513 40.2447 31.4513 39.9497 31.8052C39.6548 32.1591 39.6548 32.733 39.9497 33.0869L39.9555 33.0939L39.9837 33.1261Z" fill="#DCA86A"/>
<path d="M34.2711 33.1261C34.6268 33.4475 35.1761 33.4368 35.519 33.0939C35.8619 32.7511 35.8726 32.2018 35.5511 31.846L35.519 31.8122L35.512 31.8052C35.1581 31.4513 34.5842 31.4513 34.2303 31.8052C33.8764 32.1591 33.8764 32.733 34.2303 33.0869L34.2373 33.0939L34.2711 33.1261Z" fill="#DCA86A"/>
<path d="M28.692 32.7519C28.9777 33.0721 29.5184 33.1529 29.9218 32.9292C30.3252 32.7056 30.4435 32.2594 30.1981 31.9169L30.1731 31.884L30.1661 31.8753C29.8885 31.5289 29.3259 31.4353 28.9095 31.6662C28.4931 31.8971 28.3805 32.3651 28.6581 32.7114L28.6651 32.7202L28.692 32.7519Z" fill="#DCA86A"/>
<path d="M42.8566 28.959C43.2586 29.2295 43.7997 29.1354 44.0876 28.7527L44.1147 28.7148L44.1217 28.7044L44.1467 28.6652C44.3943 28.2554 44.279 27.7194 43.8771 27.4488C43.4621 27.1694 42.8988 27.2787 42.619 27.6929L42.612 27.7032L42.5869 27.7425C42.3393 28.1523 42.4546 28.6884 42.8566 28.959Z" fill="#DCA86A"/>
<path d="M37.0949 28.9587C37.4968 29.2293 38.038 29.1351 38.3259 28.7525L38.353 28.7146L38.3599 28.7041L38.385 28.6649C38.6326 28.2551 38.5173 27.7191 38.1153 27.4485C37.7004 27.1692 37.1371 27.2785 36.8573 27.6927L36.8503 27.703L36.8252 27.7423C36.5776 28.1521 36.6929 28.6881 37.0949 28.9587Z" fill="#DCA86A"/>
<path d="M60.3485 54.2569C60.3276 53.4302 59.6535 52.7683 58.8331 52.7683H43.8615C43.3726 52.7683 42.9762 53.1687 42.9762 53.6627C42.9762 54.1566 43.3726 54.5571 43.8615 54.5571H58.5785V56.5591C58.5785 57.6563 57.6828 58.5612 56.5968 58.5612H24.3733C23.2873 58.5612 22.3916 57.6563 22.3916 56.5591V54.5571H39.6959L39.7414 54.5559C40.2092 54.532 40.5811 54.1412 40.5811 53.6627C40.5811 53.1842 40.2092 52.7934 39.7414 52.7695L39.6959 52.7683H22.137C21.3035 52.7683 20.6211 53.4514 20.6211 54.2964V56.5591C20.6211 58.6442 22.3095 60.35 24.3733 60.35H56.5968C58.6606 60.35 60.349 58.6442 60.349 56.5591V54.2964L60.3485 54.2569Z" fill="#DCA86A"/>
<path d="M0 15.0638V17.0858C0 18.3647 1.04598 19.409 2.32749 19.4091H20.0509L20.0964 19.4079C20.5635 19.3843 20.935 18.9987 20.935 18.5266C20.935 18.0545 20.5635 17.6689 20.0964 17.6453L20.0509 17.6441H2.32749C2.02262 17.6441 1.7682 17.3901 1.7682 17.0858V15.0638C1.76821 14.7547 2.02394 14.5021 2.32749 14.5021H40.433C40.7365 14.5021 40.9923 14.7547 40.9924 15.0638V17.0858C40.9924 17.3901 40.7379 17.6441 40.433 17.6441H24.2518C23.7636 17.6442 23.3677 18.0392 23.3677 18.5266C23.3677 19.014 23.7636 19.409 24.2518 19.4091H40.433C41.7145 19.4091 42.7606 18.3647 42.7606 17.0858V15.0638C42.7605 13.7827 41.7158 12.7372 40.433 12.7372H2.32749C1.04467 12.7372 1.11676e-05 13.7827 0 15.0638Z" fill="#DCA86A"/>
<path d="M23.0549 13.6787C23.0549 14.1636 23.4497 14.5568 23.9368 14.5568C24.4238 14.5568 24.8187 14.1636 24.8187 13.6787V7.41533L31.8301 5.59813L31.8316 5.59779L31.9024 5.57832C33.3559 5.15917 34.2336 3.66877 33.8918 2.20171L33.8743 2.13079C33.8742 2.13018 33.874 2.12951 33.8739 2.1289C33.482 0.635295 31.9604 -0.271946 30.4606 0.0731429L30.3892 0.090465C30.3885 0.0906492 30.3878 0.0908793 30.3871 0.0910653L21.2421 2.46471L21.2414 2.46497C19.9705 2.79598 19.1055 3.91275 19.1055 5.21825V13.6787C19.1055 14.1636 19.5003 14.5568 19.9874 14.5568C20.4744 14.5568 20.8692 14.1636 20.8692 13.6787V5.21825C20.8692 4.71155 21.1928 4.29289 21.6877 4.164L30.8298 1.79104H30.8298C31.4124 1.64139 32.0141 1.99298 32.1669 2.57105C32.3168 3.1474 31.9635 3.7477 31.3843 3.89893V3.89902L23.7146 5.88669C23.3261 5.9874 23.0549 6.33675 23.0549 6.7365V13.6787Z" fill="#DCA86A"/>
<path d="M24.4243 60.35L24.4698 60.3488C24.9367 60.3251 25.308 59.9368 25.308 59.4614C25.308 58.9859 24.9367 58.5977 24.4698 58.5739L24.4243 58.5728H10.3467C9.79314 58.5728 9.26824 58.1101 9.15343 57.2611L9.15335 57.2609L3.88241 18.3582L3.87516 18.3131C3.78869 17.851 3.35603 17.5335 2.88756 17.5977C2.40398 17.6639 2.06536 18.1118 2.13124 18.5981L7.40218 57.5008C7.5938 58.9171 8.62722 60.35 10.3467 60.35H24.4243ZM38.8932 24.8369C39.3617 24.901 39.7943 24.5834 39.8807 24.1214L39.888 24.0763L40.6297 18.598L40.6347 18.5526C40.6742 18.0841 40.3418 17.6618 39.8733 17.5977C39.4048 17.5335 38.9722 17.8511 38.8858 18.3131L38.8785 18.3583L38.1368 23.8365L38.1318 23.882C38.0922 24.3504 38.4247 24.7728 38.8932 24.8369Z" fill="#DCA86A"/>
<path d="M55.8539 40.9213C55.8539 43.068 54.9001 44.1136 53.8785 44.5076C52.7965 44.9248 51.4799 44.6834 50.6064 43.9223L50.5651 43.8857L50.559 43.8802C50.4924 43.821 50.3942 43.7355 50.2833 43.6642C50.1689 43.5907 49.974 43.4877 49.7165 43.4758C49.2539 43.4544 48.9365 43.7393 48.7999 43.8785L48.7525 43.928C48.7516 43.9289 48.7507 43.9299 48.7498 43.9309C48.1041 44.6148 47.3437 44.9227 46.6176 44.9227C45.9132 44.9226 45.1746 44.6331 44.5427 43.9938L44.4819 43.9309C44.4669 43.915 44.4513 43.8997 44.4352 43.885C44.3673 43.8229 44.2684 43.735 44.1549 43.6614C44.0377 43.5853 43.8405 43.4813 43.5803 43.4707C43.0541 43.4493 42.7178 43.8233 42.6202 43.9275L42.5593 43.9905C41.9273 44.63 41.1918 44.9192 40.4844 44.9192C39.7582 44.9192 38.9978 44.6114 38.3522 43.9275C38.2541 43.8228 37.918 43.4494 37.3917 43.4707C37.1329 43.4812 36.9363 43.584 36.8193 43.6591C36.7342 43.7137 36.6571 43.7765 36.5949 43.8305L36.538 43.8811C36.5203 43.897 36.5032 43.9136 36.4869 43.9309C35.8414 44.6147 35.0809 44.9227 34.3547 44.9227C33.6513 44.9227 32.9157 44.6337 32.2834 43.9939L32.2225 43.9309C32.2215 43.9299 32.2206 43.9288 32.2196 43.9278C32.1199 43.8232 31.7815 43.4515 31.2547 43.4757C30.9975 43.4875 30.8025 43.5902 30.6864 43.665C30.6022 43.7193 30.5258 43.7815 30.4646 43.8346L30.4088 43.8841L30.4076 43.8852C29.5327 44.6758 28.1911 44.9313 27.0926 44.5076C26.0717 44.1138 25.1183 43.0683 25.1183 40.9213C25.1183 40.4297 24.7228 40.0311 24.2349 40.0311C23.7471 40.0311 23.3516 40.4297 23.3516 40.9213C23.3516 43.6967 24.6604 45.4757 26.4611 46.1703C28.0542 46.7848 29.9177 46.4957 31.2673 45.475C32.1637 46.2793 33.2457 46.703 34.3547 46.703C35.4552 46.703 36.5292 46.2856 37.4214 45.4933C38.313 46.2835 39.3855 46.6995 40.4844 46.6995C41.5854 46.6995 42.6576 46.2842 43.5491 45.4948C44.4422 46.2866 45.5183 46.703 46.6176 46.703C47.7265 46.703 48.8084 46.2793 49.7047 45.4752C51.0533 46.496 52.9168 46.7846 54.5099 46.1703C56.3107 45.4759 57.6206 43.697 57.6207 40.9213C57.6207 40.4297 57.2252 40.0311 56.7373 40.0311C56.2494 40.0311 55.8539 40.4297 55.8539 40.9213Z" fill="#DCA86A"/>
<path d="M57.9759 47.0046C57.9759 48.0142 57.1628 48.8423 56.1782 48.8423H24.7936C23.8063 48.8423 22.9959 48.015 22.9959 47.0046C22.9959 45.9983 23.8056 45.1703 24.7936 45.1703H25.253L25.2985 45.1691C25.7654 45.1449 26.1367 44.7511 26.1367 44.2687C26.1367 43.7863 25.7654 43.3924 25.2985 43.3683L25.253 43.3671H24.7936C22.8279 43.3671 21.2285 45.0041 21.2285 47.0046C21.2285 49.0077 22.8272 50.6455 24.7936 50.6455H56.1782C58.1405 50.6455 59.7433 49.0085 59.7433 47.0046C59.7433 45.0034 58.1398 43.3671 56.1782 43.3671H55.7189C55.2308 43.3671 54.8352 43.7708 54.8352 44.2687C54.8352 44.7666 55.2308 45.1703 55.7189 45.1703H56.1782C57.1635 45.1703 57.9759 45.9991 57.9759 47.0046Z" fill="#DCA86A"/>
<path d="M23.6523 49.7012V53.7125C23.6523 54.196 24.0488 54.5879 24.5378 54.5879C25.0267 54.5879 25.4232 54.196 25.4232 53.7125V49.7012C25.4231 49.2178 25.0267 48.8258 24.5378 48.8258C24.0488 48.8258 23.6524 49.2178 23.6523 49.7012ZM55.2408 49.7012V53.7125C55.2408 54.196 55.6372 54.5879 56.1262 54.5879C56.6152 54.5879 57.0116 54.196 57.0116 53.7125V49.7012C57.0116 49.2178 56.6152 48.8258 56.1262 48.8258C55.6373 48.8258 55.2408 49.2178 55.2408 49.7012Z" fill="#DCA86A"/>
</g>
</svg>
