<?xml version="1.0" encoding="UTF-8"?>
<svg xmlns="http://www.w3.org/2000/svg" xmlns:xlink="http://www.w3.org/1999/xlink" width="28px" height="28px" viewBox="0 0 28 28" version="1.1">
<g id="surface1">
<path style=" stroke:none;fill-rule:nonzero;fill:rgb(86.274511%,65.882355%,41.568628%);fill-opacity:1;" d="M 24.59375 16.753906 L 21.84375 15.871094 L 22.792969 8.179688 C 25.710938 7.90625 28 5.445312 28 2.460938 C 28 1.105469 26.894531 0 25.539062 0 C 24.183594 0 23.078125 1.105469 23.078125 2.460938 C 23.078125 2.914062 22.710938 3.28125 22.257812 3.28125 L 20.617188 3.28125 C 19.367188 3.28125 18.332031 4.21875 18.175781 5.429688 C 18.175781 5.433594 18.175781 5.433594 18.175781 5.4375 L 17.074219 14.335938 L 9.660156 11.953125 C 9.429688 11.878906 9.199219 11.816406 8.960938 11.765625 L 8.527344 8.203125 L 8.886719 8.203125 C 10.320312 8.203125 11.484375 7.039062 11.484375 5.605469 C 11.484375 4.332031 10.570312 3.253906 9.316406 3.046875 L 3.582031 2.089844 C 1.707031 1.777344 0 3.226562 0 5.125 C 0 6.824219 1.378906 8.203125 3.078125 8.203125 L 3.566406 8.203125 L 4.078125 12.375 C 1.664062 13.589844 0 16.09375 0 18.976562 C 0 20.648438 0.566406 22.257812 1.589844 23.550781 C 0.636719 24.125 0 25.167969 0 26.359375 L 0 27.179688 C 0 27.632812 0.367188 28 0.820312 28 L 5.742188 28 C 6.195312 28 6.5625 27.632812 6.5625 27.179688 L 6.5625 26.359375 C 6.5625 26.34375 6.5625 26.328125 6.5625 26.3125 C 6.832031 26.34375 7.109375 26.359375 7.382812 26.359375 L 21.4375 26.359375 L 21.4375 27.179688 C 21.4375 27.632812 21.804688 28 22.257812 28 L 27.179688 28 C 27.632812 28 28 27.632812 28 27.179688 L 28 26.359375 C 28 25.523438 27.683594 24.757812 27.167969 24.175781 C 27.707031 23.371094 28 22.425781 28 21.4375 C 28 19.296875 26.632812 17.414062 24.59375 16.753906 Z M 19.800781 5.660156 L 19.800781 5.65625 C 19.84375 5.246094 20.195312 4.921875 20.617188 4.921875 L 22.257812 4.921875 C 23.613281 4.921875 24.71875 3.816406 24.71875 2.460938 C 24.71875 2.007812 25.085938 1.640625 25.539062 1.640625 C 25.992188 1.640625 26.359375 2.007812 26.359375 2.460938 C 26.359375 4.722656 24.519531 6.5625 22.257812 6.5625 L 20.617188 6.5625 C 20.164062 6.5625 19.796875 6.195312 19.796875 5.742188 C 19.796875 5.714844 19.796875 5.6875 19.800781 5.660156 Z M 19.519531 7.945312 C 19.851562 8.109375 20.222656 8.203125 20.617188 8.203125 L 21.136719 8.203125 L 20.253906 15.359375 L 18.664062 14.847656 Z M 3.078125 6.5625 C 2.285156 6.5625 1.640625 5.917969 1.640625 5.125 C 1.640625 4.238281 2.4375 3.5625 3.3125 3.707031 L 9.042969 4.664062 C 9.507812 4.742188 9.84375 5.136719 9.84375 5.605469 C 9.84375 6.132812 9.414062 6.5625 8.886719 6.5625 Z M 7.289062 11.59375 C 6.730469 11.601562 6.183594 11.671875 5.660156 11.796875 L 5.222656 8.203125 L 6.875 8.203125 Z M 1.640625 26.359375 C 1.640625 25.453125 2.375 24.71875 3.28125 24.71875 C 4.1875 24.71875 4.921875 25.453125 4.921875 26.359375 Z M 23.078125 26.359375 C 23.078125 25.453125 23.8125 24.71875 24.71875 24.71875 C 25.625 24.71875 26.359375 25.453125 26.359375 26.359375 Z M 25.804688 23.261719 C 25.464844 23.144531 25.097656 23.078125 24.71875 23.078125 C 23.507812 23.078125 22.445312 23.738281 21.878906 24.71875 L 7.382812 24.71875 C 6.921875 24.71875 6.464844 24.664062 6.019531 24.554688 C 5.445312 23.6875 4.472656 23.109375 3.367188 23.082031 C 2.265625 22.003906 1.640625 20.523438 1.640625 18.976562 C 1.640625 15.808594 4.214844 13.234375 7.382812 13.234375 C 7.988281 13.234375 8.585938 13.328125 9.152344 13.511719 L 10.324219 13.890625 C 10.347656 13.898438 10.367188 13.90625 10.390625 13.910156 L 24.089844 18.316406 C 25.449219 18.753906 26.359375 20.007812 26.359375 21.4375 C 26.359375 22.097656 26.164062 22.726562 25.804688 23.261719 Z M 25.804688 23.261719 "/>
<path style=" stroke:none;fill-rule:nonzero;fill:rgb(86.274511%,65.882355%,41.568628%);fill-opacity:1;" d="M 13.945312 21.4375 L 12.554688 21.4375 L 11.179688 20.523438 C 11.375 20.046875 11.484375 19.523438 11.484375 18.976562 C 11.484375 16.714844 9.644531 14.875 7.382812 14.875 C 5.121094 14.875 3.28125 16.714844 3.28125 18.976562 C 3.28125 21.238281 5.121094 23.078125 7.382812 23.078125 C 8.507812 23.078125 9.527344 22.621094 10.269531 21.886719 L 11.851562 22.941406 C 11.984375 23.03125 12.144531 23.078125 12.304688 23.078125 L 13.945312 23.078125 C 14.398438 23.078125 14.765625 22.710938 14.765625 22.257812 C 14.765625 21.804688 14.398438 21.4375 13.945312 21.4375 Z M 9.769531 19.582031 L 7.835938 18.292969 C 7.460938 18.042969 6.953125 18.144531 6.699219 18.523438 C 6.449219 18.898438 6.550781 19.40625 6.929688 19.660156 L 8.859375 20.945312 C 8.445312 21.253906 7.933594 21.4375 7.382812 21.4375 C 6.027344 21.4375 4.921875 20.332031 4.921875 18.976562 C 4.921875 17.621094 6.027344 16.515625 7.382812 16.515625 C 8.738281 16.515625 9.84375 17.621094 9.84375 18.976562 C 9.84375 19.183594 9.816406 19.386719 9.769531 19.582031 Z M 9.769531 19.582031 "/>
<path style=" stroke:none;fill-rule:nonzero;fill:rgb(86.274511%,65.882355%,41.568628%);fill-opacity:1;" d="M 20.617188 18.15625 C 19.261719 18.15625 18.15625 19.261719 18.15625 20.617188 C 18.15625 21.972656 19.261719 23.078125 20.617188 23.078125 C 21.972656 23.078125 23.078125 21.972656 23.078125 20.617188 C 23.078125 19.261719 21.972656 18.15625 20.617188 18.15625 Z M 20.617188 21.4375 C 20.164062 21.4375 19.796875 21.070312 19.796875 20.617188 C 19.796875 20.164062 20.164062 19.796875 20.617188 19.796875 C 21.070312 19.796875 21.4375 20.164062 21.4375 20.617188 C 21.4375 21.070312 21.070312 21.4375 20.617188 21.4375 Z M 20.617188 21.4375 "/>
</g>
</svg>
