<svg width="60" height="60" viewBox="0 0 60 60" fill="none" xmlns="http://www.w3.org/2000/svg">
<path d="M3.7445 26.1844H3.93181C4.86836 26.0907 5.71125 25.7161 6.36683 24.9669C7.02242 24.2176 7.30338 23.3748 7.20973 22.4382V21.7826C7.20973 21.5953 7.30338 21.5017 7.49069 21.408L11.2369 20.0032L8.7082 36.3927C8.61455 36.861 8.98917 37.4229 9.45744 37.4229H9.64475C10.113 37.4229 10.4876 37.0483 10.5813 36.6737L13.8592 15.2268C14.2338 12.9791 16.2942 11.387 18.6356 11.6679C19.4785 11.7616 20.2277 12.1362 20.8833 12.6981L25.6597 17.0063C26.5026 17.7555 27.7201 17.7555 28.563 17.0999L30.4361 15.6951C30.8107 15.4141 31.1853 15.3205 31.6536 15.3205C32.1219 15.4141 32.4965 15.6014 32.7775 15.976C33.0584 16.3507 33.1521 16.7253 33.1521 17.1936C33.0584 17.6618 32.8711 18.0364 32.4965 18.3174L29.0313 21.0334C27.9074 21.8763 26.3153 21.8763 25.2851 20.9397L20.6024 16.9126C20.2277 16.538 19.5721 16.6316 19.2912 17.0063C18.9166 17.3809 19.0102 18.0364 19.3848 18.3174L21.6326 20.2842L20.0404 30.5862C19.9468 31.0544 20.2277 31.429 20.6024 31.6164L25.847 33.8641C25.9407 33.9577 26.128 33.9577 26.2216 33.9577C26.5963 33.9577 26.9709 33.7704 27.0645 33.3958C27.2518 32.9275 27.0645 32.3656 26.5963 32.1783L22.0072 30.2115L23.3183 21.7826L24.0676 22.4382C25.0041 23.1874 26.128 23.5621 27.2518 23.5621C28.282 23.5621 29.4059 23.1874 30.2488 22.5319L33.714 19.8159C34.4633 19.254 34.9315 18.4111 35.0252 17.4745C35.1188 16.538 34.8379 15.6014 34.2759 14.8522C33.714 14.103 32.8711 13.6347 31.9346 13.541C30.998 13.4474 30.0615 13.7283 29.3122 14.2903L27.4391 15.6951C27.3455 15.7887 27.0645 15.7887 26.9709 15.6951L22.1008 11.2933C21.9135 11.106 21.7262 10.9187 21.4452 10.8251C21.9135 10.6377 22.3818 10.4504 22.7564 10.1695C23.9739 9.32658 24.7232 8.01541 25.0041 6.51694C25.2851 5.01847 24.9105 3.52 24.0676 2.30249C23.2247 1.08498 21.9135 0.335741 20.415 0.0547776C18.9166 -0.132532 17.4181 0.148432 16.2006 1.08498C14.9831 1.92787 14.2338 3.23903 13.9529 4.7375C13.6719 6.89156 14.5148 8.85831 16.1069 10.0758C15.3577 10.3568 14.6084 10.7314 13.9529 11.2933L6.46049 14.0093C5.99221 14.1966 5.71125 14.7585 5.89856 15.2268C5.99221 15.6014 6.36683 15.8824 6.74145 15.8824C6.83511 15.8824 6.92876 15.8824 7.02242 15.7887L12.1734 13.9157C12.0798 14.1966 11.9861 14.5712 11.8925 14.9459L11.4242 17.9428L6.83511 19.6286C5.89856 20.0032 5.33663 20.8461 5.43029 21.8763V22.5319C5.43029 23.0001 5.33663 23.3748 5.05567 23.7494C4.68105 24.124 4.30643 24.3113 3.83816 24.3113C2.90161 24.405 2.15237 23.6557 2.05872 22.7192L1.87141 19.8159C1.77775 18.5047 2.62064 17.2872 3.83816 16.8189C4.30643 16.6316 4.58739 16.0697 4.40008 15.6014C4.30643 15.2268 3.7445 14.9459 3.27623 15.1332C1.21582 15.8824 -0.0953431 17.8491 0.0919664 20.0032L0.279276 22.9065C0.372931 24.7796 1.96506 26.1844 3.7445 26.1844ZM15.826 5.01847C16.1069 3.14538 17.6991 1.83421 19.5721 1.83421H20.1341C22.1945 2.11518 23.5993 4.08192 23.2247 6.14232C23.0374 7.17252 22.5691 8.01541 21.7262 8.57734C20.8833 9.13927 19.9468 9.42023 18.9166 9.23292C16.8562 8.95196 15.4513 7.07887 15.826 5.01847Z" fill="#DCA86A"/>
<path d="M45.7035 58.0268H3.55888C2.62233 58.0268 1.87309 57.2776 1.87309 56.341C1.87309 55.4045 2.62233 54.6552 3.55888 54.6552H9.9274H10.3957H10.7703H21.166C21.7279 54.6552 22.1025 54.2806 22.1025 53.7187C22.1025 53.1568 21.7279 52.7822 21.166 52.7822H13.7672C14.0482 52.4075 14.2355 51.9393 14.2355 51.3773L16.5769 36.018L24.3502 39.5769C24.5375 39.6705 24.5375 39.7642 24.5375 39.9515L23.882 44.2596C23.5073 46.4136 25.0058 48.3804 27.1599 48.6613C29.3139 49.036 31.2807 47.5375 31.5616 45.3834L32.5918 38.5467C32.9665 36.3926 31.749 34.2385 29.6885 33.302C29.2203 33.1147 28.6583 33.302 28.471 33.7703C28.2837 34.2385 28.471 34.8005 28.9393 34.9878C30.1568 35.5497 30.9061 36.8609 30.7188 38.172L29.6885 45.0088C29.5012 46.1327 28.471 46.8819 27.3472 46.6946C26.2233 46.5073 25.4741 45.4771 25.6614 44.3532L26.317 40.0451C26.5043 39.1086 25.9424 38.0784 25.0058 37.7038L16.1086 33.583C15.8277 33.4893 15.5467 33.4893 15.2657 33.583C14.9848 33.6766 14.7974 33.9576 14.7974 34.2385L12.2688 50.8154C12.1751 51.6583 11.4259 52.3139 10.583 52.5012H9.9274C8.8972 52.3139 8.14796 51.2837 8.33527 50.2535L9.9274 40.2324C10.0211 39.7642 9.64644 39.2022 9.17816 39.2022C8.70989 39.1086 8.14796 39.4832 8.14796 39.9515L6.55583 50.1598C6.36852 51.0964 6.64949 51.9393 7.11776 52.6885H3.55888C1.59213 52.6885 0 54.2806 0 56.2474C0 58.2141 1.59213 59.8999 3.55888 59.8999H45.7035C46.2654 59.8999 46.6401 59.5253 46.6401 58.9633C46.6401 58.4014 46.1718 58.0268 45.7035 58.0268Z" fill="#DCA86A"/>
<path d="M58.7205 44.1661C58.4396 43.9788 58.0649 44.0725 57.784 44.2598L53.1949 47.3504L48.6995 23.1875L56.6601 18.2238C57.1284 17.9428 57.222 17.3809 56.9411 16.9126C56.6601 16.4444 56.0982 16.3507 55.6299 16.6317L38.6784 27.2146C38.2101 27.4956 38.1165 28.0575 38.3974 28.5258C38.5848 28.8068 38.8657 28.9941 39.1467 28.9941C39.334 28.9941 39.5213 28.9941 39.615 28.8068L46.92 24.2177L51.4154 48.4742L45.2342 52.6887H24.9112C24.3492 52.6887 23.9746 53.0633 23.9746 53.6252C23.9746 54.1871 24.3492 54.5618 24.9112 54.5618H45.5152C45.7025 54.5618 45.8898 54.4681 46.0771 54.3745L53.0076 49.5981L57.3157 46.6948V57.9333H49.5424C48.9804 57.9333 48.6058 58.3079 48.6058 58.8699C48.6058 59.4318 48.9804 59.8064 49.5424 59.8064H58.2522C58.8142 59.8064 59.1888 59.4318 59.1888 58.8699V45.009C59.1888 44.6344 59.0015 44.3534 58.7205 44.1661Z" fill="#DCA86A"/>
</svg>
