<svg width="81" height="61" viewBox="0 0 81 61" fill="none" xmlns="http://www.w3.org/2000/svg">
<path d="M27.1963 20.9803C32.9091 20.9803 37.5567 16.3327 37.5567 10.6199C37.5567 4.9072 32.9091 0.259521 27.1963 0.259521C21.4836 0.259521 16.8359 4.9072 16.8359 10.6199C16.8359 16.3327 21.4836 20.9803 27.1963 20.9803ZM27.1963 2.3316C31.7666 2.3316 35.4847 6.04969 35.4847 10.6199C35.4847 15.1902 31.7666 18.9083 27.1963 18.9083C22.6261 18.9083 18.908 15.1902 18.908 10.6199C18.908 6.04969 22.6261 2.3316 27.1963 2.3316Z" fill="#DCA86A"/>
<path d="M54.9101 58.2777H47.0444C47.0989 58.1232 47.1435 57.9636 47.1735 57.7979L47.2668 57.2851L51.0298 53.5221C52.3904 52.1614 52.8835 50.1742 52.3169 48.3367L50.1651 41.3431L50.5641 39.1488C50.7251 38.2662 50.4966 37.3576 49.937 36.6561C49.5396 36.1578 49.0037 35.7998 48.4051 35.6191L47.0136 31.097C46.2915 28.7512 44.866 26.7403 42.891 25.2821C40.9162 23.8233 38.5749 23.0524 36.1203 23.0524H18.2719C15.8172 23.0524 13.4759 23.8233 11.501 25.2818C9.52601 26.7402 8.10054 28.751 7.37842 31.0968L5.98702 35.6186C5.38909 35.7992 4.85281 36.1572 4.4551 36.656C3.89551 37.3576 3.66694 38.2666 3.82804 39.1487L4.22692 41.3431L2.07545 48.336C1.5086 50.1742 2.00189 52.1614 3.36247 53.5221L7.12511 57.2847L7.21848 57.797C7.24853 57.963 7.29334 58.123 7.34799 58.2779H1.03604C0.463887 58.2779 0 58.7418 0 59.3139C0 59.8861 0.463887 60.35 1.03604 60.35H10.2762H44.1159H54.9101C55.4823 60.35 55.9462 59.8861 55.9462 59.3139C55.9462 58.7418 55.4823 58.2777 54.9101 58.2777ZM50.3368 48.9465C50.6766 50.0489 50.3808 51.2406 49.5646 52.0567L47.918 53.7032L49.3601 45.772L50.3368 48.9465ZM18.2719 25.1244H36.1203C40.2397 25.1244 43.8215 27.7695 45.0332 31.7062L46.196 35.4849H8.19625L9.35894 31.7063C10.5706 27.7695 14.1524 25.1244 18.2719 25.1244ZM4.05558 48.9459L5.03205 45.7724L6.4737 53.7027L4.82756 52.0566C4.01142 51.2406 3.7155 50.0489 4.05558 48.9459ZM10.2762 58.2777C9.77517 58.2777 9.34664 57.9201 9.25715 57.4261L6.30845 41.2077C6.30793 41.2048 6.30754 41.202 6.3069 41.1991L5.86658 38.7771C5.81206 38.4791 5.88613 38.1848 6.07495 37.9479C6.26481 37.71 6.53573 37.5717 6.83476 37.5586C6.85172 37.558 6.86869 37.5569 6.88578 37.5569H47.5063C47.5234 37.5569 47.5404 37.558 47.5544 37.5585C47.8564 37.5717 48.1273 37.71 48.3172 37.9479C48.506 38.1848 48.5801 38.4793 48.5256 38.7771C48.5256 38.7774 48.5255 38.7777 48.5254 38.7779L48.0855 41.1981C48.0846 41.2021 48.0841 41.2063 48.0833 41.2103L45.289 56.5816C45.2888 56.5825 45.2887 56.5836 45.2884 56.5843L45.2866 56.5946L45.1347 57.427C45.0455 57.9201 44.617 58.2776 44.1159 58.2776H10.2762V58.2777Z" fill="#DCA86A"/>
<path d="M27.1958 43.7732C24.3395 43.7732 22.0156 45.6322 22.0156 47.9174C22.0156 50.2025 24.3395 52.0615 27.1958 52.0615C30.0522 52.0615 32.376 50.2025 32.376 47.9174C32.376 45.6322 30.0522 43.7732 27.1958 43.7732ZM27.1958 49.9894C25.511 49.9894 24.0877 49.0406 24.0877 47.9174C24.0877 46.7942 25.511 45.8453 27.1958 45.8453C28.8807 45.8453 30.3039 46.7942 30.3039 47.9174C30.3039 49.0406 28.8807 49.9894 27.1958 49.9894Z" fill="#DCA86A"/>
<path d="M69.4943 0C64.8808 0 60.9479 2.96354 59.4958 7.08638H58.2099C57.4041 7.08638 56.7486 7.74187 56.7486 8.54771V10.0869C56.4241 10.1976 56.1036 10.3295 55.795 10.4825L54.7056 9.39444C54.43 9.11879 54.0633 8.96712 53.6716 8.96712C53.2812 8.96712 52.9132 9.11879 52.6376 9.39444L51.0431 10.989C50.4733 11.5587 50.4733 12.4859 51.0431 13.0557L52.1325 14.1438C51.9808 14.4524 51.8476 14.7715 51.7368 15.0973H50.1977C49.3918 15.0973 48.7363 15.7528 48.7363 16.5586V18.8139C48.7363 19.6198 49.3918 20.2753 50.1977 20.2753H51.7381C51.8489 20.5997 51.9821 20.9202 52.1338 21.2288L51.0444 22.3182C50.4746 22.888 50.4746 23.8152 51.0444 24.3849L52.6389 25.9794C53.2087 26.5492 54.1359 26.5492 54.7056 25.9794L55.795 24.89C56.1036 25.0417 56.4228 25.1749 56.7486 25.2857V26.8249C56.7486 27.6307 57.4041 28.2862 58.2099 28.2862H60.4652C61.271 28.2862 61.9265 27.6307 61.9265 26.8249V25.2857C62.251 25.1749 62.5715 25.0417 62.8801 24.89L63.9695 25.9794C64.2451 26.2551 64.6118 26.4068 65.0035 26.4068C65.3939 26.4068 65.7619 26.2551 66.0362 25.9794L67.6307 24.3849C67.9064 24.1093 68.058 23.7426 68.058 23.3509C68.058 22.9592 67.9064 22.5925 67.6307 22.3182L66.5413 21.2288C66.6059 21.0969 66.6666 20.9637 66.7233 20.8292C67.607 21.0692 68.5355 21.1998 69.4956 21.1998C75.3409 21.1998 80.0955 16.4452 80.0955 10.5999C80.0955 4.75459 75.3396 0 69.4943 0ZM77.7215 11.3912H78.4746C78.3097 13.2838 77.558 15.0103 76.4013 16.3885L75.8711 15.8583C75.5625 15.5497 75.0613 15.5497 74.7514 15.8583C74.4428 16.1669 74.4428 16.6681 74.7514 16.978L75.2816 17.5082C73.9047 18.6649 72.1769 19.4153 70.2843 19.5815V18.8284C70.2843 18.3919 69.9295 18.0371 69.493 18.0371C69.0564 18.0371 68.7017 18.3919 68.7017 18.8284V19.5815C66.809 19.4167 65.0826 18.6649 63.7044 17.5082L64.2346 16.978C64.5432 16.6694 64.5432 16.1682 64.2346 15.8596C63.926 15.551 63.4248 15.551 63.1148 15.8596L62.5846 16.3898C61.428 15.0129 60.6775 13.2852 60.5114 11.3926H61.2644C61.701 11.3926 62.0558 11.0378 62.0558 10.6012C62.0558 10.1647 61.701 9.80989 61.2644 9.80989H60.5114C60.6762 7.91728 61.428 6.19086 62.5846 4.81262L63.1148 5.34281C63.2692 5.49712 63.4723 5.57494 63.6741 5.57494C63.8758 5.57494 64.0789 5.49712 64.2333 5.34281C64.5419 5.03419 64.5419 4.53302 64.2333 4.2244L63.7057 3.69289C65.0826 2.53622 66.8104 1.78577 68.703 1.61959V2.37268C68.703 2.80923 69.0578 3.16401 69.4943 3.16401C69.9309 3.16401 70.2856 2.80923 70.2856 2.37268V1.61959C72.1782 1.78446 73.9047 2.53622 75.2829 3.69289L74.7527 4.22308C74.4441 4.5317 74.4441 5.03288 74.7527 5.34281C74.907 5.49712 75.1101 5.57494 75.3119 5.57494C75.5137 5.57494 75.7168 5.49712 75.8711 5.34281L76.4013 4.81262C77.558 6.18954 78.3084 7.91728 78.4746 9.80989H77.7215C77.285 9.80989 76.9302 10.1647 76.9302 10.6012C76.9302 11.0378 77.285 11.3912 77.7215 11.3912ZM59.4602 14.0066C60.1117 15.9203 61.2948 17.59 62.8352 18.8377C62.3459 20.3293 60.944 21.3713 59.3375 21.3713C57.3065 21.3713 55.6539 19.7187 55.6539 17.6876C55.6539 15.6565 57.3065 14.0039 59.3375 14.0039C59.3784 14.0026 59.4193 14.0053 59.4602 14.0066ZM65.3596 22.2866L66.4239 23.3522L65.0009 24.7753L63.9365 23.711C63.4881 23.2625 62.8075 23.1544 62.2431 23.4406C61.9555 23.587 61.6548 23.711 61.3489 23.8112C60.7474 24.009 60.3439 24.5669 60.3439 25.2V26.7048H58.3312V25.2C58.3312 24.5669 57.9277 24.009 57.3262 23.8112C57.0203 23.711 56.7196 23.5857 56.432 23.4406C55.8676 23.1544 55.187 23.2639 54.7386 23.711L53.6742 24.7753L52.2512 23.3522L53.3155 22.2879C53.7639 21.8395 53.8721 21.1589 53.5859 20.5944C53.4395 20.3069 53.3155 20.0049 53.2153 19.7002C53.0174 19.0988 52.4596 18.6952 51.8265 18.6952H50.3216V16.6826H51.8265C52.4596 16.6826 53.0174 16.279 53.2153 15.6776C53.3155 15.3716 53.4408 15.0709 53.5859 14.7834C53.8721 14.2176 53.7639 13.5371 53.3155 13.09L52.2512 12.0256L53.6742 10.6025L54.7386 11.6669C55.187 12.1153 55.8676 12.2235 56.432 11.9373C56.7196 11.7909 57.0216 11.6669 57.3262 11.5666C57.9277 11.3688 58.3312 10.8109 58.3312 10.1779V8.66905H59.0751C58.959 9.29552 58.8957 9.94046 58.8957 10.5999C58.8957 11.2237 58.9524 11.8331 59.0566 12.4279C56.283 12.5743 54.0712 14.8771 54.0712 17.6876C54.0712 20.5918 56.4334 22.9539 59.3375 22.9539C61.4755 22.9539 63.3628 21.664 64.1792 19.7649C64.5181 19.9614 64.8676 20.1407 65.229 20.3003C65.1855 20.3992 65.1393 20.4968 65.0905 20.5931C64.803 21.1576 64.9125 21.8381 65.3596 22.2866ZM72.4974 12.4846C72.806 12.7932 72.806 13.2944 72.4974 13.603C72.3431 13.7573 72.14 13.8351 71.9382 13.8351C71.7364 13.8351 71.5333 13.7573 71.379 13.603L68.9351 11.1591C68.7874 11.0114 68.703 10.8096 68.703 10.5999V5.46943C68.703 5.03288 69.0578 4.67809 69.4943 4.67809C69.9309 4.67809 70.2856 5.03288 70.2856 5.46943V10.2715L72.4974 12.4846Z" fill="#DCA86A"/>
</svg>
