<svg width="60" height="51" viewBox="0 0 60 51" fill="none" xmlns="http://www.w3.org/2000/svg">
<path d="M9.72965 9.31418H13.604C14.0895 9.31418 14.4829 8.92066 14.4829 8.43527C14.4829 7.94988 14.0895 7.55637 13.604 7.55637H9.72965C8.29387 7.55637 7.08109 6.41953 7.02602 5.02231C7.02426 4.97836 7.02344 4.93477 7.02344 4.89129C7.02344 3.16348 8.4291 1.75781 10.1569 1.75781C11.108 1.75781 11.9971 2.18332 12.5959 2.92523C12.8495 3.23941 13.2843 3.34031 13.6507 3.16992C13.9885 3.01277 14.3493 2.93309 14.7231 2.93309C15.6255 2.93309 16.469 3.41871 16.9243 4.20047C17.042 4.40273 17.2357 4.54969 17.4624 4.60863C17.689 4.66758 17.9297 4.63371 18.1312 4.51453C18.4205 4.34344 18.7517 4.25297 19.0891 4.25297C20.0032 4.25297 20.7835 4.905 20.9445 5.80324C21.0197 6.22219 21.3841 6.52711 21.8097 6.52711H24.6538C24.9529 6.52711 25.2097 6.7582 25.2146 7.03172C25.2171 7.17129 25.1649 7.30289 25.0673 7.40227C24.9698 7.50164 24.8393 7.55637 24.7 7.55637H17.1194C16.6339 7.55637 16.2405 7.94988 16.2405 8.43527C16.2405 8.92066 16.6339 9.31418 17.1194 9.31418H24.7C25.3149 9.31418 25.8907 9.07254 26.3215 8.63379C26.7523 8.19504 26.9833 7.61473 26.9722 6.99961C26.9498 5.76973 25.9098 4.7693 24.6538 4.7693H22.4664C21.9202 3.4166 20.5989 2.49516 19.0891 2.49516C18.7111 2.49516 18.337 2.55398 17.9802 2.66801C17.1704 1.73262 15.9807 1.17527 14.7231 1.17527C14.3131 1.17527 13.9121 1.23211 13.5249 1.34461C12.6207 0.483516 11.4242 0 10.1569 0C7.45984 0 5.26562 2.19422 5.26562 4.89129C5.26562 4.9575 5.26703 5.02418 5.26961 5.09133C5.36277 7.45934 7.32191 9.31418 9.72965 9.31418Z" fill="#DCA86A"/>
<path d="M59.1211 48.8869H58.549C59.4579 47.8137 59.8871 46.1459 59.8871 43.7344C59.8871 40.7232 59.2343 36.9438 58.1832 33.8712C57.2688 31.1979 55.6886 28.0113 53.3524 28.0113C52.1778 28.0113 51.0882 28.8096 50.1043 30.3866C49.2517 29.0241 48.175 28.0113 46.858 28.0113C45.4418 28.0113 44.1525 29.1667 43.0214 31.4472C42.7905 31.3646 42.5432 31.3172 42.2843 31.3172H33.5248C33.0393 31.3172 32.6459 31.7107 32.6459 32.1961C32.6459 32.6815 33.0393 33.075 33.5248 33.075H42.2843C42.5263 33.075 42.7232 33.2719 42.7232 33.5139V34.5078C42.7232 34.7498 42.5263 34.9466 42.2843 34.9466H17.7157C17.4737 34.9466 17.2768 34.7498 17.2768 34.5078V33.5139C17.2768 33.2719 17.4737 33.075 17.7157 33.075H30.0091C30.4946 33.075 30.888 32.6815 30.888 32.1961C30.888 31.7107 30.4946 31.3172 30.0091 31.3172H22.7211C23.3937 29.8157 23.7473 28.173 23.7473 26.5169C23.7473 20.0491 18.4854 14.7871 12.0176 14.7871C5.54977 14.7871 0.287695 20.0491 0.287695 26.5169C0.287695 32.6477 5.01574 37.6941 11.0169 38.2036V43.2095C10.8318 43.1847 10.644 43.1716 10.4546 43.1716C10.121 43.1716 9.79301 43.2102 9.47367 43.2869C8.45051 41.9041 6.77801 41.0898 5.03297 41.1712C2.36309 41.295 0.184805 43.4841 0.0742969 46.1554C0.0343359 47.1229 0.269414 48.0719 0.728789 48.9007C0.315 48.9721 0 49.3318 0 49.7658C0 50.2512 0.393398 50.6447 0.878906 50.6447H2.58633H59.1211C59.6066 50.6447 60 50.2512 60 49.7658C60 49.2804 59.6066 48.8869 59.1211 48.8869ZM17.757 47.605C17.7394 47.3488 17.6927 47.095 17.622 46.8479H20.4286V48.8869H17.6246C17.7411 48.477 17.7872 48.0449 17.757 47.605ZM36.8336 40.3341V41.629H23.5533V40.3341H36.8336ZM40.5577 40.3341C40.5018 40.7731 40.4552 41.2059 40.4191 41.629H38.5913V40.3341H40.5577ZM44.2365 43.3868C44.348 43.3868 44.4387 43.4775 44.4387 43.589V44.8878C44.4387 44.9993 44.348 45.0899 44.2365 45.0899H15.7635C15.652 45.0899 15.5612 44.9992 15.5612 44.8878V43.589C15.5612 43.4775 15.6519 43.3868 15.7635 43.3868H44.2365ZM22.1864 46.8479H38.2003V48.8869H22.1864V46.8479ZM39.9582 46.8479H40.6617C40.8933 47.7221 41.2391 48.3859 41.6651 48.8869H39.9581L39.9582 46.8479ZM51.1008 32.208C51.8621 30.6809 52.7039 29.7691 53.3525 29.7691C54.0768 29.7691 55.3409 30.9924 56.5201 34.4402C57.4977 37.2981 58.1293 40.9464 58.1293 43.7344C58.1293 48.6896 56.3313 48.6896 53.3524 48.6896C52.9862 48.6896 52.6011 48.689 52.2209 48.6741C53.0152 47.5977 53.3927 45.9929 53.3927 43.7344C53.3927 40.7232 52.7399 36.9438 51.6888 33.8712C51.5088 33.3452 51.3027 32.7993 51.0705 32.2616C51.0809 32.2441 51.0914 32.2266 51.1008 32.208ZM46.858 29.7692C47.5822 29.7692 48.8463 30.9925 50.0256 34.4403C51.0032 37.2982 51.6348 40.9465 51.6348 43.7345C51.6348 48.6897 49.8368 48.6897 46.8579 48.6897C44.4947 48.6897 43.1453 48.6002 42.5004 46.848H44.2364C45.3172 46.848 46.1964 45.9687 46.1964 44.888V43.5892C46.1964 42.5085 45.3171 41.6293 44.2364 41.6293H42.1841C42.2225 41.2056 42.2714 40.7724 42.3307 40.332C43.5203 40.3069 44.4809 39.3332 44.4809 38.1377V37.1438C44.4809 36.6491 44.3145 36.1936 44.0375 35.826C44.3146 35.4584 44.4809 35.0029 44.4809 34.5082V33.5144C44.4809 33.2445 44.4295 32.9868 44.3401 32.7477C44.3625 32.7129 44.3835 32.6768 44.4012 32.6382C45.223 30.8414 46.1414 29.7692 46.858 29.7692ZM42.2843 36.7046C42.5263 36.7046 42.7232 36.9014 42.7232 37.1434V38.1373C42.7232 38.3793 42.5263 38.5762 42.2843 38.5762H17.7157C17.4737 38.5762 17.2768 38.3793 17.2768 38.1373V37.1434C17.2768 36.9014 17.4737 36.7046 17.7157 36.7046H42.2843ZM2.04562 26.5169C2.04562 21.0183 6.51914 16.5449 12.0177 16.5449C17.5163 16.5449 21.9896 21.0183 21.9896 26.5169C21.9896 28.1673 21.5783 29.8022 20.8002 31.2446C20.7873 31.2685 20.7761 31.2927 20.7656 31.3172H17.7158C16.5046 31.3172 15.5191 32.3027 15.5191 33.5139V34.5078C15.5191 34.9553 15.6544 35.3716 15.8851 35.7191C15.8522 35.7283 15.8194 35.7388 15.7869 35.7521C14.8235 36.1457 13.813 36.3803 12.775 36.4578V29.5333L15.8115 26.4966C16.1548 26.1534 16.1548 25.5968 15.8115 25.2537C15.4682 24.9105 14.9118 24.9105 14.5685 25.2537L12.775 27.0473V24.7533C12.775 24.2679 12.3816 23.8744 11.8961 23.8744C11.4105 23.8744 11.0171 24.2679 11.0171 24.7533V30.0374L9.32637 28.347C8.98301 28.0038 8.4266 28.0036 8.08336 28.347C7.74012 28.6902 7.74012 29.2468 8.08336 29.59L11.017 32.5238V36.4388C5.98652 35.9351 2.04562 31.6778 2.04562 26.5169ZM12.7748 38.222C13.7114 38.1626 14.6293 37.9927 15.519 37.7144V38.1373C15.519 39.3486 16.5045 40.334 17.7157 40.334H21.7955V41.6289H15.7634C14.6825 41.6289 13.8033 42.5082 13.8033 43.5889V44.155C13.6158 44.1671 13.4299 44.1918 13.2468 44.2323C13.0976 44.0998 12.9396 43.979 12.7747 43.8698L12.7748 38.222ZM2.91246 48.8869C2.17992 48.1995 1.78852 47.2457 1.83059 46.228C1.90395 44.459 3.34641 43.0091 5.11453 42.9273C6.46465 42.8655 7.69195 43.5644 8.32641 44.7523C8.54367 45.1591 9.03809 45.3289 9.45949 45.141C9.77449 45.0006 10.1093 44.9295 10.4549 44.9295C11.1751 44.9295 11.8561 45.2454 12.3232 45.7962C12.5675 46.0845 12.9688 46.1842 13.3196 46.0439C13.5668 45.9453 13.8258 45.8993 14.0916 45.9056C14.4289 46.4577 15.0302 46.8304 15.7198 46.8456C15.8839 47.1127 15.9823 47.4167 16.0034 47.7254C16.0318 48.1405 15.9329 48.5423 15.7219 48.8869H2.91246Z" fill="#DCA86A"/>
<path d="M32.6984 20.3216H41.4891C41.9746 20.3216 42.368 19.9281 42.368 19.4427C42.368 18.9573 41.9746 18.5638 41.4891 18.5638H32.6984C32.117 18.5638 31.6408 18.1062 31.637 17.5437C31.637 17.5411 31.6368 17.5307 31.6368 17.5281C31.6368 16.318 32.6219 15.3131 33.8329 15.2882C34.2561 15.2794 34.6129 14.9703 34.682 14.5525C35.0402 12.3812 36.8997 10.8053 39.1037 10.8053C41.3185 10.8053 43.1798 12.39 43.5291 14.5735C43.6043 15.0422 44.0386 15.3662 44.5086 15.3063C44.6226 15.2918 44.7143 15.2849 44.7972 15.2849C45.5902 15.2849 46.3323 15.7111 46.734 16.3971C46.8917 16.6664 47.1804 16.8319 47.4924 16.8319H49.9023C50.3797 16.8319 50.7682 17.2204 50.7682 17.6978C50.7682 18.1753 50.3798 18.5638 49.9023 18.5638H45.0045C44.519 18.5638 44.1256 18.9573 44.1256 19.4427C44.1256 19.9281 44.519 20.3216 45.0045 20.3216H49.9023C51.3489 20.3216 52.526 19.1446 52.526 17.6978C52.526 16.2511 51.3489 15.0741 49.9023 15.0741H47.956C47.2647 14.1871 46.2216 13.6238 45.0961 13.5385C44.3339 10.8951 41.9247 9.04736 39.1037 9.04736C36.2626 9.04736 33.8325 10.929 33.0921 13.6085C31.267 13.979 29.8789 15.6088 29.8789 17.528L29.879 17.5556C29.8897 19.0808 31.1545 20.3216 32.6984 20.3216Z" fill="#DCA86A"/>
</svg>
