<svg width="61" height="61" viewBox="0 0 61 61" fill="none" xmlns="http://www.w3.org/2000/svg">
<path d="M50.6341 60.35L50.6796 60.3489C51.1468 60.3252 51.5183 59.9389 51.5183 59.4659V0.884009C51.5183 0.395797 51.1224 -6.53766e-06 50.6341 -2.36908e-05H0.884181C0.395872 -2.36908e-05 1.74418e-05 0.395786 0 0.884009V59.4659L0.0011225 59.5114C0.0248051 59.9785 0.411122 60.35 0.884181 60.35H50.6341ZM1.76836 1.76804H49.7499V58.5819H1.76836V1.76804Z" fill="#DCA86A"/>
<path d="M24.7285 15.0209V35.6142C24.7285 36.1058 25.1239 36.5044 25.6117 36.5044C26.0994 36.5044 26.4949 36.1058 26.4949 35.6142V15.0209C26.4949 14.5293 26.0994 14.1307 25.6117 14.1307C25.1239 14.1307 24.7285 14.5293 24.7285 15.0209Z" fill="#DCA86A"/>
<path d="M24.7285 39.1492V59.4715C24.7285 59.9567 25.1239 60.35 25.6117 60.35C26.0994 60.35 26.4949 59.9567 26.4949 59.4715V39.1492C26.4949 38.664 26.0994 38.2707 25.6117 38.2707C25.1239 38.2707 24.7285 38.664 24.7285 39.1492Z" fill="#DCA86A"/>
<path d="M19.4304 7.94849C19.4304 8.43624 19.035 8.83167 18.5472 8.83167C18.0594 8.83167 17.6641 8.43624 17.6641 7.94849C17.6641 7.46075 18.0594 7.06532 18.5472 7.06532C19.035 7.06532 19.4304 7.46075 19.4304 7.94849Z" fill="#DCA86A"/>
<path d="M22.9617 7.94849C22.9617 8.43624 22.5662 8.83167 22.0785 8.83167C21.5906 8.83167 21.1953 8.43624 21.1953 7.94849C21.1953 7.46075 21.5906 7.06532 22.0785 7.06532C22.5662 7.06532 22.9617 7.46075 22.9617 7.94849Z" fill="#DCA86A"/>
<path d="M26.4949 7.94849C26.4949 8.43624 26.0994 8.83167 25.6117 8.83167C25.1238 8.83167 24.7285 8.43624 24.7285 7.94849C24.7285 7.46075 25.1238 7.06532 25.6117 7.06532C26.0994 7.06532 26.4949 7.46075 26.4949 7.94849Z" fill="#DCA86A"/>
<path d="M30.3225 7.94849C30.3225 8.43624 29.8611 8.83167 29.2921 8.83167C28.7229 8.83167 28.2617 8.43624 28.2617 7.94849C28.2617 7.46075 28.7229 7.06532 29.2921 7.06532C29.8611 7.06532 30.3225 7.46075 30.3225 7.94849Z" fill="#DCA86A"/>
<path d="M33.8542 7.94849C33.8542 8.43624 33.4588 8.83167 32.9711 8.83167C32.4832 8.83167 32.0879 8.43624 32.0879 7.94849C32.0879 7.46075 32.4832 7.06532 32.9711 7.06532C33.4588 7.06532 33.8542 7.46075 33.8542 7.94849Z" fill="#DCA86A"/>
<path d="M36.4932 12.3644L36.5392 12.3633C37.0119 12.3396 37.3877 11.9537 37.3877 11.4812V4.41584C37.3877 3.92808 36.9872 3.53267 36.4932 3.53267H15.0254C14.5313 3.53267 14.1309 3.92808 14.1309 4.41584V11.4812L14.132 11.5267C14.156 11.9933 14.5468 12.3644 15.0254 12.3644H36.4932ZM15.9198 5.29901H35.5987V10.598H15.9198V5.29901Z" fill="#DCA86A"/>
<path d="M59.4674 36.5044L59.496 36.5039C59.7911 36.494 60.0628 36.3308 60.2187 36.068C60.3795 35.7968 60.3942 35.4582 60.2573 35.173L57.6078 29.6532C57.4582 29.3416 57.1524 29.1446 56.8178 29.1446C56.4833 29.1446 56.1775 29.3416 56.0279 29.6532L53.3784 35.173C53.2415 35.4582 53.2561 35.7968 53.417 36.068C53.5779 36.3393 53.8622 36.5044 54.1683 36.5044H59.4674ZM56.8178 32.1217L58.0383 34.6645H55.5974L56.8178 32.1217Z" fill="#DCA86A"/>
<path d="M56.8178 45.3361C57.1524 45.3361 57.4582 45.147 57.6078 44.8478L60.2573 39.5488C60.3942 39.275 60.3795 38.95 60.2187 38.6896C60.0577 38.4292 59.7734 38.2707 59.4674 38.2707H54.1683C53.8622 38.2707 53.5779 38.4292 53.417 38.6896C53.2561 38.95 53.2415 39.275 53.3784 39.5488L56.0279 44.8478L56.0424 44.8756C56.1967 45.1587 56.4938 45.3361 56.8178 45.3361ZM55.5974 40.037H58.0383L56.8178 42.4781L55.5974 40.037Z" fill="#DCA86A"/>
<path d="M7.06445 59.4657C7.06445 59.9541 7.46049 60.35 7.94902 60.35C8.43755 60.35 8.83358 59.9541 8.83358 59.4657V15.8993H42.6829V59.4657C42.6829 59.9541 43.0789 60.35 43.5675 60.35C44.056 60.35 44.452 59.9541 44.452 59.4657V15.015C44.452 14.5266 44.056 14.1307 43.5675 14.1307H7.94902C7.4605 14.1307 7.06447 14.5266 7.06445 15.015V59.4657Z" fill="#DCA86A"/>
</svg>
