<svg width="18" height="18" viewBox="0 0 18 18" fill="none" xmlns="http://www.w3.org/2000/svg">
<path fill-rule="evenodd" clip-rule="evenodd" d="M5.19038 1.88086C3.36258 1.88086 1.88086 3.36258 1.88086 5.19038V12.8094C1.88086 14.6372 3.36258 16.119 5.19038 16.119H12.8094C14.6372 16.119 16.119 14.6372 16.119 12.8094V5.19038C16.119 3.36258 14.6372 1.88086 12.8094 1.88086H5.19038ZM0.880859 5.19038C0.880859 2.8103 2.8103 0.880859 5.19038 0.880859H12.8094C15.1895 0.880859 17.119 2.8103 17.119 5.19038V12.8094C17.119 15.1895 15.1895 17.119 12.8094 17.119H5.19038C2.8103 17.119 0.880859 15.1895 0.880859 12.8094V5.19038ZM9.40656 6.44674C8.8765 6.36814 8.33515 6.45867 7.85951 6.70547C7.38387 6.95227 6.99816 7.34277 6.75725 7.82142C6.51633 8.30006 6.43247 8.84249 6.51761 9.37154C6.60274 9.90059 6.85252 10.3893 7.23143 10.7682C7.61034 11.1471 8.09908 11.3969 8.62813 11.4821C9.15718 11.5672 9.69961 11.4833 10.1783 11.2424C10.6569 11.0015 11.0474 10.6158 11.2942 10.1402C11.541 9.66452 11.6315 9.12317 11.5529 8.59311C11.4728 8.05242 11.2208 7.55186 10.8343 7.16536C10.4478 6.77886 9.94725 6.52691 9.40656 6.44674ZM7.39894 5.81785C8.06128 5.47418 8.81512 5.3481 9.55325 5.45755C10.3062 5.5692 11.0032 5.92004 11.5414 6.45825C12.0796 6.99647 12.4305 7.69351 12.5421 8.44642C12.6516 9.18455 12.5255 9.93839 12.1818 10.6007C11.8381 11.2631 11.2944 11.8002 10.6278 12.1357C9.96132 12.4711 9.20598 12.5879 8.46926 12.4694C7.73254 12.3508 7.05196 12.003 6.52432 11.4753C5.99669 10.9477 5.64885 10.2671 5.53031 9.53041C5.41176 8.79369 5.52853 8.03835 5.86401 7.37183C6.19949 6.7053 6.7366 6.16153 7.39894 5.81785ZM13.1904 4.30943C12.9142 4.30943 12.6904 4.53329 12.6904 4.80943C12.6904 5.08557 12.9142 5.30943 13.1904 5.30943H13.1977C13.4738 5.30943 13.6977 5.08557 13.6977 4.80943C13.6977 4.53329 13.4738 4.30943 13.1977 4.30943H13.1904Z" fill="#292929"/>
</svg>
