<svg width="58" height="61" viewBox="0 0 58 61" fill="none" xmlns="http://www.w3.org/2000/svg">
<path d="M25.454 60.3533C29.6869 60.3533 33.1305 56.9095 33.1305 52.6766C33.1305 48.4437 29.6869 45 25.454 45C21.2211 45 17.7773 48.4437 17.7773 52.6766C17.7773 56.9095 21.2211 60.3533 25.454 60.3533ZM25.454 46.7974C28.6958 46.7974 31.3331 49.4348 31.3331 52.6766C31.3331 55.9186 28.6957 58.5559 25.454 58.5559C22.2121 58.5559 19.5747 55.9185 19.5747 52.6766C19.5747 49.4348 22.2121 46.7974 25.454 46.7974Z" fill="#DCA86A"/>
<path d="M56.8408 48.6335C50.8629 47.0689 46.6879 41.6518 46.6879 35.46V28.1915C46.6879 26.6723 45.452 25.4364 43.9328 25.4364H38.2026V18.3629H40.6944C41.5096 18.3629 42.2304 17.8733 42.531 17.1156C42.8316 16.3579 42.6423 15.5072 42.0489 14.9485L26.5135 0.321607C26.5073 0.315736 26.5011 0.309984 26.4947 0.304352C26.274 0.108081 25.9899 0 25.6946 0C25.4067 0 25.1279 0.103408 24.9096 0.291172C24.9028 0.296923 24.8961 0.302914 24.8895 0.308786L8.87822 14.9279C8.27131 15.4821 8.07109 16.3352 8.36825 17.1015C8.66541 17.8678 9.38855 18.3629 10.2104 18.3629H12.663V30.7184H2.15539C2.02802 30.7184 1.90711 30.7452 1.79736 30.7929V26.335C1.79736 25.8387 1.39499 25.4363 0.898678 25.4363C0.402368 25.4363 0 25.8387 0 26.335V58.3125C0 58.8089 0.402368 59.2111 0.898678 59.2111C1.39499 59.2111 1.79736 58.8089 1.79736 58.3125V54.6158C1.89573 54.6528 2.00178 54.6739 2.11309 54.6739H12.663V58.625C12.663 59.3271 13.2376 59.8986 13.9441 59.8986H19.1635C19.8658 59.8986 20.4371 59.3271 20.4371 58.625V43.5672H30.421V58.625C30.421 59.3271 30.9956 59.8986 31.702 59.8986H36.9215C37.628 59.8986 38.2026 59.3271 38.2026 58.625V48.1713C41.3606 55.084 48.3395 59.8999 56.4228 59.8999H56.5983C56.6039 59.9 56.6094 59.9 56.6149 59.9C56.7232 59.9 56.8322 59.8806 56.9359 59.841C57.3107 59.6983 57.5419 59.3266 57.5123 58.9342V49.503C57.512 49.0942 57.2362 48.737 56.8408 48.6335ZM10.044 16.4516C9.99977 16.3376 10.0677 16.2757 10.0901 16.2552L25.6885 2.01352L40.8166 16.257C40.8386 16.2776 40.9049 16.34 40.8602 16.4528C40.8156 16.5655 40.7243 16.5654 40.6943 16.5654H37.342C37.3292 16.5648 37.3166 16.5635 37.3038 16.5635C37.2909 16.5635 37.2782 16.5649 37.2655 16.5654H13.5998C13.5869 16.5648 13.5744 16.5635 13.5615 16.5635C13.5487 16.5635 13.536 16.5649 13.5233 16.5654H10.2103C10.1801 16.5654 10.0881 16.5654 10.044 16.4516ZM36.4051 18.3627V39.0672V39.8457C36.4046 39.8573 36.4033 39.8687 36.4033 39.8805C36.4033 39.9267 36.4047 39.9725 36.4051 40.0186V41.7697H31.3543C31.3427 41.7692 31.3313 41.7679 31.3195 41.7679C31.3078 41.7679 31.2964 41.7692 31.2848 41.7697H19.5732C19.5616 41.7692 19.5502 41.7679 19.5385 41.7679C19.5267 41.7679 19.5153 41.7692 19.5037 41.7697H14.4603V39.0671V18.3627H36.4051ZM1.79724 39.8488C1.89166 39.8825 1.99291 39.9018 2.09883 39.9018H12.6629V45.4906H2.12711C2.01052 45.4906 1.89957 45.5135 1.79736 45.5539L1.79724 39.8488ZM2.15539 32.5156H12.6629V38.1044H2.09895C1.99303 38.1044 1.89178 38.1237 1.79736 38.1574V32.4411C1.90699 32.4888 2.02802 32.5156 2.15539 32.5156ZM2.11297 52.8765C2.00166 52.8765 1.89561 52.8977 1.79724 52.9346V47.2246C1.89945 47.265 2.01052 47.2878 2.12699 47.2878H12.6627V52.8765H2.11297ZM18.6397 58.1012H14.4602V43.5672H18.6397V58.1012ZM32.2182 58.1012V43.5672H36.4051V58.1012H32.2182ZM55.7147 58.0889C46.0411 57.7171 38.2772 49.7678 38.2026 40.0221V39.0672V27.2337H43.9328C44.4608 27.2337 44.8905 27.6633 44.8905 28.1914V35.4599C44.8905 42.2348 49.307 48.1903 55.7147 50.1804V58.0889Z" fill="#DCA86A"/>
</svg>
