<svg width="56" height="56" viewBox="0 0 56 56" fill="none" xmlns="http://www.w3.org/2000/svg">
<path d="M56 3.95605C55.9989 2.90718 55.5818 1.90158 54.8401 1.15991C54.0984 0.418245 53.0928 0.00109592 52.0439 0H3.95605C2.90718 0.00109592 1.90158 0.418245 1.15991 1.15991C0.418245 1.90158 0.00109592 2.90718 0 3.95605V52.0439C0.0101652 53.09 0.430219 54.0903 1.16992 54.83C1.90962 55.5698 2.90995 55.9898 3.956 56H52.0439C53.0892 55.9874 54.0882 55.5666 54.8274 54.8274C55.5666 54.0882 55.9874 53.0893 56 52.0439V3.95605ZM54 3.95605V51.5855L37.1787 25.2173V2H52.0439C52.5625 2.00074 53.0596 2.20705 53.4263 2.57373C53.7929 2.9404 53.9993 3.4375 54 3.95605ZM22.5026 43.3301L23.6347 37.5722H32.3653L33.4974 43.3301H22.5026ZM33.8907 45.3301L35.5955 54H20.4045L22.1093 45.3301L33.8907 45.3301ZM30.1914 26.5166L30.7041 29.124H25.2959L25.8086 26.5166H30.1914ZM31.0974 31.124L31.972 35.5723H24.028L24.9027 31.124H31.0974ZM33.1363 31.124H38.575L41.4126 35.5723H34.0109L33.1363 31.124ZM32.743 29.124L32.2303 26.5166H35.6357L37.2991 29.124L32.743 29.124ZM35.1787 24.5166H20.8213V2H35.1787V24.5166ZM20.3643 26.5166H23.7696L23.257 29.124H18.701L20.3643 26.5166ZM17.4251 31.124H22.8637L21.9891 35.5722H14.5874L17.4251 31.124ZM13.3115 37.5722H21.5958L20.4636 43.3301H9.63842L13.3115 37.5722ZM34.4042 37.5722H42.6885L46.3616 43.3301H35.5364L34.4042 37.5722ZM3.95605 2H18.8213V25.2173L2 51.5855V3.95605C2.00074 3.4375 2.20706 2.9404 2.57373 2.57373C2.9404 2.20706 3.4375 2.00074 3.95605 2ZM2.99841 53.7388L8.36261 45.3301H20.0704L18.3657 54H3.95605C3.61953 53.9978 3.28942 53.9078 2.99841 53.7388ZM37.6343 54L35.9296 45.3301H47.6374L53.0016 53.7388C52.7106 53.9078 52.3805 53.9978 52.0439 54H37.6343Z" fill="#DCA86A"/>
</svg>
