<svg width="19" height="18" viewBox="0 0 19 18" fill="none" xmlns="http://www.w3.org/2000/svg">
<path fill-rule="evenodd" clip-rule="evenodd" d="M1.9043 2.9999C1.9043 2.39795 2.39972 1.8999 3.02334 1.8999C3.64697 1.8999 4.14239 2.39795 4.14239 2.9999C4.14239 3.60185 3.64697 4.0999 3.02334 4.0999C2.39972 4.0999 1.9043 3.60185 1.9043 2.9999ZM3.02334 0.899902C1.85862 0.899902 0.904297 1.83454 0.904297 2.9999C0.904297 4.16526 1.85862 5.0999 3.02334 5.0999C4.18807 5.0999 5.14239 4.16526 5.14239 2.9999C5.14239 1.83454 4.18807 0.899902 3.02334 0.899902ZM12.7376 6.6999C11.5801 6.6999 10.4712 7.15436 9.65457 7.96143C8.83809 8.7683 8.38049 9.86139 8.38049 10.9999V16.0999H10.6186V10.9999C10.6186 10.441 10.8433 9.90625 11.2413 9.51289C11.6392 9.11973 12.1775 8.8999 12.7376 8.8999C13.2977 8.8999 13.8361 9.11973 14.2339 9.51289C14.632 9.90625 14.8567 10.441 14.8567 10.9999V16.0999H17.0948V10.9999C17.0948 9.86139 16.6372 8.7683 15.8207 7.96143C15.004 7.15436 13.8951 6.6999 12.7376 6.6999ZM12.7376 5.6999C11.3187 5.6999 9.95676 6.25687 8.95166 7.25015C7.94635 8.24363 7.38049 9.59233 7.38049 10.9999V16.5999C7.38049 16.876 7.60434 17.0999 7.88049 17.0999H11.1186C11.3947 17.0999 11.6186 16.876 11.6186 16.5999V10.9999C11.6186 10.7101 11.735 10.4309 11.9442 10.2242C12.1537 10.0172 12.4389 9.8999 12.7376 9.8999C13.0363 9.8999 13.3216 10.0172 13.531 10.2242C13.7402 10.4309 13.8567 10.7101 13.8567 10.9999V16.5999C13.8567 16.876 14.0805 17.0999 14.3567 17.0999H17.5948C17.8709 17.0999 18.0948 16.876 18.0948 16.5999V10.9999C18.0948 9.59233 17.5289 8.24363 16.5236 7.25015C15.5185 6.25687 14.1565 5.6999 12.7376 5.6999ZM0.904297 6.9999C0.904297 6.72376 1.12815 6.4999 1.4043 6.4999H4.64239C4.91854 6.4999 5.14239 6.72376 5.14239 6.9999V16.5999C5.14239 16.876 4.91854 17.0999 4.64239 17.0999H1.4043C1.12815 17.0999 0.904297 16.876 0.904297 16.5999V6.9999ZM1.9043 7.4999V16.0999H4.14239V7.4999H1.9043Z" fill="#292929"/>
</svg>
