<svg width="28" height="28" viewBox="0 0 28 28" fill="none" xmlns="http://www.w3.org/2000/svg">
<g clip-path="url(#clip0_2599_12716)">
<path d="M13.9504 28.0093L13.1372 27.3122C12.016 26.3734 2.22656 17.9189 2.22656 11.7346C2.22656 5.2597 7.47552 0.0107422 13.9504 0.0107422C20.4253 0.0107422 25.6743 5.2597 25.6743 11.7346C25.6743 17.9189 15.8848 26.3735 14.7683 27.3168L13.9504 28.0093ZM13.9504 2.54578C8.87798 2.55152 4.7674 6.66211 4.76166 11.7345C4.76166 15.6196 10.7845 21.826 13.9504 24.6667C17.1164 21.8249 23.1392 15.6149 23.1392 11.7345C23.1334 6.66211 19.0229 2.55158 13.9504 2.54578Z" fill="#DCA86A"/>
<path d="M13.9519 16.3819C11.3853 16.3819 9.30469 14.3012 9.30469 11.7346C9.30469 9.16804 11.3853 7.0874 13.9519 7.0874C16.5185 7.0874 18.5992 9.16804 18.5992 11.7346C18.5992 14.3012 16.5186 16.3819 13.9519 16.3819ZM13.9519 9.41096C12.6686 9.41096 11.6283 10.4513 11.6283 11.7346C11.6283 13.0179 12.6686 14.0582 13.9519 14.0582C15.2352 14.0582 16.2755 13.0179 16.2755 11.7346C16.2755 10.4513 15.2353 9.41096 13.9519 9.41096Z" fill="#DCA86A"/>
</g>
<defs>
<clipPath id="clip0_2599_12716">
<rect width="28" height="28" fill="white"/>
</clipPath>
</defs>
</svg>
