<svg width="60" height="60" viewBox="0 0 60 60" fill="none" xmlns="http://www.w3.org/2000/svg">
<path d="M60 38.0859V36.3281H58.0664V31.4648C58.0664 29.3648 56.3578 27.6562 54.2578 27.6562C52.1578 27.6562 50.4492 29.3648 50.4492 31.4648V36.3281H46.8164V31.4648C46.8164 29.3648 45.1078 27.6562 43.0078 27.6562C40.9078 27.6562 39.1992 29.3648 39.1992 31.4648V36.3281H27.9785L24.4629 31.6406H13.6523V31.1132C13.6523 29.3362 12.2067 27.8906 10.4297 27.8906H5.18426L2.5132 23.3984L1.0023 24.2968L5.91902 32.5658L4.13203 36.3281H0V38.0859H12.5391V36.3281H6.07793L7.46953 33.3984H23.584L25.7812 36.3281H14.2969V38.0859H39.1992V39.8437H23.6719V41.6015H39.1992V49.9422C37.0211 50.055 35.8052 50.6241 34.6262 51.1768C33.4317 51.7367 32.3034 52.2656 29.9993 52.2656C27.6952 52.2656 26.5669 51.7367 25.3725 51.1768C24.0564 50.5598 22.6954 49.9218 19.9997 49.9218C17.304 49.9218 15.9429 50.5598 14.6268 51.1768C13.4323 51.7367 12.304 52.2656 9.99984 52.2656C7.6957 52.2656 6.56754 51.7367 5.37316 51.1768C4.05668 50.5598 2.69566 49.9218 0 49.9218V51.6796C2.30414 51.6796 3.43242 52.2085 4.6268 52.7684C5.94293 53.3854 7.30395 54.0234 9.99961 54.0234C12.6953 54.0234 14.0564 53.3854 15.3725 52.7684C16.567 52.2085 17.6953 51.6796 19.9995 51.6796C22.3036 51.6796 23.4318 52.2085 24.6261 52.7684C25.9424 53.3854 27.3034 54.0234 29.9991 54.0234C32.6948 54.0234 34.0559 53.3854 35.3721 52.7684C36.5666 52.2085 37.6949 51.6796 39.999 51.6796C42.3034 51.6796 43.4317 52.2085 44.6262 52.7684C45.9424 53.3854 47.3036 54.0234 49.9995 54.0234C52.6954 54.0234 54.0565 53.3854 55.3727 52.7684C56.5672 52.2085 57.6956 51.6796 59.9999 51.6796V49.9218C57.304 49.9218 55.9429 50.5598 54.6266 51.1768C53.8916 51.5213 53.1812 51.8539 52.2069 52.059V41.6015H60V39.8437H52.207V38.0859H60ZM52.207 31.4648C52.207 30.3341 53.1271 29.414 54.2578 29.414C55.3886 29.414 56.3086 30.3341 56.3086 31.4648V36.3281H52.207V31.4648ZM11.8945 31.6406H7.41398L6.22945 29.6484H10.4297C11.2375 29.6484 11.8945 30.3055 11.8945 31.1132V31.6406ZM40.957 31.4648C40.957 30.3341 41.8771 29.414 43.0078 29.414C44.1386 29.414 45.0586 30.3341 45.0586 31.4648V36.3281H40.957V31.4648ZM50.4492 52.2583C50.3043 52.263 50.1548 52.2656 49.9996 52.2656C47.6952 52.2656 46.5669 51.7367 45.3724 51.1768C44.222 50.6376 43.0372 50.0823 40.957 49.9509V48.6328H50.4492V52.2583ZM50.4492 46.875H40.957V45.1171H50.4492V46.875ZM50.4492 39.8437H47.3438V41.6015H50.4492V43.3593H40.957V41.6015H45.5859V39.8437H40.957V38.0859H50.4492V39.8437Z" fill="#DCA86A"/>
<path d="M0 39.8438H21.9141V41.6016H0V39.8438Z" fill="#DCA86A"/>
<path d="M49.9996 58.125C47.6952 58.125 46.5669 57.5961 45.3724 57.0362C44.0562 56.4192 42.695 55.7812 39.9991 55.7812C37.3034 55.7812 35.9423 56.4192 34.6261 57.0362C33.4316 57.5961 32.3033 58.125 29.9992 58.125C27.695 58.125 26.5668 57.5961 25.3724 57.0362C24.0562 56.4192 22.6952 55.7812 19.9996 55.7812C17.3039 55.7812 15.9428 56.4192 14.6266 57.0362C13.4321 57.5961 12.3039 58.125 9.99973 58.125C7.69559 58.125 6.56742 57.5961 5.37305 57.0362C4.05668 56.4192 2.69566 55.7812 0 55.7812V57.5391C2.30414 57.5391 3.43242 58.0679 4.6268 58.6278C5.94293 59.2448 7.30395 59.8828 9.99961 59.8828C12.6953 59.8828 14.0564 59.2448 15.3725 58.6278C16.567 58.0679 17.6953 57.5391 19.9995 57.5391C22.3036 57.5391 23.4318 58.0679 24.6261 58.6278C25.9424 59.2448 27.3034 59.8828 29.9991 59.8828C32.6948 59.8828 34.0559 59.2448 35.3721 58.6278C36.5666 58.0679 37.6949 57.5391 39.999 57.5391C42.3034 57.5391 43.4317 58.0679 44.6262 58.6278C45.9424 59.2448 47.3036 59.8828 49.9995 59.8828C52.6954 59.8828 54.0565 59.2448 55.3727 58.6278C56.5672 58.0679 57.6956 57.5391 59.9999 57.5391V55.7812C57.304 55.7812 55.9429 56.4192 54.6266 57.0362C53.4322 57.5961 52.3039 58.125 49.9996 58.125Z" fill="#DCA86A"/>
<path d="M5.33203 13.2422C7.34414 13.2422 8.84766 14.1393 8.84766 14.9414H10.6055C10.6055 14.2917 12.3988 12.8326 15.293 12.5779V25.7227H17.0508V12.5779C19.945 12.8326 21.7383 14.2917 21.7383 14.9414H23.4961C23.4961 14.1393 24.9996 13.2422 27.0117 13.2422C29.0238 13.2422 30.5273 14.1393 30.5273 14.9414H32.2852V14.8535C32.2852 11.0931 30.5575 7.3173 27.5452 4.49449C24.4523 1.59621 20.4132 0 16.1719 0C11.9305 0 7.89141 1.59621 4.79859 4.49449C1.78629 7.3173 0.0585938 11.0931 0.0585938 14.8535V14.9414H1.81641C1.81641 14.1393 3.31992 13.2422 5.33203 13.2422ZM30.1946 12.1668C29.3157 11.7366 28.217 11.4844 27.0117 11.4844C25.5976 11.4844 24.3307 11.8321 23.3929 12.4065C23.157 9.48609 22.5164 6.78762 21.5284 4.6316C21.1186 3.73746 20.6606 2.96461 20.1646 2.31914C25.077 3.71648 29.0508 7.57371 30.1946 12.1668ZM16.1719 1.75781C17.51 1.75781 18.88 3.07219 19.9304 5.36391C20.8013 7.26387 21.3795 9.64254 21.6165 12.2386C21.4679 12.1432 21.3122 12.0506 21.1479 11.9616C19.7421 11.2004 17.9749 10.7812 16.1719 10.7812C14.3688 10.7812 12.6016 11.2004 11.1959 11.9616C11.0316 12.0505 10.8758 12.1432 10.7272 12.2386C10.9643 9.64266 11.5425 7.26387 12.4133 5.36391C13.4638 3.07219 14.8337 1.75781 16.1719 1.75781ZM12.1792 2.31902C11.6831 2.96449 11.2252 3.73734 10.8154 4.63148C9.82723 6.78738 9.1868 9.48598 8.9509 12.4064C8.01305 11.8321 6.74613 11.4844 5.33203 11.4844C4.12676 11.4844 3.02801 11.7366 2.1491 12.1668C3.29297 7.57371 7.2668 3.71648 12.1792 2.31902Z" fill="#DCA86A"/>
<path d="M15.293 27.4805H17.0508V29.2383H15.293V27.4805Z" fill="#DCA86A"/>
<path d="M2.34375 43.3594H4.10156V45.1172H2.34375V43.3594Z" fill="#DCA86A"/>
<path d="M12.8906 43.3594H14.6484V45.1172H12.8906V43.3594Z" fill="#DCA86A"/>
<path d="M23.4375 43.3594H25.1953V45.1172H23.4375V43.3594Z" fill="#DCA86A"/>
<path d="M33.9844 43.3594H35.7422V45.1172H33.9844V43.3594Z" fill="#DCA86A"/>
<path d="M55.0781 43.3594H56.8359V45.1172H55.0781V43.3594Z" fill="#DCA86A"/>
</svg>
