<svg width="61" height="61" viewBox="0 0 61 61" fill="none" xmlns="http://www.w3.org/2000/svg">
<path d="M47.1041 41.3096L36.7767 39.0144V37.0417C39.6896 35.3545 41.8508 32.6215 42.8211 29.398H42.906C43.9889 29.4001 45.0314 28.9869 45.8189 28.2436C46.6064 27.5003 47.079 26.4833 47.1395 25.4021C47.1999 24.3208 46.8435 23.2576 46.1437 22.4312C45.4439 21.6047 44.4539 21.078 43.3774 20.9594V19.7948C43.9151 19.6063 44.383 19.2593 44.7195 18.7996C45.056 18.3399 45.2454 17.7891 45.2626 17.2196C45.2799 16.6501 45.1242 16.0888 44.8161 15.6096C44.5081 15.1304 44.062 14.7557 43.5368 14.535L45.2455 5.83985C45.2723 5.70322 45.2686 5.56234 45.2346 5.42732C45.2005 5.2923 45.137 5.16649 45.0486 5.05894C44.9601 4.95139 44.849 4.86475 44.7231 4.80527C44.5972 4.74578 44.4597 4.71491 44.3204 4.71489H42.6334C38.3852 4.71928 34.2315 3.4616 30.6992 1.10143C30.5443 0.998045 30.3622 0.942871 30.1759 0.942871C29.9896 0.942871 29.8075 0.998045 29.6525 1.10143C26.1203 3.4616 21.9665 4.71928 17.7183 4.71489H16.0314C15.8921 4.71491 15.7546 4.74578 15.6287 4.80527C15.5028 4.86475 15.3916 4.95139 15.3032 5.05894C15.2148 5.16649 15.1512 5.2923 15.1172 5.42732C15.0831 5.56234 15.0794 5.70322 15.1063 5.83985L16.815 14.535C16.2897 14.7557 15.8437 15.1304 15.5356 15.6096C15.2276 16.0888 15.0719 16.6501 15.0892 17.2196C15.1064 17.7891 15.2958 18.3399 15.6323 18.7996C15.9688 19.2593 16.4367 19.6063 16.9743 19.7948V20.9594C15.8979 21.078 14.9079 21.6047 14.2081 22.4312C13.5083 23.2576 13.1519 24.3208 13.2123 25.4021C13.2727 26.4833 13.7453 27.5003 14.5329 28.2436C15.3204 28.9869 16.3629 29.4001 17.4458 29.398H17.5307C18.5009 32.6215 20.6622 35.3545 23.5751 37.0417V39.0144L13.2477 41.3096C11.3582 41.7195 9.6669 42.766 8.45701 44.2741C7.24711 45.7822 6.5921 47.6602 6.60167 49.5936V58.4641C6.60167 58.7142 6.70101 58.954 6.87786 59.1309C7.0547 59.3077 7.29454 59.4071 7.54463 59.4071H52.8071C53.0572 59.4071 53.2971 59.3077 53.4739 59.1309C53.6508 58.954 53.7501 58.7142 53.7501 58.4641V49.5936C53.7597 47.6602 53.1047 45.7822 51.8948 44.2741C50.6849 42.766 48.9936 41.7195 47.1041 41.3096ZM51.3861 47.1485H50.9212C49.6623 47.1462 48.4401 46.7245 47.4476 45.9501C46.4552 45.1757 45.749 44.0926 45.4407 42.8721L46.6958 43.1503C47.7457 43.3806 48.7227 43.8658 49.5407 44.5631C50.3587 45.2603 50.9925 46.1483 51.3861 47.1485ZM38.127 41.2464L34.5305 47.6086L31.5432 45.2286L35.9987 40.7731L38.127 41.2464ZM29.9694 51.8633H30.3824L31.7968 57.5211H28.5549L29.9694 51.8633ZM30.6144 49.9774H29.7374L28.3692 47.9245L30.1344 46.5176L31.9543 47.967L30.6144 49.9774ZM45.2634 25.1547C45.2609 25.7216 45.0542 26.2686 44.6812 26.6956C44.3081 27.1225 43.7937 27.4006 43.2322 27.4791C43.3241 26.8656 43.3727 26.2465 43.3774 25.6262V22.8453C43.9098 22.954 44.3882 23.2432 44.7319 23.664C45.0755 24.0848 45.2633 24.6114 45.2634 25.1547ZM42.4345 18.0824H17.9173C17.6672 18.0824 17.4274 17.9831 17.2505 17.8062C17.0737 17.6294 16.9743 17.3895 16.9743 17.1394C16.9743 16.8894 17.0737 16.6495 17.2505 16.4727C17.4274 16.2958 17.6672 16.1965 17.9173 16.1965H42.4345C42.6846 16.1965 42.9244 16.2958 43.1013 16.4727C43.2781 16.6495 43.3774 16.8894 43.3774 17.1394C43.3774 17.3895 43.2781 17.6294 43.1013 17.8062C42.9244 17.9831 42.6846 18.0824 42.4345 18.0824ZM40.095 19.9683C37.3622 22.3981 33.8326 23.7403 30.1759 23.7403C26.5191 23.7403 22.9896 22.3981 20.2568 19.9683H40.095ZM17.7183 6.60082C22.127 6.60575 26.4466 5.36031 30.1759 3.00906C33.9052 5.36031 38.2248 6.60575 42.6334 6.60082H43.1738L41.6584 14.3105H18.6934L17.178 6.60082H17.7183ZM15.0884 25.1547C15.0885 24.6114 15.2763 24.0848 15.6199 23.664C15.9636 23.2432 16.442 22.954 16.9743 22.8453V25.6262C16.9791 26.2465 17.0276 26.8656 17.1195 27.4791C16.5581 27.4006 16.0437 27.1225 15.6706 26.6956C15.2976 26.2686 15.0909 25.7216 15.0884 25.1547ZM18.8603 25.6262V21.2442C21.9545 24.0636 25.9898 25.6263 30.1759 25.6263C34.362 25.6263 38.3973 24.0636 41.4915 21.2442V25.6262C41.4915 28.6273 40.2993 31.5054 38.1772 33.6275C36.0552 35.7496 33.177 36.9418 30.1759 36.9418C27.1748 36.9418 24.2966 35.7496 22.1745 33.6275C20.0524 31.5054 18.8603 28.6273 18.8603 25.6262ZM30.1759 38.8277C31.7886 38.8253 33.387 38.5251 34.8907 37.9423V39.2143L30.0929 44.0122L25.461 39.3803V37.9423C26.9648 38.5251 28.5632 38.8253 30.1759 38.8277ZM24.2173 40.8032L28.6794 45.2625L25.7439 47.603L22.2135 41.2483L24.2173 40.8032ZM13.656 43.1503L14.9111 42.8721C14.6028 44.0926 13.8966 45.1757 12.9041 45.9501C11.9116 46.7245 10.6894 47.1462 9.43057 47.1485H8.96569C9.35928 46.1483 9.99305 45.2603 10.811 44.5631C11.629 43.8658 12.6061 43.3806 13.656 43.1503ZM8.4876 49.5936C8.4876 49.405 8.51966 49.2164 8.53475 49.0344H9.43057C11.2675 49.0314 13.0404 48.3589 14.4172 47.1428C15.794 45.9268 16.6804 44.2505 16.9102 42.428L20.2945 41.6736L24.6369 49.4908C24.7029 49.6114 24.7945 49.7161 24.9053 49.7975C25.0161 49.879 25.1433 49.9352 25.2781 49.9623C25.3384 49.9734 25.3997 49.9785 25.461 49.9774C25.6745 49.9773 25.8816 49.9049 26.0485 49.7718L26.8887 49.1033L28.2164 51.0957L26.6105 57.5211H16.9743V50.9204H15.0884V57.5211H8.4876V49.5936ZM51.8642 57.5211H45.2634V50.9204H43.3774V57.5211H33.7412L32.1382 51.0957L33.4376 49.1466L34.2231 49.7718C34.39 49.9049 34.5971 49.9773 34.8106 49.9774C34.8711 49.9775 34.9314 49.9715 34.9907 49.9595C35.1245 49.9335 35.2512 49.8789 35.3619 49.7993C35.4726 49.7197 35.5647 49.617 35.6319 49.4984L40.0554 41.6717L43.4444 42.4261C43.6738 44.2485 44.5595 45.9248 45.9357 47.1412C47.312 48.3576 49.0844 49.0307 50.9212 49.0344H51.817C51.8321 49.223 51.8642 49.4031 51.8642 49.5936V57.5211Z" fill="#DCA86A"/>
<path d="M28.5124 12.4812L29.7543 13.1026C29.8852 13.168 30.0295 13.202 30.1758 13.202C30.3221 13.202 30.4664 13.168 30.5973 13.1026L31.8392 12.4812C32.7584 12.0255 33.5314 11.3214 34.0708 10.4487C34.6101 9.57603 34.8941 8.56969 34.8907 7.54379C34.8907 7.2937 34.7913 7.05385 34.6145 6.87701C34.4376 6.70017 34.1978 6.60082 33.9477 6.60082C33.4734 6.60232 33.0036 6.50966 32.5654 6.3282C32.1272 6.14675 31.7294 5.88011 31.3951 5.54376L30.8425 4.99118C30.6657 4.8144 30.4259 4.71509 30.1758 4.71509C29.9258 4.71509 29.686 4.8144 29.5091 4.99118L28.9566 5.54376C28.6222 5.88011 28.2244 6.14675 27.7862 6.3282C27.348 6.50966 26.8782 6.60232 26.4039 6.60082C26.1538 6.60082 25.914 6.70017 25.7372 6.87701C25.5603 7.05385 25.461 7.2937 25.461 7.54379C25.4575 8.56969 25.7415 9.57603 26.2808 10.4487C26.8202 11.3214 27.5933 12.0255 28.5124 12.4812ZM30.1758 6.98838C30.9337 7.70918 31.883 8.19661 32.9104 8.39246C32.7884 8.90921 32.5539 9.39268 32.2237 9.80846C31.8935 10.2242 31.4757 10.5621 31 10.798L30.1796 11.2082L29.3592 10.798C28.8821 10.563 28.4628 10.2255 28.1312 9.80967C27.7997 9.39384 27.5641 8.90991 27.4412 8.39246C28.4686 8.19661 29.4179 7.70918 30.1758 6.98838Z" fill="#DCA86A"/>
</svg>
