<?xml version="1.0" encoding="UTF-8"?>
<svg xmlns="http://www.w3.org/2000/svg" xmlns:xlink="http://www.w3.org/1999/xlink" width="28px" height="28px" viewBox="0 0 28 28" version="1.1">
<g id="surface1">
<path style=" stroke:none;fill-rule:nonzero;fill:rgb(86.274511%,65.882355%,41.568628%);fill-opacity:1;" d="M 25.636719 18.878906 C 24.679688 17.917969 23.117188 17.917969 22.160156 18.878906 L 19.640625 21.394531 C 19.289062 20.460938 18.390625 19.796875 17.335938 19.796875 L 14.671875 19.796875 C 14.296875 19.796875 14.128906 19.589844 13.746094 19.253906 C 12.554688 18.203125 10.960938 17.691406 9.378906 17.851562 C 7.910156 17.996094 6.589844 18.683594 5.617188 19.796875 L 2.460938 19.796875 C 2.007812 19.796875 1.640625 20.164062 1.640625 20.617188 L 1.640625 27.179688 C 1.640625 27.632812 2.007812 28 2.460938 28 C 3.152344 28 18.285156 28 18.976562 28 C 19.632812 28 20.25 27.742188 20.714844 27.277344 L 25.636719 22.355469 C 26.597656 21.398438 26.597656 19.835938 25.636719 18.878906 Z M 5.03125 26.359375 L 3.28125 26.359375 L 3.28125 21.4375 L 5.03125 21.4375 Z M 24.476562 21.195312 L 19.554688 26.117188 C 19.402344 26.273438 19.191406 26.359375 18.976562 26.359375 C 18.707031 26.359375 6.9375 26.359375 6.671875 26.359375 L 6.671875 21.097656 C 7.382812 20.171875 8.402344 19.597656 9.542969 19.484375 C 10.671875 19.371094 11.8125 19.734375 12.664062 20.484375 C 13.078125 20.851562 13.628906 21.4375 14.671875 21.4375 L 17.335938 21.4375 C 17.789062 21.4375 18.15625 21.804688 18.15625 22.257812 C 18.15625 22.710938 17.789062 23.078125 17.335938 23.078125 L 13.984375 23.078125 C 13.199219 23.078125 12.453125 23.457031 11.992188 24.097656 C 11.726562 24.464844 11.808594 24.976562 12.175781 25.242188 C 12.542969 25.507812 13.054688 25.425781 13.320312 25.058594 C 13.472656 24.84375 13.722656 24.71875 13.984375 24.71875 C 14.863281 24.71875 17.40625 24.71875 18.296875 24.71875 C 18.515625 24.71875 18.722656 24.632812 18.878906 24.476562 L 23.320312 20.039062 C 23.636719 19.71875 24.160156 19.71875 24.476562 20.039062 C 24.796875 20.355469 24.796875 20.878906 24.476562 21.195312 Z M 24.476562 21.195312 "/>
<path style=" stroke:none;fill-rule:nonzero;fill:rgb(86.274511%,65.882355%,41.568628%);fill-opacity:1;" d="M 27.179688 14.875 L 26.332031 14.875 C 25.960938 9.15625 21.710938 4.496094 16.289062 3.488281 C 16.433594 3.175781 16.515625 2.828125 16.515625 2.460938 C 16.515625 1.105469 15.410156 0 14.054688 0 C 12.699219 0 11.59375 1.105469 11.59375 2.460938 C 11.59375 2.828125 11.675781 3.171875 11.816406 3.484375 C 6.398438 4.488281 2.050781 9.136719 1.667969 14.875 L 0.820312 14.875 C 0.367188 14.875 0 15.242188 0 15.695312 C 0 16.148438 0.367188 16.515625 0.820312 16.515625 L 27.179688 16.515625 C 27.632812 16.515625 28 16.148438 28 15.695312 C 28 15.242188 27.632812 14.875 27.179688 14.875 Z M 14.054688 1.640625 C 14.507812 1.640625 14.875 2.007812 14.875 2.460938 C 14.875 2.914062 14.507812 3.28125 14.054688 3.28125 C 13.601562 3.28125 13.234375 2.914062 13.234375 2.460938 C 13.234375 2.007812 13.601562 1.640625 14.054688 1.640625 Z M 3.3125 14.875 C 3.75 9.402344 8.492188 4.910156 14.054688 4.910156 C 19.660156 4.910156 24.273438 9.316406 24.6875 14.875 Z M 3.3125 14.875 "/>
</g>
</svg>
