<?xml version="1.0" encoding="UTF-8"?>
<svg xmlns="http://www.w3.org/2000/svg" xmlns:xlink="http://www.w3.org/1999/xlink" width="28px" height="28px" viewBox="0 0 28 28" version="1.1">
<g id="surface1">
<path style=" stroke:none;fill-rule:nonzero;fill:rgb(86.274511%,65.882355%,41.568628%);fill-opacity:1;" d="M 27.058594 5.738281 L 25.097656 5.738281 L 25.097656 3.707031 C 25.097656 3.242188 24.757812 2.847656 24.296875 2.777344 C 24.21875 2.765625 22.304688 2.488281 20.003906 2.90625 C 17.433594 3.375 15.386719 4.527344 14 6.265625 C 12.613281 4.527344 10.5625 3.375 7.996094 2.90625 C 5.695312 2.488281 3.78125 2.765625 3.703125 2.777344 C 3.242188 2.847656 2.902344 3.242188 2.902344 3.707031 L 2.902344 5.738281 L 0.941406 5.738281 C 0.421875 5.738281 0 6.160156 0 6.679688 L 0 24.382812 C 0 24.6875 0.148438 24.972656 0.394531 25.148438 C 0.644531 25.324219 0.960938 25.371094 1.25 25.269531 C 1.320312 25.246094 8.359375 22.84375 13.609375 25.238281 C 13.859375 25.351562 14.140625 25.351562 14.390625 25.238281 C 19.625 22.851562 26.679688 25.246094 26.75 25.269531 C 26.851562 25.304688 26.957031 25.324219 27.058594 25.324219 C 27.253906 25.324219 27.445312 25.265625 27.605469 25.148438 C 27.851562 24.972656 28 24.6875 28 24.382812 L 28 6.679688 C 28 6.160156 27.578125 5.738281 27.058594 5.738281 Z M 1.878906 23.125 L 1.878906 7.617188 L 2.902344 7.617188 L 2.902344 20.128906 C 2.902344 20.402344 3.023438 20.664062 3.226562 20.839844 C 3.433594 21.019531 3.710938 21.101562 3.980469 21.058594 C 4.03125 21.050781 8.113281 20.492188 11.09375 22.539062 C 7.421875 21.910156 3.746094 22.636719 1.878906 23.125 Z M 13.058594 21.691406 C 11.746094 20.503906 10.035156 19.703125 7.996094 19.332031 C 7.015625 19.152344 6.105469 19.101562 5.378906 19.101562 C 5.164062 19.101562 4.960938 19.105469 4.78125 19.113281 L 4.78125 4.570312 C 6.585938 4.488281 10.980469 4.679688 13.058594 8.207031 Z M 14.941406 8.207031 C 17.011719 4.695312 21.410156 4.496094 23.21875 4.570312 L 23.21875 19.113281 C 22.429688 19.082031 21.273438 19.097656 20.003906 19.332031 C 17.964844 19.703125 16.253906 20.503906 14.941406 21.691406 Z M 16.902344 22.539062 C 19.882812 20.492188 23.96875 21.050781 24.019531 21.058594 C 24.289062 21.101562 24.5625 21.019531 24.769531 20.84375 C 24.976562 20.664062 25.097656 20.40625 25.097656 20.128906 L 25.097656 7.617188 L 26.121094 7.617188 L 26.121094 23.125 C 24.253906 22.636719 20.574219 21.910156 16.902344 22.539062 Z M 16.902344 22.539062 "/>
</g>
</svg>
