<svg width="27" height="27" viewBox="0 0 27 27" fill="none" xmlns="http://www.w3.org/2000/svg">
<g clip-path="url(#clip0_2599_12754)">
<path d="M27 11.25L24.525 0H2.475L0.027 11.0059L0 12.375C0.00408004 13.4609 0.404072 14.5081 1.125 15.3202V23.625C1.125 24.5201 1.48058 25.3786 2.11351 26.0115C2.74645 26.6444 3.60489 27 4.5 27H22.5C23.3951 27 24.2536 26.6444 24.8865 26.0115C25.5194 25.3786 25.875 24.5201 25.875 23.625V15.3202C26.5959 14.5081 26.9959 13.4609 27 12.375V11.25ZM2.25 11.3726L4.275 2.25H7.875V6.75H10.125V2.25H16.875V6.75H19.125V2.25H22.725L24.75 11.3726V12.375C24.75 12.9717 24.5129 13.544 24.091 13.966C23.669 14.3879 23.0967 14.625 22.5 14.625H21.375C20.7783 14.625 20.206 14.3879 19.784 13.966C19.3621 13.544 19.125 12.9717 19.125 12.375H16.875C16.875 12.9717 16.6379 13.544 16.216 13.966C15.794 14.3879 15.2217 14.625 14.625 14.625H12.375C11.7783 14.625 11.206 14.3879 10.784 13.966C10.3621 13.544 10.125 12.9717 10.125 12.375H7.875C7.875 12.9717 7.63795 13.544 7.21599 13.966C6.79403 14.3879 6.22174 14.625 5.625 14.625H4.5C3.90326 14.625 3.33097 14.3879 2.90901 13.966C2.48705 13.544 2.25 12.9717 2.25 12.375V11.3726ZM22.5 24.75H4.5C4.20163 24.75 3.91548 24.6315 3.7045 24.4205C3.49353 24.2095 3.375 23.9234 3.375 23.625V16.7153C3.74159 16.8166 4.1197 16.8702 4.5 16.875H5.625C6.26613 16.8729 6.89932 16.733 7.48163 16.4648C8.06395 16.1965 8.58177 15.8062 9 15.3202C9.41823 15.8062 9.93605 16.1965 10.5184 16.4648C11.1007 16.733 11.7339 16.8729 12.375 16.875H14.625C15.2638 16.8753 15.8953 16.7393 16.4773 16.4761C17.0593 16.2128 17.5785 15.8283 18 15.3484C18.4215 15.8283 18.9407 16.2128 19.5227 16.4761C20.1047 16.7393 20.7362 16.8753 21.375 16.875H22.5C22.8803 16.8702 23.2584 16.8166 23.625 16.7153V23.625C23.625 23.9234 23.5065 24.2095 23.2955 24.4205C23.0845 24.6315 22.7984 24.75 22.5 24.75Z" fill="#DCA86A"/>
</g>
<defs>
<clipPath id="clip0_2599_12754">
<rect width="27" height="27" fill="white"/>
</clipPath>
</defs>
</svg>
