<svg width="61" height="60" viewBox="0 0 61 60" fill="none" xmlns="http://www.w3.org/2000/svg">
<path d="M58.1383 19.6641H2.91797V22.0843H58.1383V19.6641ZM60.4781 22.0843C60.4781 23.421 59.4306 24.5045 58.1383 24.5045H2.91797C1.62569 24.5045 0.578125 23.421 0.578125 22.0843V18.454L0.57961 18.3917C0.610946 17.7523 1.12211 17.2439 1.74805 17.2439H59.3082L59.3684 17.2454C59.9866 17.2778 60.4781 17.8066 60.4781 18.454V22.0843Z" fill="#DCA86A"/>
<path d="M59.5703 17.8264L58.495 19.9666L34.1582 6.67811L35.2336 4.53784L59.5703 17.8264Z" fill="#DCA86A"/>
<path d="M26.8985 6.67811L2.5617 19.9666L1.48633 17.8264L25.8231 4.53784L26.8985 6.67811Z" fill="#DCA86A"/>
<path d="M44.1416 17.6362L42.3279 19.0592L31.4355 6.86852L33.2491 5.44556L44.1416 17.6362Z" fill="#DCA86A"/>
<path d="M31.4362 5.44556V19.0592H29.6211V5.44556H31.4362Z" fill="#DCA86A"/>
<path d="M29.6201 6.86852L18.7276 19.0592L16.9141 17.6362L27.8065 5.44556L29.6201 6.86852Z" fill="#DCA86A"/>
<path d="M27.4496 2.4202V4.8404H33.6054V2.4202H27.4496ZM35.9729 6.05051C35.9729 6.71883 35.4429 7.26061 34.7891 7.26061H26.2658C25.612 7.26061 25.082 6.71883 25.082 6.05051V2.4202C25.082 1.08354 26.142 0 27.4496 0H33.6054C34.913 0 35.9729 1.08354 35.9729 2.4202V6.05051Z" fill="#DCA86A"/>
<path d="M58.1383 57.4797V51.4292H2.91797V57.4797H42.9291L42.9893 57.4813C43.6074 57.5137 44.099 58.0424 44.099 58.6898C44.099 59.3373 43.6074 59.866 42.9893 59.8984L42.9291 59.8999H2.91797C1.62569 59.8999 0.578125 58.8164 0.578125 57.4797V51.4292C0.578125 50.0926 1.62569 49.009 2.91797 49.009H58.1383C59.4306 49.009 60.4781 50.0926 60.4781 51.4292V57.4797C60.4781 58.8164 59.4306 59.8999 58.1383 59.8999H52.2888C51.6427 59.8999 51.1189 59.3582 51.1189 58.6898C51.1189 58.0215 51.6427 57.4797 52.2888 57.4797H58.1383Z" fill="#DCA86A"/>
<path d="M48.6804 39.9333V50.8243H46.8652V39.9333H48.6804Z" fill="#DCA86A"/>
<path d="M52.3101 39.0259V40.841H43.2344V39.0259H52.3101Z" fill="#DCA86A"/>
<path d="M24.1759 23.5969V50.8242H21.4531V23.5969H24.1759Z" fill="#DCA86A"/>
<path d="M19.6368 23.5969V50.8242H16.9141V23.5969H19.6368Z" fill="#DCA86A"/>
<path d="M57.7546 23.5969V50.8242H55.9395V23.5969H57.7546Z" fill="#DCA86A"/>
<path d="M53.2175 23.5969V50.8242H51.4023V23.5969H53.2175Z" fill="#DCA86A"/>
<path d="M44.1426 23.5969V50.8242H41.4199V23.5969H44.1426Z" fill="#DCA86A"/>
<path d="M39.6036 23.5969V50.8242H36.8809V23.5969H39.6036Z" fill="#DCA86A"/>
<path d="M9.65304 23.5969V50.8242H7.83789V23.5969H9.65304Z" fill="#DCA86A"/>
<path d="M5.11593 23.5969V50.8242H3.30078V23.5969H5.11593Z" fill="#DCA86A"/>
<path d="M14.1921 39.9333V50.8243H12.377V39.9333H14.1921Z" fill="#DCA86A"/>
<path d="M17.8219 39.0259V40.841H8.74609V39.0259H17.8219Z" fill="#DCA86A"/>
<path d="M48.6804 58.5386C48.6804 59.2905 48.2741 59.9 47.7728 59.9C47.2716 59.9 46.8652 59.2905 46.8652 58.5386C46.8652 57.7867 47.2716 57.1772 47.7728 57.1772C48.2741 57.1772 48.6804 57.7867 48.6804 58.5386Z" fill="#DCA86A"/>
</svg>
