<svg width="61" height="61" viewBox="0 0 61 61" fill="none" xmlns="http://www.w3.org/2000/svg">
<g clip-path="url(#clip0_3222_4000)">
<path d="M15.3817 23.6865H33.9423C34.8517 23.6865 35.5914 22.9468 35.5914 22.0374V3.47684C35.5914 2.56747 34.8517 1.82759 33.9423 1.82759H15.3817C14.4723 1.82759 13.7326 2.56747 13.7326 3.47684V3.8624H10.5655V3.14268C10.5655 1.40974 9.15575 0 7.42281 0C5.68987 0 4.28014 1.40974 4.28014 3.14268V35.6362C4.28014 36.1244 4.67595 36.5202 5.16417 36.5202C5.65239 36.5202 6.0482 36.1244 6.0482 35.6362V3.14268C6.0482 2.38465 6.66478 1.76807 7.42281 1.76807C8.18084 1.76807 8.79743 2.38465 8.79743 3.14268V4.74643V9.00653V16.5076V20.7677V53.5633H6.0482V39.6692C6.0482 39.1809 5.65239 38.7851 5.16417 38.7851C4.67595 38.7851 4.28014 39.1809 4.28014 39.6692V53.5633H3.38997C1.52065 53.5633 0 55.0826 0 56.95V58.9447C0 59.7141 0.625895 60.34 1.39524 60.34H13.4504C14.2215 60.34 14.8489 59.7141 14.8489 58.9447V56.95C14.8489 55.0826 13.3283 53.5633 11.459 53.5633H10.5654V21.6517H13.7323V22.0373C13.7325 22.9468 14.4723 23.6865 15.3817 23.6865ZM13.081 56.95V58.5719H1.76807V56.95C1.76807 56.0575 2.49568 55.3314 3.38997 55.3314H5.16417H9.68146H11.4591C12.3534 55.3314 13.081 56.0575 13.081 56.95ZM10.5655 9.89068H13.7325V15.6237H10.5655V9.89068ZM15.5005 3.59566H33.8233V21.9185H15.5005V20.7677V16.5076V9.00665V4.74655V3.59566ZM13.7325 5.63058V8.12262H10.5655V5.63058H13.7325ZM10.5655 19.8837V17.3916H13.7325V19.8837H10.5655Z" fill="#DCA86A"/>
<path d="M60.3486 37.2501C60.3486 35.2556 58.735 33.6329 56.7514 33.6329H53.3717L52.2143 31.1913C51.5156 29.7174 50.9875 28.7119 50.0494 28.1857C49.1833 27.7 48.1948 27.7033 46.3962 27.7086L31.5679 27.7089L31.4492 27.7086C29.6533 27.7028 28.6644 27.7 27.7986 28.1858C26.861 28.712 26.3329 29.7174 25.6343 31.1913L24.4769 33.6329H21.0972C19.1137 33.6329 17.5 35.2555 17.5 37.2501C17.5 39.2281 19.0873 40.8395 21.0482 40.866L20.0247 43.0252C19.4543 44.2252 19.4147 44.3909 19.4202 45.5574C19.4207 45.6599 19.4212 53.5988 19.4212 53.5988C19.4212 54.2669 19.4221 55.2957 20.3735 55.6751V58.1396C20.3735 59.3585 21.3651 60.35 22.5839 60.35H26.6836C27.9006 60.35 28.8907 59.3584 28.8907 58.1396V55.8226H36.9379C37.4262 55.8226 37.8219 55.4268 37.8219 54.9385C37.8219 54.4503 37.4262 54.0545 36.9379 54.0545H21.2575C21.2359 54.0545 21.2161 54.0543 21.198 54.0538C21.1892 53.906 21.1887 45.6541 21.1882 45.5492C21.1843 44.7042 21.1843 44.7042 21.622 43.7833L23.0042 40.8673H54.8443L56.227 43.7843C56.6616 44.6985 56.6616 44.6985 56.6571 45.5338C56.6565 45.6429 56.656 53.906 56.6475 54.054C56.6303 54.0545 40.9607 54.0548 40.9607 54.0548C40.4724 54.0548 40.0767 54.4506 40.0767 54.9388C40.0767 55.427 40.4724 55.8228 40.9607 55.8228H48.9544V58.1397C48.9544 59.3586 49.9459 60.3501 51.1648 60.3501H55.2645C56.4834 60.3501 57.475 59.3585 57.475 58.1397V55.6745C58.4231 55.2946 58.424 54.2666 58.424 53.5989C58.424 53.5989 58.4246 45.6492 58.4252 45.5429C58.4312 44.3966 58.3862 44.2084 57.8242 43.0261L56.8002 40.8662C58.7612 40.8395 60.3486 39.2281 60.3486 37.2501ZM19.2681 37.2501C19.2681 36.2305 20.0886 35.4009 21.0972 35.4009H23.6388L21.8859 39.0991H21.0973C20.0886 39.0991 19.2681 38.2697 19.2681 37.2501ZM27.1228 55.8226V58.1395C27.1228 58.3793 26.9217 58.5818 26.6837 58.5818H22.584C22.3441 58.5818 22.1416 58.3792 22.1416 58.1395V55.8226H27.1228ZM27.2319 31.9486C27.8521 30.6402 28.2246 29.9743 28.6638 29.7278C29.124 29.4697 29.9962 29.4719 31.4438 29.4767L46.2827 29.4771L46.4016 29.4767C47.8503 29.4719 48.7239 29.4696 49.1846 29.7279C49.6241 29.9744 49.9966 30.6404 50.6166 31.9486L54.0062 39.0993H23.8424L27.2319 31.9486ZM55.7071 58.1396C55.7071 58.3794 55.5045 58.5819 55.2646 58.5819H51.1649C50.9252 58.5819 50.7226 58.3793 50.7226 58.1396V55.8226H55.7071V58.1396ZM56.7514 39.0991H55.9629L54.2098 35.4009H56.7514C57.76 35.4009 58.5805 36.2305 58.5805 37.2501C58.5805 38.2697 57.76 39.0991 56.7514 39.0991Z" fill="#DCA86A"/>
<path d="M34.4446 47.0819H43.4091C43.8975 47.0819 44.2932 46.6861 44.2932 46.1979C44.2932 45.7097 43.8975 45.3138 43.4091 45.3138H34.4446C33.9562 45.3138 33.5605 45.7097 33.5605 46.1979C33.5605 46.6861 33.9562 47.0819 34.4446 47.0819Z" fill="#DCA86A"/>
<path d="M34.4446 51.078H43.4091C43.8975 51.078 44.2932 50.6822 44.2932 50.194C44.2932 49.7057 43.8975 49.3099 43.4091 49.3099H34.4446C33.9562 49.3099 33.5605 49.7057 33.5605 50.194C33.5605 50.6822 33.9562 51.078 34.4446 51.078Z" fill="#DCA86A"/>
<path d="M53.7645 47.364C53.7645 45.316 52.1 43.65 50.0538 43.65C48.006 43.65 46.3398 45.3161 46.3398 47.364C46.3398 49.4119 48.006 51.0781 50.0538 51.0781C52.1 51.078 53.7645 49.4119 53.7645 47.364ZM48.1079 47.364C48.1079 46.291 48.9809 45.4181 50.0538 45.4181C51.1251 45.4181 51.9965 46.291 51.9965 47.364C51.9965 48.4371 51.1249 49.3101 50.0538 49.3101C48.9809 49.31 48.1079 48.437 48.1079 47.364Z" fill="#DCA86A"/>
<path d="M24.0879 47.364C24.0879 49.412 25.7526 51.0781 27.7986 51.0781C29.8466 51.0781 31.5126 49.412 31.5126 47.364C31.5126 45.316 29.8465 43.65 27.7986 43.65C25.7526 43.6499 24.0879 45.316 24.0879 47.364ZM29.7446 47.364C29.7446 48.4371 28.8717 49.3101 27.7987 49.3101C26.7275 49.3101 25.8561 48.4371 25.8561 47.364C25.8561 46.291 26.7276 45.4181 27.7987 45.4181C28.8717 45.418 29.7446 46.291 29.7446 47.364Z" fill="#DCA86A"/>
<path d="M24.9085 5.35828H21.2805C20.7995 5.35828 20.3965 5.76116 20.3965 6.24231V19.2719C20.3965 19.7601 20.7923 20.1559 21.2805 20.1559C21.7687 20.1559 22.1646 19.7601 22.1646 19.2719V14.4915C23.0142 14.4868 24.2794 14.4803 24.9085 14.4803C27.4631 14.4803 29.5415 12.4343 29.5415 9.9193C29.5415 7.40428 27.4631 5.35828 24.9085 5.35828ZM24.9085 12.7123C24.2832 12.7123 23.036 12.7186 22.1847 12.7233C22.1799 11.8506 22.1735 10.5571 22.1735 9.9193C22.1735 9.38251 22.1699 8.03324 22.1671 7.12634H24.9084C26.4613 7.12634 27.7733 8.40536 27.7733 9.9193C27.7733 11.4332 26.4613 12.7123 24.9085 12.7123Z" fill="#DCA86A"/>
</g>
<defs>
<clipPath id="clip0_3222_4000">
<rect width="60.35" height="60.35" fill="white"/>
</clipPath>
</defs>
</svg>
