<svg width="822" height="473" viewBox="0 0 822 473" fill="none" xmlns="http://www.w3.org/2000/svg">
<path d="M820.301 420.587C787.929 420.994 755.547 420.96 723.17 420.894C722.589 420.895 721.945 421.063 721.365 420.394C721.512 417.467 721.916 414.462 722.435 411.474C726.598 388.469 730.35 365.396 734.246 342.345C735.208 336.687 736.378 331.046 736.572 325.284C737.357 313.932 730.768 303.46 720.114 299.43C711.287 296 701.598 296.214 692.287 296.641C690.829 296.709 689.946 296.305 689.274 294.916C686.461 289.094 681.923 285.14 675.814 283.041C674.459 282.576 673.703 281.727 673.24 280.433C672.403 278.095 672.221 275.684 672.34 273.238C672.472 270.539 672.674 267.842 672.806 265.143C672.921 262.804 672.401 260.574 671.481 258.437C669.708 254.317 667.161 250.796 663.403 248.255C660.1 246.022 656.72 243.901 653.462 241.606C644.045 235.122 641.764 226.293 640.697 215.464C639.344 199.629 628.714 185.192 613.719 179.715C609.848 178.247 605.814 177.419 601.654 177.262C600.031 177.201 599.973 177.096 599.773 175.522C599.738 175.254 599.732 174.982 599.7 174.714C598.152 161.392 596.792 147.179 588.484 136.079C587.287 134.558 585.986 133.272 584.299 132.335C581.631 130.854 578.822 129.703 575.958 128.671C561.925 123.538 547.346 120.179 533.245 115.256C532.223 114.919 531.231 114.526 530.712 113.408C528.829 109.356 526.56 105.519 524.124 101.777C523.753 101.208 523.483 100.595 523.461 99.8891C523.403 98.0506 523.664 96.2495 524.055 94.4617C524.18 93.8916 524.442 93.4438 525.1 93.4076C527.054 93.3 528.065 91.9196 528.942 90.4561C530.824 87.3184 531.686 83.8587 531.89 80.2347C531.966 78.8805 531.729 77.5399 531.248 76.2572C530.309 73.7525 529.603 73.2782 526.889 73.2924C526.717 73.2934 526.543 73.1467 526.325 73.0476C527.417 63.9896 528.88 51.1694 524.228 42.974C520.127 36.308 511.982 30.2072 503.806 31.516C501.259 31.9496 498.833 31.5965 496.43 30.7776C490.636 28.3544 484.539 29.0573 478.929 31.5667C476.189 32.7466 473.859 34.3883 472.297 36.9874C470.003 40.8039 467.115 44.0436 463.391 46.5496C458.97 49.5741 459.255 55.982 459.645 60.7528C460.124 65.3574 461.43 69.7532 462.94 74.1037C463.218 74.9044 463.703 75.6808 463.552 76.6915C460.885 77.0042 460.302 78.8811 460.333 81.0731C460.416 87.0126 462.615 91.967 467.382 95.6493C467.933 96.0753 468.424 96.4788 468.608 97.186C469.846 101.96 471.369 106.646 473.048 111.26C471.801 113.397 469.959 114.901 468.291 116.568C467.632 117.227 466.893 117.576 466 117.737C455.2 119.799 444.511 122.754 434.328 126.919C428.575 129.484 424.857 133.681 423.037 139.877C415.138 166.798 415.596 195.098 418.396 222.747C418.469 223.463 418.579 224.194 418.317 224.886C414.518 211.107 411.251 197.259 409.029 183.145C405.963 164.347 404.306 145.305 400.267 126.675C398.414 119.375 394.553 113.479 388.28 109.198C378.374 102.484 366.648 99.3843 355.355 95.866C351.217 94.6188 347.04 93.4997 342.904 92.2469C340.9 91.64 340.036 89.305 341.132 87.5798C344.018 83.0352 346.078 78.1302 347.571 72.9781C348.158 70.9524 349.019 69.0854 350.101 67.2638C362.584 46.9425 365.933 10.7379 338.287 1.77095C332.267 -0.376618 326.102 -0.371647 319.88 0.727481C314.669 1.64806 309.914 3.64524 305.592 6.68159C304.457 7.47893 304.475 7.5051 305.341 8.94576C306.696 8.21234 308.049 7.46137 309.419 6.74121C329.352 -4.5969 356.252 5.43206 357.177 30.0137C357.852 41.2067 355.782 51.9495 350.718 62.0325C350.467 62.532 350.382 63.2284 349.456 63.4364C350.303 57.0868 351.534 50.9216 352.53 44.6121C352.71 43.5113 353.046 42.3718 352.469 41.1415C348.871 40.6353 345.229 40.3617 341.669 39.6077C334.432 38.0412 328.206 34.4556 322.504 29.8822C316.692 25.4943 311.987 19.3868 310.504 12.1395C310.262 10.9482 309.615 10.8022 308.652 11.144C308.266 12.0523 308.594 12.8229 308.781 13.5947C310.225 19.5594 313.303 24.6393 317.782 28.7125C325.685 35.8992 334.748 40.9318 345.499 42.4801C347.218 42.7275 348.981 42.7153 350.663 43.2271C350.873 43.9946 350.635 44.6383 350.532 45.2975C349.55 51.5729 347.979 57.7483 347.246 64.0628C346.227 72.8439 343.129 80.8207 338.172 88.0959C333.545 94.7128 326.154 102.958 317.188 99.9918C307.92 97.2891 301.695 88.7928 299.617 79.648C298.809 76.0946 298.247 72.4851 297.575 68.9006C297.465 68.3112 297.467 67.6729 296.672 67.1349C294.722 67.8939 293.018 67.1097 291.687 65.4534C288.761 61.8132 287.248 57.5929 286.855 52.9775C286.696 51.1138 288.222 49.0182 289.958 48.3925C291.564 47.7465 293.857 48.9129 294.895 50.7076C295.822 52.0632 295.822 52.0632 297.422 51.6607C296.971 54.0603 296.537 56.4388 296.069 58.81C295.966 59.3291 295.804 59.8899 295.051 59.8336C294.262 59.2194 294.319 58.2876 294.17 57.4432C293.93 56.0916 293.541 54.8242 292.548 53.8013C291.303 52.517 290.217 52.7449 289.335 54.6278C290.896 54.9465 291.339 56.2145 291.761 57.5164C292.137 58.6732 292.516 59.8405 293.22 60.8472C293.965 61.9109 294.99 62.1865 296.256 61.7453C297.512 61.307 298.562 60.2172 298.27 59.3105C297.781 57.7976 298.306 56.521 298.819 55.2058C299.829 52.6174 300.493 49.9262 301.205 47.2503C301.778 45.0961 302.288 42.9256 302.856 40.7698C303.601 37.9431 305.365 36.0413 308.128 35.0737C310.078 34.3297 312.162 33.865 313.97 32.795C315.019 32.1431 315.916 31.3361 316.331 30.1121C316.523 29.547 316.506 29.014 315.96 28.6794C315.366 28.3143 314.915 28.6499 314.604 29.1448C313.484 30.9273 311.702 31.6939 309.83 32.36C308.749 32.7443 307.71 33.2425 306.635 33.6433C303.607 34.7719 301.816 36.9768 300.94 40.0284C300.044 43.1446 299.115 46.2512 298.179 49.3558C298.058 49.7549 298.188 50.3592 297.402 50.4433C296.658 49.1027 295.541 48.0251 294.327 47.0648C293.034 46.0412 291.469 45.9716 289.89 46.007C288.186 46.0455 287.281 47.5289 285.946 48.2354C285.425 47.4961 285.549 46.7272 285.512 46.0007C285.337 42.5526 285.351 39.1059 285.809 35.6773C286.62 29.6096 288.091 23.7359 291.038 18.3095C293.48 13.7192 297.988 10.5524 303 9.33433C304.036 9.10642 304.302 8.55024 303.857 7.65417C303.16 7.39678 302.563 7.53293 301.966 7.62304C294.624 8.80895 289.611 15.2063 287.09 21.7742C282.543 33.0636 282.383 45.7503 285.468 57.419C287.014 62.5208 288.927 67.4407 294.16 70.0335C294.634 70.2683 294.821 70.6629 294.852 71.1773C295.007 73.7893 295.023 76.3493 292.67 78.1848C292.353 78.4316 292.103 78.7639 291.823 79.0571C288.828 82.1842 285.349 84.7991 282.385 87.9597C282.052 88.3138 281.627 88.501 281.177 88.6726C268.974 93.6601 256.404 97.6097 243.943 101.885C238.679 103.712 233.78 106.274 229.328 109.662C223.116 114.292 219.829 121.676 217.657 128.912C214.933 138.723 213.89 148.814 212.617 158.867C212.566 159.263 212.551 159.684 212.894 160.035C213.378 160.235 213.887 160.337 214.405 160.084C214.842 159.488 214.792 158.789 214.873 158.129C216.105 147.596 217.337 137.027 220.458 126.847C224.363 113.612 233.338 108.126 245.698 103.589C256.628 99.6625 267.86 96.5921 278.543 91.9663C279.016 91.7619 279.505 91.4555 280.049 91.7248C280.281 92.2876 279.905 92.6699 279.695 93.0585C276.199 99.5111 274.902 106.815 272.802 113.781C272.494 114.887 272.168 115.995 271.967 117.123C271.787 118.137 272.351 118.696 273.353 118.517C274.008 118.401 274.634 118.103 275.261 117.857C279.31 116.269 283.485 115.178 287.83 114.862C290.887 114.64 291.844 115.41 292.513 118.36C292.737 119.348 292.939 120.341 293.134 121.336C293.815 125.098 296.989 126.929 300.419 127.79C303.945 128.823 307.588 129.09 311.225 129.385C311.813 129.432 312.464 129.267 312.91 129.844C313.739 176.559 312.863 223.401 313.536 270.153C313.563 270.621 313.658 271.089 313.762 271.549C313.84 271.896 314.061 272.165 314.442 272.197C314.9 272.237 315.274 272.01 315.35 271.574C315.465 270.913 315.512 270.234 315.513 269.562C315.526 223.799 315.295 178.035 315.221 132.272C315.219 131.413 315.026 130.514 315.508 129.691C316.358 129.323 317.248 129.488 318.112 129.476C321.024 129.435 323.92 129.223 326.771 128.611C329.489 128.028 331.362 126.517 332.212 123.756C332.868 121.624 333.538 119.503 334.058 117.332C334.352 116.103 334.389 114.789 335.106 113.521C341.061 115.848 346.834 118.608 353.533 119.794C351.597 110.763 347.414 103.053 343.752 95.1822C344.353 94.7715 344.802 95.0004 345.249 95.118C352.437 97.0111 359.543 99.1875 366.578 101.575C373.493 103.921 380.252 106.662 386.477 110.572C391.913 113.985 395.513 118.796 397.596 124.821C398.975 128.809 399.529 132.969 400.207 137.098C402.374 150.301 403.972 163.587 405.927 176.821C408.003 190.871 410.514 204.823 414.729 218.419C414.901 218.974 415.226 219.566 415.008 220.276C414.411 219.853 414.33 219.282 414.103 218.804C406.361 203.863 401.591 183.914 384.469 177.138C383.387 176.792 383.002 176.047 383.178 174.949C384.755 158.476 386.681 142.025 387.984 125.516C388.037 124.912 388.033 124.3 388.01 123.694C387.987 123.106 387.76 122.601 387.08 122.59C385.979 122.618 386.144 124.109 386.04 124.932C384.732 141.37 382.694 157.737 381.121 174.15C381.06 174.738 381.173 175.383 380.667 175.844C380.527 175.883 380.395 175.96 380.275 175.947C373.088 175.104 366.859 176.846 362.166 182.682C361.636 183.341 361.008 183.505 360.221 183.507C347.405 183.515 339.798 195.949 336.624 206.915C332.52 220.907 336.675 232.511 327.718 245.803C323.715 253.788 324.459 261.944 328.636 269.687C329.994 272.572 332.772 277.916 332.294 281.032C331.687 281.518 331.055 281.424 330.461 281.44C319.036 281.956 307.624 280.996 296.2 281.094C295.503 281.104 295.062 280.803 294.632 280.346C290.505 275.963 285.371 273.203 279.84 271.021C271.999 267.951 263.503 267.316 255.704 264.142C254.542 263.68 254.003 262.957 254.161 261.663C255.282 246.707 255.555 231.672 255.253 216.679C255.151 215.642 254.582 215.28 253.607 215.595C253.226 216.192 253.382 216.813 253.393 217.41C253.637 231.746 252.926 246.063 252.518 260.387C252.501 260.958 252.654 261.63 251.976 261.989C248.685 260.815 247.869 260.175 244.373 256.536C243.558 255.687 243.355 254.893 243.645 253.809C244.276 251.46 244.942 249.114 245.413 246.731C246.42 241.627 247.437 236.523 246.493 231.26C245.991 228.461 246.584 225.789 247.731 223.171C251.088 215.504 250.356 216.873 249.605 210.481C249.334 208.174 249.337 208.21 251.761 208.071C254.528 207.912 257.283 207.618 259.97 206.887C262.217 206.276 263.731 204.85 263.906 202.522C264.522 195.949 261.759 189.576 255.788 186.334C255.617 185.162 256.108 184.157 256.395 183.136C257.152 180.655 255.074 178.952 253.019 178.151C250.096 176.824 247.011 176.094 243.839 175.759C242.39 175.607 241.404 175.108 240.634 173.747C238.881 170.648 236.36 168.207 233.457 166.141C223.778 159.395 208.922 160.139 198.382 164.434C193.424 166.501 189.567 169.896 187.297 174.894C186.488 176.678 185.656 178.453 184.856 180.241C184.018 182.113 182.899 183.776 181.413 185.205C180.098 186.469 178.826 187.78 177.573 189.105C171.65 195.535 171.095 205.518 175.298 212.949C176.983 216.104 177.706 219.325 177.67 222.856C177.622 227.56 178.863 231.998 181.444 235.92C183.847 239.57 186.8 242.716 191.285 243.864C192 244.047 192.3 244.472 192.247 245.179C192.212 245.647 192.23 246.131 191.88 246.575C189.318 247.68 186.813 249.011 184.345 250.41C180.678 252.489 178.125 255.553 176.477 259.397C176.105 260.266 175.681 261.14 175.493 262.055C175.084 264.045 173.775 264.857 171.956 265.438C158.369 269.886 144.555 274.125 132.258 281.6C123.027 286.902 116.996 296.367 115.067 306.753C114.763 308.313 114.081 309.198 112.512 309.7C109.233 310.749 105.974 311.902 102.922 313.526C90.765 319.501 85.9968 334.018 88.429 346.777C92.5247 372.878 97.0212 398.732 101.696 424.762C81.1445 424.796 60.9991 425.279 40.5146 425.391C27.0319 425.593 13.5127 425.296 0.0429388 425.503C-0.0723404 427.289 -0.0312612 427.388 1.14704 427.464C40.0091 426.872 78.8783 426.676 117.745 426.889C118.742 426.887 119.584 427.181 120.415 427.677C122.62 428.994 124.841 430.291 127.197 431.322C137.058 435.637 147.125 439.331 157.735 441.376C159.597 441.735 159.591 441.752 159.787 443.743C160.562 451.612 161.378 459.476 162.085 467.352C162.241 469.083 163.017 469.98 164.583 470.61C170.114 472.837 175.862 473.302 181.715 472.836C185.437 472.54 189.043 471.662 192.461 470.09C193.863 469.445 194.614 468.502 194.828 466.883C195.79 459.579 196.585 452.257 197.414 444.938C197.511 444.08 197.523 443.192 197.987 442.46C198.549 442.337 198.998 442.521 199.443 442.657C210.84 446.284 222.699 445.46 234.432 444.602C236.142 444.482 237.793 444.741 239.443 445.149C242.465 445.896 245.537 446.338 248.629 446.681C250.23 446.859 251.728 446.759 253.099 445.84C253.691 445.443 254.372 445.457 255.048 445.401C257.705 445.181 258.474 444.372 258.596 441.758C258.604 441.574 258.726 441.396 258.784 441.244C259.501 440.817 260.265 440.887 260.996 440.841C264.998 440.586 268.915 439.961 272.578 438.221C273.168 437.941 273.739 437.868 274.327 438.157C275.356 438.662 276.427 438.55 277.508 438.419C280.534 438.052 283.462 437.267 286.407 436.505C296.625 433.862 306.689 430.788 316.301 426.364C316.837 426.117 317.372 425.748 318.121 425.974C318.545 426.845 318.572 427.859 318.712 428.847C319.3 432.994 319.811 437.154 320.5 441.285C321.304 446.107 324.758 449.14 329.619 449.541C332.386 449.768 335.156 449.815 337.927 449.768C381.455 449.218 424.993 449.51 468.522 449.747C476.973 449.917 486.861 446.212 487.849 436.665C488.184 434.185 488.363 431.693 488.61 429.206C488.681 428.484 488.536 427.7 489.308 426.933C503.385 426.915 517.36 424.87 531.105 420.784C531.102 423.618 530.563 426.773 534.259 426.749C536.364 426.772 538.413 426.289 540.487 426.026C541.506 425.897 542.416 425.427 543.206 424.753C543.559 424.452 543.849 424.038 544.445 424.097C544.522 424.249 544.643 424.411 544.69 424.593C545.328 427.046 546.507 427.689 548.825 426.649C550.111 426.072 551.305 425.276 552.508 424.528C554.529 423.27 556.638 422.251 558.968 421.679C562.463 420.819 565.739 420.954 568.865 423.058C574.04 426.32 580.051 429.205 586.328 428.474C590.154 428.04 593.972 427.535 597.798 427.108C599.758 426.89 600.156 427.168 600.892 428.922C601.585 430.574 601.859 430.795 603.58 430.731C621.357 429.384 639.277 430.171 657.039 428.376C663.837 427.671 670.585 426.64 677.064 424.37C680.422 423.194 683.775 422.297 687.369 422.918C731.691 422.724 776.058 422.522 820.382 422.717C820.984 422.638 821.348 422.182 821.36 421.593C821.372 420.941 820.891 420.632 820.301 420.587ZM298.012 124.593C296.72 123.998 295.972 122.828 295.522 121.523C295.017 120.058 294.618 118.557 294.173 117.071C293.23 113.924 291.925 112.911 288.588 112.918C284.089 112.944 279.642 114.362 275.309 115.279C274.877 114.865 274.943 114.591 275.006 114.335C276.688 107.519 278.507 100.749 281.378 94.306C282.719 91.2972 284.502 88.659 287.019 86.5061C289.267 84.5845 291.504 82.6489 293.719 80.3804C294.192 81.2669 293.935 81.9705 293.811 82.6373C290.013 99.003 295.275 116.37 308.544 126.924C304.917 126.678 301.346 126.126 298.012 124.593ZM314.865 124.998C312.77 126.525 312.183 126.572 309.961 125.137C307.506 123.552 305.255 121.697 303.552 119.303C298.321 111.952 294.832 103.948 294.57 94.7658C294.442 90.2706 295.307 85.8966 296.143 81.52C296.354 80.4165 296.337 79.2475 296.913 78.1643C297.468 78.7516 297.498 79.4463 297.684 80.0826C299.054 84.7816 300.935 89.2242 303.919 93.1692C307.362 97.7194 311.923 100.601 317.323 102.111C322.453 103.545 327.074 102.215 331.122 98.8374C332.302 97.8522 333.393 96.76 334.77 95.4913C334.824 96.9495 334.326 97.9489 333.909 98.9424C329.476 108.786 323.561 118.379 314.865 124.998ZM346.369 105.862C347.708 108.814 348.928 111.82 350.18 114.811C350.433 115.417 350.741 116.029 350.687 116.813C349.767 117.074 349.165 116.672 348.545 116.462C344.768 115.186 341.055 113.744 337.44 112.054C336.707 111.711 335.953 111.4 335.184 111.152C333.729 110.682 333.268 111.001 332.971 112.529C332.247 116.245 331.318 119.905 330.073 123.487C329.612 124.814 328.851 125.655 327.462 126.026C323.784 127.009 320.038 127.308 316.333 127.446C315.959 126.822 316.331 126.559 316.63 126.309C327.476 117.274 334.083 105.511 338.519 92.3456C338.582 92.1591 338.687 91.9852 338.787 91.8136C338.816 91.7636 338.895 91.7421 339.008 91.6715C339.696 91.7553 339.849 92.4212 340.129 92.9035C342.542 97.0611 344.387 101.496 346.369 105.862ZM622.421 186.655C632.562 194.134 638.202 205.839 639.069 218.284C639.474 221.507 640.038 224.695 640.958 227.815C642.961 234.604 647.292 239.664 652.916 243.711C659.266 248.247 665.902 250.56 669.206 258.338C671.611 263.594 670.638 267.025 670.396 272.475C670.246 275.507 670.009 278.556 671.447 281.347C671.065 281.677 670.725 281.659 670.393 281.596C662.434 280.088 654.396 278.929 646.688 276.307C643.362 275.176 640.082 273.993 637.182 271.875C634.682 270.051 632.247 270.237 629.885 272.03C620.523 279.218 611.32 270.022 612.071 259.918C612.257 254.783 614.012 250.002 615.621 245.196C615.839 244.547 616.393 244.318 616.885 243.965C621.615 240.565 623.476 235.785 622.846 230.184C622.252 224.9 617.291 222.52 612.566 224.98C611.494 225.538 610.462 226.221 609.533 226.993C608.565 227.796 607.656 227.78 606.532 227.408C597.242 224.523 591.183 216.402 587.912 207.59C587.029 205.255 586.066 202.966 584.717 200.826C582.388 197.133 578.999 196.123 574.934 196.583C565.256 197.674 556.298 208.974 558.294 218.727C558.659 220.512 559.1 222.287 559.616 224.034C561.284 229.676 561.902 235.443 561.388 241.28C561.073 244.865 561.832 248.084 563.458 251.229C565.661 255.489 567.731 259.818 569.883 264.105C570.853 266.038 571.869 267.95 573.273 269.619C575.51 272.279 578.346 273.267 581.773 272.752C583.72 272.46 585.509 271.659 587.424 271.079C588.454 272.497 588.552 274.135 588.851 275.704C588.989 276.425 588.489 276.813 587.956 277.147C583.185 280.134 578.278 282.83 572.709 284.044C566.294 285.363 559.773 286.352 553.892 289.397C552.955 288.931 552.771 287.991 552.3 287.29C544.832 276.019 548.533 267.748 552.269 256.152C554.412 249.603 554.331 243.004 552.894 236.337C552.069 232.509 550.992 228.71 550.694 224.797C548.58 202.592 565.514 189.779 584.3 182.361C596.781 177.479 611.586 178.122 622.421 186.655ZM645.138 323.956C646.151 324.867 646.387 325.947 646.007 327.259C645.347 329.54 644.457 331.731 643.443 333.864C638.222 344.847 632.748 355.698 626.68 366.247C623.583 371.632 620.555 377.069 618.613 383.018C618.534 383.261 618.495 383.56 618.084 383.677C617.717 382.953 617.753 382.146 617.718 381.37C616.31 359.357 620.246 337.562 624.635 316.087C627.249 302.689 628.84 289.134 630.422 275.583C630.744 273.085 632.059 272.302 634.535 272.941C636.118 273.349 637.341 274.176 638.164 275.627C642.698 283.653 646.148 292.283 646.332 301.642C646.225 308.939 639.846 309.448 634.128 310.457C633.103 310.655 631.964 310.734 631.234 311.989C635.835 316.241 640.685 319.686 645.138 323.956ZM576.221 310.874C573.924 310.076 571.616 309.309 569.319 308.514C566.483 307.431 565.746 306.411 566.645 303.592C569.763 293.81 575.249 285.932 584.929 281.627C585.451 281.886 585.236 282.244 585.147 282.526C583.371 288.172 582.592 293.997 582.097 299.861C579.848 326.091 581.611 352.664 589.795 377.818C591.554 383.209 593.005 388.702 594.581 394.153C594.755 394.755 595.09 395.373 594.796 396.025C594.37 396.011 594.255 395.738 594.12 395.518C583.829 378.219 573.026 360.842 566.708 341.611C563.133 329.378 570.771 321.205 578.64 312.951C578.097 311.654 577.196 311.21 576.221 310.874ZM590.398 372.878C585.323 355.951 583.168 338.124 583.107 320.472C583.449 308.477 583.639 296.369 586.366 284.609C586.453 284.227 586.53 283.799 587.143 283.644C586.376 292.173 587.181 300.654 588.478 309.074C589.799 317.901 591.617 326.628 594.21 335.174C595.212 338.475 596.494 341.683 598.797 344.357C599.324 344.969 599.808 345.651 600.751 345.497C600.882 345.392 601.033 345.329 601.082 345.221C603.806 339.117 607.112 333.293 609.643 327.089C614.998 313.881 620.712 300.819 626.029 287.596C626.28 286.992 626.376 286.286 627.224 285.687C625.955 299.209 623.25 312.395 620.645 325.691C616.175 348.005 613.305 371.051 617.079 393.687C616.444 393.903 616.374 393.383 616.176 393.103C614.694 391.007 613.241 388.89 611.756 386.797C608.3 381.925 606.433 376.518 606.196 370.543C606.153 369.466 606.009 368.391 605.877 367.32C605.819 366.848 605.697 366.33 605.056 366.378C604.465 366.422 604.32 366.915 604.262 367.395C603.133 379.564 609.876 387.069 616.298 396.399C617.365 397.936 617.945 399.641 618.179 401.478C618.365 402.942 618.293 403.112 616.92 403.54C615.309 404.043 613.666 404.443 612.049 404.928C608.946 405.86 605.852 406.827 602.751 407.766C602.051 407.978 601.377 408.355 600.507 408.178C599.503 406.763 598.957 405.086 598.623 403.381C596.593 393.019 593.479 382.957 590.398 372.878ZM562.819 228.352C562.054 224.094 560.009 220.132 559.99 215.734C559.713 207.572 569.246 197.798 577.502 198.622C582.182 199.012 584.355 203.747 585.739 207.651C587.605 213.097 590.416 217.964 594.413 222.145C598.057 225.959 602.316 228.622 607.515 229.783C608.956 230.104 609.996 229.963 610.849 228.714C611.347 227.985 612.034 227.433 612.805 226.978C617.797 224.11 622.045 228.575 620.863 233.725C620.334 236.198 619.332 238.445 617.857 240.529C616.696 242.17 615.258 242.508 613.443 242.122C612.529 241.928 611.702 241.365 610.459 241.484C607.973 253.09 604.223 261.042 592.969 266.184C589.329 267.79 585.887 269.906 581.958 270.764C576.545 272.143 574.037 267.708 571.849 263.639C569.354 258.769 566.982 253.836 564.477 248.971C563.174 246.439 563.108 243.805 563.345 241.077C563.715 236.816 563.585 232.568 562.819 228.352ZM596.786 290.88C594.007 285.146 591.823 279.196 590.246 273.023C590.066 272.22 589.822 271.322 589.885 270.509C590.428 269.82 591.161 269.605 591.814 269.272C604.818 262.651 608.148 257.806 612.097 243.979C613.707 244.542 613.76 244.559 613.396 245.714C611.844 250.79 609.918 255.901 610.003 261.286C610.13 269.759 616.834 278.371 625.987 276.418C626.568 276.317 627.122 275.989 627.951 276.197C627.798 277.726 627.281 279.163 626.771 280.6C624.284 287.611 621.219 294.386 618.382 301.255C612.815 314.671 607.272 328.108 600.93 341.182C600.735 341.591 600.637 342.105 599.991 342.287C599.107 342.001 598.856 341.099 598.469 340.353C596.62 336.788 595.518 332.947 594.544 329.083C590.873 313.637 587.326 297.528 589.551 281.599C589.644 281.086 589.564 280.493 590.123 280.159C590.581 280.317 590.623 280.763 590.759 281.114C592.316 285.075 593.784 289.073 595.364 293.022C595.95 294.212 596.027 294.226 597.621 293.473C597.681 292.404 597.164 291.66 596.786 290.88ZM532.167 118.556C532.107 118.162 531.978 117.757 532.253 117.396C532.59 117.207 532.913 117.313 533.23 117.426C548.711 123.067 565.02 126.284 580.205 132.729C581.773 133.463 583.377 134.155 584.64 135.312C584.557 135.726 584.336 135.887 584.095 136.01C580.929 137.613 578.708 140.245 576.52 142.924C569.732 151.237 565.865 160.865 563.738 171.275C563.17 174.056 562.703 176.856 562.461 179.686C562.405 180.342 562.191 181.025 562.585 181.655C564.099 181.774 564.145 181.779 564.315 180.312C566.013 165.899 570.623 151.012 581.332 140.7C582.554 139.516 583.967 138.604 585.482 137.825C586.353 137.376 586.973 137.445 587.558 138.271C588.34 139.377 589.068 140.509 589.7 141.708C595.038 152.203 596.775 164.003 597.687 175.608C597.729 176.073 597.812 176.549 597.607 177.005C597.44 177.242 597.197 177.351 596.921 177.368C591.87 177.688 587.095 179.099 582.45 181.021C560.32 190.089 543.607 205.316 549.687 231.14C551.694 239.641 553.183 246.48 550.446 255.092C549.093 259.691 547.325 264.173 546.452 268.902C545.016 276.187 547.042 283.044 551.027 289.116C552.052 290.89 551.35 292.276 549.286 292.546C545.469 293.047 541.647 293.509 537.834 294.038C525.428 295.788 512.724 296.49 500.255 295.259C499.62 294.361 499.805 293.593 499.796 292.871C499.668 275.377 499.793 257.805 496.517 240.547C491.138 212.207 492.268 183.221 496.522 154.811C496.853 152.47 497.292 150.136 497.465 147.783C497.579 146.237 498.201 145.262 499.558 144.635C500.225 144.326 500.854 143.937 501.688 143.481C506.503 148.489 510.773 154.003 516.01 158.455C516.69 158.44 516.933 158.005 517.195 157.622C521.77 150.906 525.978 143.99 528.776 136.308C530.758 130.642 532.836 124.649 532.167 118.556ZM495.531 335.815C494.898 332.929 492.874 331.069 489.921 330.834C482.904 330.603 475.863 330.861 468.839 330.801C468.114 330.802 467.351 330.983 466.671 330.546C466.154 329.823 466.293 328.983 466.243 328.189C465.863 322.256 465.688 316.311 465.154 310.386C464.873 307.275 464.213 304.26 463.168 301.36C463.696 300.814 464.117 301.232 464.498 301.416C472.035 305.07 480.005 307.371 488.219 308.798C505.63 312.061 523.464 310.587 540.802 307.536C541.316 307.451 541.853 307.252 542.509 307.646C542.716 308.78 542.279 309.955 542.169 311.135C541.556 317.727 541.168 324.341 540.315 330.91C538.177 348.105 533.633 364.836 528.527 381.358C527.861 383.449 526.735 384.921 524.908 386.225C515.016 393.288 503.832 397.72 492.736 402.345C492.208 402.565 491.646 402.915 491.02 402.659C490.628 402.143 490.843 401.597 490.897 401.075C492.134 389.108 492.663 377.09 493.505 365.095C494.124 356.266 494.914 347.45 495.66 338.63C495.742 337.673 495.736 336.746 495.531 335.815ZM444.973 307.743C443.219 315.591 440.859 322.799 438.908 330.716C426.514 330.912 414.06 330.803 401.62 330.766C401.441 329.905 402.012 329.64 402.351 329.282C410.221 320.871 418.18 312.236 422.986 301.639C424.005 299.5 423.901 298.834 422.22 297.155C418.49 293.431 414.734 289.734 411.001 286.014C408.235 283.258 406.312 279.955 404.784 276.414C405.049 276.083 405.301 276.246 405.505 276.402C412.103 281.453 419.66 284.13 427.756 285.594C433.271 286.591 438.777 287.732 444.044 289.687C446.997 290.784 450.076 291.552 452.834 293.204C458.798 296.775 462.294 301.899 463.159 308.821C463.945 315.409 463.785 322.045 464.328 328.647C464.385 329.242 464.5 329.853 464.169 330.668H441.405C442.874 322.441 445.563 314.659 447.145 306.641C445.502 306.184 445.265 306.272 444.973 307.743ZM364.14 295.828C366.591 307.67 369.41 319.672 375.496 330.238C374.202 330.792 365.972 330.951 362.284 330.482C362.204 329.181 361.062 328.442 360.326 327.415C354.525 319.298 348.627 311.185 344.088 302.273C343.169 300.759 343.464 299.541 344.685 298.316C345.926 297.071 347.141 295.799 348.536 294.736C354.231 290.398 358.673 285.068 361.578 278.494C361.767 278.065 362.027 277.666 362.279 277.268C362.337 277.176 362.497 277.149 362.879 276.957C362.879 277.471 362.909 277.806 362.875 278.135C362.251 284.108 362.911 289.98 364.14 295.828ZM350.63 230.756C352.202 228.648 353.49 226.332 354.971 224.153C358.662 218.725 360.844 212.779 361.311 206.216C361.343 205.781 361.181 205.258 361.646 204.933C361.732 204.944 361.828 204.928 361.854 204.964C365.611 210.133 371.046 213.018 376.621 215.635C383.478 218.823 390.497 221.663 397.368 224.825C398.186 225.18 398.61 225.659 398.698 226.624C398.863 228.434 399.21 230.229 399.506 232.027C399.651 232.91 399.903 233.734 400.838 234.152C401.552 234.472 401.992 235.054 402.227 235.806C402.353 236.208 402.596 236.528 403.257 236.531C404.257 234.552 404.107 233.488 402.367 232.399C400.887 231.472 400.51 230.159 400.536 228.608C400.554 227.478 401.082 227.03 402.192 227.058C403.049 227.079 403.74 227.481 404.379 228.007C407.849 230.863 408.747 236.609 406.324 240.367C405.899 241.026 405.431 241.445 404.565 241.511C402.537 241.665 402.541 241.719 401.998 243.86C401.655 242.941 401.84 242.243 401.81 241.578C401.777 240.836 401.796 240.091 401.754 239.35C401.696 238.349 401.362 237.624 400.049 237.924C399.622 238.935 399.812 240.021 399.786 241.072C399.692 244.865 399.44 248.639 398.334 252.293C396.051 259.836 391.389 265.657 385.054 270.17C381.54 272.673 377.667 272.915 373.667 271.36C368.786 269.452 364.911 265.746 361.114 262.261C358.694 260.008 357.222 257.089 355.959 254.088C353.546 248.355 351.635 242.441 349.812 236.5C349.194 234.487 349.26 232.593 350.63 230.756ZM349.747 243.256C347.124 241.278 345.926 237.693 347.148 235.48C347.831 236.441 349.613 241.774 349.747 243.256ZM373.04 320.459C369.23 310.021 366.421 299.323 365.023 288.29C364.293 282.115 365.142 275.913 365.37 269.717C366.255 269.637 366.711 270.216 367.264 270.55C369.585 271.953 372.008 273.115 374.594 273.957C382.986 276.703 390.297 269.563 394.903 263.373C395.33 262.786 395.592 262.057 396.621 261.469C396.737 266.855 398.06 271.829 398.935 276.876C399.318 279.09 399.119 281.329 398.947 283.55C398.021 295.52 395.662 307.211 392.124 318.679C390.939 322.52 389.183 326.072 387.155 329.518C386.651 330.375 386.045 330.759 385.04 330.719C383.353 330.652 381.66 330.64 379.974 330.709C378.897 330.752 378.238 330.338 377.651 329.454C375.772 326.626 374.203 323.643 373.04 320.459ZM389.852 328.764C392.118 324.812 393.634 320.57 394.926 316.219C397.991 305.683 403.214 282.694 400.074 272.58C399.935 272.134 399.875 271.661 399.809 271.196C399.795 271.1 399.918 270.984 399.997 270.845C400.739 271.031 400.986 271.72 401.341 272.256C402.126 273.439 402.788 274.698 403.278 276.032C406.527 285.192 414.307 291.213 420.913 297.89C422.372 299.335 422.352 299.363 421.491 301.196C419.061 306.365 415.777 310.971 412.23 315.419C408.266 320.392 403.874 324.969 399.501 329.57C398.631 330.485 397.728 330.855 396.48 330.811C394.128 330.729 391.771 330.787 389.374 330.787C389.138 329.764 389.562 329.269 389.852 328.764ZM423.804 248.516C430.905 250.934 438.17 251.979 445.906 249.968C446.633 262.749 446.598 275.244 446.354 287.549C445.674 288.158 445.229 287.816 444.812 287.684C439.661 286.055 434.434 284.725 429.133 283.678C427.264 283.309 427.255 283.301 427.057 281.551C425.847 270.889 424.641 260.225 423.436 249.562C423.406 249.295 423.372 249.024 423.804 248.516ZM422.607 244.895C422.333 241.824 421.994 238.752 422.059 235.358C430.217 237.765 438.302 238.746 446.837 237.103C446.801 240.506 446.535 243.382 446.239 246.255C446.103 247.576 445.128 247.941 443.993 248.194C437.296 249.764 430.513 248.675 424.14 246.346C423.424 246.109 422.682 245.737 422.607 244.895ZM448.36 257.652C448.028 250.82 448.478 244.03 448.872 237.228C448.901 236.717 448.786 236.143 449.489 235.468C450.799 240.27 451.73 244.932 452.224 249.706C452.585 253.203 451.833 256.526 451.34 259.921C450.105 268.4 449.741 276.484 448.789 285.074C448.153 283.902 448.316 283.105 448.332 282.351C448.503 274.118 448.76 265.879 448.36 257.652ZM541.796 305.056C529.276 307.613 516.522 309.01 503.742 308.333C489.443 307.632 475.622 304.825 462.677 298.443C462.073 298.146 461.447 297.893 460.992 297.353C458.336 294.202 454.998 291.929 451.432 289.95C451.137 289.787 450.852 289.605 450.576 289.412C450.471 289.339 450.403 289.211 450.237 289.009C450.505 286.763 450.862 284.449 451.367 282.108C452.596 282.303 453.452 283 454.37 283.535C461.218 287.533 468.32 290.969 475.977 293.124C487.822 296.462 500.131 297.834 512.412 298.101C524.411 298.248 535.609 296.431 547.567 294.78C545.56 297.82 544.52 300.731 543.612 303.69C543.32 304.637 542.613 304.905 541.796 305.056ZM495.97 142.069C488.026 135.994 482.682 128.007 478.786 118.755C479.56 118.797 479.787 119.257 480.108 119.564C486.738 125.72 495.52 128.627 503.797 123.89C511.502 119.82 516.503 112.6 520.271 104.965C520.663 104.198 520.926 103.344 521.663 102.608C522.095 102.96 522.003 103.444 522.03 103.86C522.272 107.706 521.664 111.421 520.021 114.904C515.867 123.711 510.129 131.286 502.384 137.276C500.996 138.349 499.67 139.501 498.306 140.606C497.682 141.112 497.123 141.719 495.97 142.069ZM523.629 110.457C523.925 109.319 523.828 108.072 524.424 107.001C524.659 107.091 524.833 107.102 524.895 107.191C528.662 112.545 530.991 118.303 529.846 125.02C529.22 128.69 528.262 132.281 526.896 135.738C524.182 142.604 520.707 149.079 516.533 155.173C516.389 155.382 516.185 155.55 515.881 155.873C511.301 150.916 506.778 146.021 502.293 141.167C502.628 139.976 503.537 139.543 504.238 138.962C513.332 131.646 520.474 121.783 523.629 110.457ZM461.819 61.8043C461.185 57.0404 460.839 51.1863 465.025 47.8913C465.545 47.4599 466.061 47.02 466.61 46.6291C469.131 44.8364 471.116 42.5752 472.653 39.8972C473.157 39.0207 473.762 38.2028 474.325 37.3608C475.408 35.7382 476.873 34.5947 478.67 33.8477C483.404 31.9966 488.838 30.1353 493.791 32.1811C497.268 33.5668 500.82 33.9269 504.522 33.5804C507.47 33.3045 510.289 33.9299 512.944 35.293C516.891 37.3194 520.008 40.261 522.396 43.9545C526.236 50.432 525.421 61.9123 524.509 69.2017C524.34 70.541 524.167 71.8826 523.916 73.2083C523.784 73.9092 523.741 74.69 522.95 75.34C522.413 74.6049 522.39 73.8476 522.252 73.1268C521.59 69.6466 520.439 66.3442 518.611 63.3009C515.15 57.5379 508.675 56.096 503.066 59.8041C501.323 60.9569 499.659 62.2319 497.715 63.0687C488.456 67.1936 476.057 63.822 468.986 56.9695C468.111 56.0764 467.08 56.306 466.592 57.4558C466.412 57.8801 466.366 58.3694 466.305 58.8352C465.658 63.7372 465.39 68.6505 465.856 73.5879C465.909 74.1511 466.127 74.746 465.65 75.54C464.03 70.9163 462.414 66.5115 461.819 61.8043ZM466.802 92.5911C463.963 89.092 462.191 85.2116 462.556 80.5789C462.596 80.0041 462.678 79.2508 463.388 79.1621C463.838 79.1028 464.203 79.3098 464.395 79.6822C465.876 82.6357 466.246 85.9821 466.837 89.1927C467.038 90.3703 467.543 91.494 467.548 92.9913C467.131 92.7733 466.911 92.7266 466.802 92.5911ZM470.496 96.9677C469.553 91.866 468.41 86.845 467.584 81.7191C469.116 81.0479 468.882 79.7775 468.561 78.4846C467.168 72.8747 467.696 67.2058 468.064 61.5452C468.097 61.0321 468.121 60.4607 468.54 60.027C469.362 60.0048 469.877 60.6174 470.479 61.0135C479.875 67.3102 492.974 69.5724 502.661 62.6871C503.559 62.0878 504.471 61.5068 505.394 60.9456C511.133 57.6323 515.979 61.7771 517.922 66.2952C519.408 69.5068 520.358 72.8694 520.774 76.3868C520.861 77.1202 520.996 77.8615 521.225 78.5618C521.754 80.1833 523.02 80.5192 524.317 79.4188C525.293 78.5545 525.666 77.2407 526.384 76.1916C527.174 75.0491 528.237 75.0816 528.928 76.2808C529.586 77.4226 529.798 78.7099 529.773 79.9972C529.713 83.1528 528.951 86.1487 527.42 88.9184C526.935 89.7966 526.315 90.6045 525.372 90.95C524.737 90.787 524.622 90.2736 524.369 89.893C523.838 88.9942 522.747 89.2987 522.737 90.3123C522.55 92.974 521.584 95.4446 520.809 97.9529C517.525 108.678 509.047 121.421 497.423 123.905C488.871 125.324 480.215 118.348 476.034 111.455C473.212 107.008 471.502 102.118 470.496 96.9677ZM470.498 117.581C471.787 116.222 472.942 114.735 474.403 113.01C478.402 123.472 483.236 133.157 491.288 141.045C486.324 145.989 482.325 151.539 477.09 156.249C475.701 154.387 474.953 152.586 474.279 150.752C470.719 141.13 469.656 130.879 469.381 120.686C469.359 119.463 469.633 118.493 470.498 117.581ZM424.908 141.14C425.757 138.273 426.762 135.528 428.897 133.274C430.605 131.472 432.499 130.043 434.763 129.045C440.221 126.641 445.929 124.985 451.649 123.377C456.069 122.134 460.522 121.012 464.966 119.856C465.606 119.69 466.253 119.433 467.103 119.655C467.752 131.689 468.753 144.081 474.013 155.128C474.495 156.099 475.018 157.047 475.809 157.81C476.965 158.925 477.596 158.965 478.7 157.779C481.324 154.96 484.008 152.196 486.482 149.24C487.999 147.427 489.448 145.551 491.196 143.943C491.538 143.628 491.846 143.244 492.355 143.179C492.488 143.209 492.634 143.21 492.743 143.273C494.861 144.496 495.432 146.23 495.109 148.686C492.11 171.392 489.527 194.237 491.327 217.163C491.913 225.95 493.394 234.603 494.827 243.264C496.531 253.558 497.346 263.916 497.466 274.336C497.537 280.485 497.55 286.635 497.573 292.785C497.575 293.446 497.724 294.14 497.161 295.021C479.862 292.816 467.518 289.6 452.708 279.963C451.852 279.456 451.534 278.797 451.641 277.79C452.392 270.741 452.613 263.626 454.111 256.671C454.784 253.543 454.37 250.47 453.979 247.401C452.985 239.599 451.017 232.057 448.127 224.71C438.503 201.384 432.08 176.815 430.156 151.607C429.782 147.435 429.431 143.26 429.415 139.067C429.411 138.149 429.118 137.501 428.085 137.338C427.27 138.073 427.431 139.06 427.439 139.972C427.487 145.72 427.848 151.449 428.554 157.156C430.274 172.136 432.961 186.988 437.766 201.307C440.463 210.025 443.879 218.487 446.826 227.113C447.759 229.484 447.056 231.779 446.717 234.1C446.609 234.839 446.007 235.034 445.383 235.125C437.874 236.535 430.231 235.839 423.001 233.414C421.855 233.035 421.42 232.415 421.302 231.259C418.115 201.269 416.212 170.433 424.908 141.14ZM329.813 246.514C330.179 245.791 330.523 245.05 330.955 244.367C334.308 239.08 335.64 233.202 336.079 227.055C336.671 215.115 337.912 202.33 345.981 192.857C349.055 189.208 352.831 186.561 357.625 185.603C358.697 185.389 359.788 185.222 360.844 185.458C361.849 185.683 362.516 185.443 363.105 184.624C371.054 173.816 387.203 177.318 394.596 186.633C397.833 190.4 400.444 194.586 402.642 199.013C407.359 208.516 411.652 218.22 416.078 227.86C418.529 233.198 419.496 238.938 420.492 244.669C422.369 256.076 423.341 267.598 424.82 279.057C424.941 280.18 425.136 281.323 424.835 282.396C424.202 282.735 423.673 282.494 423.17 282.37C413.258 280.075 405.514 275.308 399.942 266.704C399.202 265.616 398.927 264.394 398.914 263.059C398.878 259.433 399.295 255.936 401.011 252.646C402.168 250.428 402.897 248.019 403.554 245.604C403.878 244.414 404.402 243.587 405.737 243.259C407.214 242.897 408.025 241.652 408.668 240.353C411.367 234.936 409.016 227.678 403.54 225.043C397.193 222.886 391.361 219.546 385.156 217.056C380.079 215.019 375.05 212.848 370.333 210.036C366.102 207.514 362.982 204.11 361.846 199.177C361.399 197.267 361.285 195.299 361.22 193.341C361.18 192.74 360.884 192.237 360.289 192.174C358.804 192.026 359.027 194.627 359.176 195.755C359.965 202.153 359.446 208.436 357.48 214.584C356.378 218.03 354.578 221.129 352.544 224.087C350.246 227.427 347.949 230.776 345.474 233.984C343.991 235.908 343.919 237.777 344.849 239.844C345.953 242.3 347.608 244.346 349.757 245.936C350.516 246.497 350.993 247.12 351.314 247.963C353.346 253.173 355.047 258.632 358.751 262.951C359.616 264.008 360.58 264.941 361.742 265.658C363.607 266.776 362.588 268.568 362.974 270.281C363.428 272.44 362.411 273.87 360.877 275.165C359.582 276.259 358.232 277.282 356.794 278.16C350.251 282.153 343.363 285.409 336.018 287.652C335.464 287.821 334.907 288.196 334.243 287.899C333.898 286.908 334.144 285.902 334.282 284.912C334.865 280.718 334.339 276.709 332.498 272.866C327.949 263.396 324.701 256.703 329.813 246.514ZM334.828 290.384C342.847 288.01 350.334 284.49 357.514 280.258C357.972 279.987 358.377 279.599 358.98 279.548C359.435 280.126 358.914 280.546 358.687 280.951C356.319 285.18 353.226 288.818 349.588 292.004C348.115 293.294 346.631 294.574 345.161 295.868C342.854 297.928 341.124 299.465 342.681 302.73C346.992 312.161 353.189 320.508 359.25 328.86C359.59 329.332 360.148 329.698 360.129 330.389C359.785 330.88 359.272 330.71 358.834 330.711C349.377 330.737 339.921 330.754 330.464 330.762C328.702 330.764 328.665 330.754 328.068 328.975C326.841 325.32 325.357 321.773 323.687 318.302C323.304 317.508 322.96 316.56 321.537 317.532C322.894 321.949 324.925 326.074 326.15 330.7C320.974 331.226 315.965 329.94 311.2 331.438C310.863 331.037 310.837 330.701 310.828 330.362C310.643 322.708 311.157 315.105 312.573 307.578C313.575 302.253 316.57 298.351 321.317 295.804C325.616 293.499 330.165 291.764 334.828 290.384ZM328.799 285.5C328.802 285.241 328.881 284.983 328.915 284.788C329.095 284.66 329.195 284.53 329.309 284.516C331.884 284.212 332.125 284.451 331.888 287.045C331.678 289.345 331.436 289.572 328.793 289.714C328.793 288.185 328.786 286.842 328.799 285.5ZM310.068 284.679C311.342 284.245 323.697 284.033 326.337 284.418C326.577 285.507 326.54 286.49 326.346 287.76C321.02 288.321 315.684 288.099 310.325 288.298C309.997 286.92 310.022 285.794 310.068 284.679ZM307.438 284.377C308.115 286.369 307.489 288.37 308.004 290.417C314.188 290.492 320.324 290.377 326.479 290.072C326.688 290.981 326.023 291.077 325.588 291.294C324.081 292.046 322.542 292.735 321.035 293.487C314.194 296.799 310.936 302.683 309.943 310.02C309.917 310.122 309.753 310.189 309.414 310.467C305.37 301.764 302.768 292.498 297.507 284.04C301.053 283.799 304.207 284.438 307.438 284.377ZM244.959 259.992C253.605 273.977 256.074 287.605 257.475 303.716C257.539 304.356 257.788 305.03 257.304 305.903C248.568 295.845 237.178 297.754 227.06 304.389C226.496 304.718 226.011 305.202 225.265 305.336C226.435 304.105 227.542 302.911 228.681 301.75C229.815 300.594 230.981 299.469 232.135 298.332C241.178 289.632 241.428 276.357 239.761 264.721C239.657 264.101 239.52 263.508 240.094 263.051C241.631 261.828 242.409 260.114 243.083 258.249C244.145 258.455 244.534 259.283 244.959 259.992ZM194.766 249.541C194.525 247.752 194.331 245.956 194.117 244.172C195.189 243.7 196.143 243.905 197.072 243.877C198.042 243.849 198.258 244.658 198.544 245.322C203.861 257.468 214.247 266.172 227.7 267.033C230.374 267.269 232.937 266.68 235.467 265.88C236.096 265.681 236.673 265.24 237.475 265.402C237.821 266.37 237.673 267.376 237.434 268.336C236.124 273.398 234.989 278.731 231.685 282.932C228.736 286.763 224.9 289.022 220.085 289.648C210.137 291.101 200.546 288.923 194.397 280.465C191.779 277.018 189.842 273.298 189.391 268.901C189.207 267.114 189.291 265.54 190.983 264.446C191.613 264.038 192.004 263.37 192.333 262.696C194.365 258.538 195.392 254.195 194.766 249.541ZM191.18 258.897C190.375 260.145 189.562 261.389 188.753 262.635C187.273 264.912 186.986 267.4 187.402 270.03C189.249 281.699 199.431 291.144 211.166 292.072C224.092 293.535 233.038 288.897 237.369 276.314C237.551 275.768 237.561 275.12 238.111 274.756C238.205 274.806 238.297 274.832 238.297 274.859C238.368 281.832 237.225 288.45 232.719 294.102C230.99 296.271 229.215 298.396 227.247 300.352C223.891 303.688 220.533 307.02 217.172 310.349C216.744 310.773 216.375 311.276 215.725 311.502C199.822 303.633 188.26 288.823 186.034 271.116C184.887 264.635 185.266 258.687 191.645 255.242C191.822 255.144 192.01 255.056 192.204 255.006C192.318 254.976 192.454 255.028 192.765 255.065C192.648 256.522 191.938 257.72 191.18 258.897ZM190.573 238.972C187.866 236.008 185.605 232.742 183.855 229.133C183.074 227.524 182.708 225.808 183.062 224.015C183.519 221.702 185.237 220.944 187.291 222.131C188.493 222.826 189.35 223.877 190.098 225.007C190.992 226.359 191.814 227.759 192.684 229.127C193.042 229.69 193.302 230.339 194.035 230.76C194.725 230.566 195.237 230.272 195.678 229.685C194.14 227.424 192.849 224.975 191.119 222.813C190.357 221.861 189.531 220.967 188.462 220.341C185.169 218.414 181.517 220.204 181.111 223.98C180.913 225.822 181.248 227.602 181.928 229.336C183.597 233.744 186.48 237.151 189.449 240.756C188.732 240.891 188.396 240.55 188.052 240.292C181.97 235.811 179.381 228.622 179.581 221.267C179.521 218.182 178.926 215.253 177.466 212.491C176.297 210.279 175.357 207.954 174.927 205.466C173.634 198.557 176.645 191.682 181.966 187.266C184.078 185.477 185.604 183.298 186.656 180.754C187.224 179.382 187.908 178.056 188.456 176.677C193.663 163.279 212.776 162.044 224.915 164.624C230.478 166.006 235.007 168.973 237.964 173.862C239.667 176.678 241.642 178.265 245.017 178.214C246.817 178.187 248.616 178.734 250.367 179.272C251.214 179.533 252.016 179.88 252.747 180.373C254.148 181.32 254.38 181.939 254.035 183.625C253.819 184.683 253.604 185.741 253.411 186.804C253.364 187.062 253.404 187.336 253.404 187.514C253.721 188.159 254.302 188.239 254.783 188.442C257.198 189.462 258.92 191.176 260.055 193.529C261.032 195.555 261.784 197.649 261.922 199.904C262.124 203.226 261.192 204.482 257.99 205.229C255.133 205.851 251.912 205.884 249.111 206.12C248.311 205.529 248.335 204.792 248.205 204.158C247.6 201.18 246.971 198.203 246.512 195.202C246.326 193.989 245.777 193.592 244.675 193.544C243.123 193.477 241.576 193.292 240.024 193.258C234.554 193.205 229.076 192.93 223.609 193.097C220.331 193.246 218.433 194.836 217.251 197.87C214.925 203.676 210.198 206.109 204.392 207.023C202.86 207.264 201.305 207.34 199.797 207.762C192.482 209.873 196.034 220.633 197.816 225.699C197.906 225.95 198.011 226.209 198.398 226.312C199.246 226.181 199.317 225.572 199.156 224.834C198.538 221.587 197.434 218.421 197.344 215.091C197.296 211.397 198.542 209.906 202.147 209.313C204.212 208.973 206.286 208.687 208.312 208.135C212.534 206.917 216.847 204.546 218.511 200.246C220.411 195.597 221.172 195.078 226.258 195.168C231.662 195.263 237.065 195.445 242.468 195.626C244.19 195.683 244.286 195.757 244.629 197.413C245.763 202.901 247.044 208.36 247.914 213.903C248.2 215.718 247.999 217.387 247.227 219.027C246.566 220.432 245.905 221.839 245.294 223.266C244.011 226.27 243.59 229.36 244.415 232.574C244.891 234.43 244.916 236.307 244.622 238.204C243.7 244.148 242.482 250.024 241.042 255.868C239.141 263.58 233.592 265.15 228.06 264.834C215.155 264.446 204.744 255.212 199.678 243.741C199.127 242.436 198.212 241.738 196.868 241.905C194.115 242.245 192.272 240.831 190.573 238.972ZM178.628 259.648C179.85 256.917 181.698 254.746 184.189 253.096C186.391 251.637 188.632 250.261 191.134 249.363C191.574 249.205 191.991 248.973 192.625 249.1C193.407 251.622 193.328 251.863 191.245 253.103C189.317 254.251 187.54 255.573 186.083 257.306C184.399 259.309 183.583 261.609 183.62 264.214C183.543 278.402 189.196 292.558 199.384 302.539C199.528 302.674 199.694 302.813 199.614 303.198C198.999 303.434 198.438 303.015 197.859 302.811C194.729 301.713 191.583 300.697 188.22 300.614C182.295 300.469 177.763 302.835 174.797 308.036C174.633 308.325 174.516 308.649 174.022 308.885C173.642 308.441 173.616 307.839 173.557 307.29C172.025 291.337 172.068 274.572 178.628 259.648ZM108.453 424.649C107.105 424.852 105.78 424.832 104.499 424.672C103.855 424.029 103.934 423.233 103.793 422.53C99.0754 397.583 94.9376 372.53 90.8054 347.482C88.5247 335.304 92.2892 320.934 104.29 315.371C106.83 314.101 109.468 313.058 112.118 312.049C112.611 311.861 113.119 311.62 113.683 311.739C114.118 314.297 113.828 314.887 111.566 315.68C101.746 318.769 95.568 326.126 94.4298 336.368C93.8223 341.128 94.5762 345.805 95.3616 350.469C99.5342 374.757 103.861 399.024 108.54 423.218C108.624 423.612 108.717 424.012 108.453 424.649ZM111.005 424.758C110.385 423.974 110.331 423.148 110.177 422.371C105.909 400.009 102.13 377.555 98.2125 355.129C97.2962 349.739 96.1583 344.365 96.2839 338.851C96.4087 328.282 102.924 320.217 113.145 317.179C110.015 344.267 109.145 371.413 109.923 398.644C110.067 403.167 110.374 407.689 110.736 412.201C111.098 416.707 111.902 421.088 115.898 424.34C114.069 425.048 112.501 424.63 111.005 424.758ZM159.099 439.507C158.769 439.882 158.363 439.711 157.986 439.613C148.433 437.125 139.021 434.209 129.954 430.273C126.418 428.739 123.07 426.855 119.832 424.742C114.921 421.536 112.82 416.959 112.559 411.248C111.428 389.982 111.71 368.679 112.888 347.422C113.645 333.269 114.572 319.046 117.664 305.179C121.256 287.334 137.384 279.973 152.872 274.194C159.03 271.967 165.247 269.9 171.447 267.787C172.07 267.575 172.689 267.228 173.385 267.356C173.882 267.78 173.583 268.259 173.475 268.674C170.563 279.861 170.263 291.233 171.01 302.687C171.212 305.799 171.66 308.865 172.393 311.891C172.552 312.546 172.676 313.227 173.086 313.782C173.701 314.614 174.557 314.536 174.955 313.575C175.342 312.642 175.564 311.64 175.951 310.707C178.665 303.982 185.234 301.167 192.083 303.25C199.838 305.2 207.016 309.071 213.898 312.974C213.873 313.327 213.908 313.481 213.849 313.581C206.083 327.2 208.608 346.728 209.033 361.959C209.852 379.034 210.758 396.106 211.673 413.176C211.708 413.839 211.882 414.519 211.51 415.286C210.154 415.908 208.584 415.925 207.073 416.178C205.942 416.368 204.791 416.438 203.652 416.578C202.587 416.71 201.657 416.462 200.922 415.736C200.684 414.796 202.299 416.024 202.821 414.785C203.146 414.043 202.728 413.461 202.227 412.995C201.84 412.634 201.368 412.336 200.887 412.107C196.806 410.157 192.708 408.243 188.629 406.29C186.806 405.417 184.826 404.963 182.842 404.207C182.939 402.04 183.037 399.964 183.123 397.887C183.154 397.146 183.208 396.405 182.98 395.675C182.28 393.432 179.928 392.026 177.542 392.484C176.34 392.714 175.227 393.202 174.165 393.819C172.433 394.826 171.52 396.144 171.825 398.306C172.115 400.368 172.067 402.476 171.931 404.816C167.884 406.292 163.93 407.387 160.121 409.318C158.765 410.034 157.701 410.992 156.99 412.376C155.941 414.415 154.578 416.291 153.787 418.467C153.056 420.478 153.235 420.864 155.253 421.624C155.694 421.791 156.146 421.932 156.596 422.077C157.24 422.286 157.598 422.707 157.666 423.397C158.185 428.639 158.715 433.88 159.231 439.122C159.243 439.24 159.149 439.369 159.099 439.507ZM174.21 403.337C174.162 401.721 174.235 400.097 174.101 398.489C174.01 397.394 174.066 396.524 175.128 395.896C176.491 395.091 177.859 394.381 179.498 394.798C180.049 394.938 180.331 395.443 180.534 395.965C180.76 396.542 180.812 397.145 180.803 397.752C180.763 400.38 180.745 403.008 180.648 405.633C180.599 406.956 180.387 407.151 179.075 407.203C177.536 407.263 175.991 407.25 174.416 406.738C174.069 405.488 174.241 404.406 174.21 403.337ZM176.029 409.216C177.245 409.236 178.463 409.179 179.675 409.25C180.913 409.324 181.776 408.988 182.053 407.656C182.118 407.346 182.358 407.073 182.5 406.813C184.157 406.896 190.974 409.446 193.248 410.81C193.164 411.502 192.569 411.343 192.163 411.416C185.749 412.567 179.286 412.83 172.791 412.435C169.691 412.246 166.594 412.012 163.498 411.771C162.927 411.726 162.264 411.919 161.665 411.132C164.811 409.346 168.167 408.298 171.645 407.247C172.609 409.121 174.314 409.189 176.029 409.216ZM156.426 419.55C156.696 417.35 157.975 415.599 159.161 413.82C159.573 413.201 160.261 413.492 160.851 413.557C172.309 414.806 183.968 415.408 195.324 413.028C196.515 412.783 197.25 413.212 197.866 414.159C198.894 415.737 199.505 417.562 200.986 419.107C191.425 422.618 163.348 422.865 156.426 419.55ZM196.964 428.464C195.678 440.491 194.293 452.508 193.057 464.54C192.817 466.876 191.856 468.206 189.633 468.946C181.776 471.562 173.957 471.295 166.117 468.931C165.09 468.622 164.556 468.067 164.442 466.952C163.012 453.856 161.617 440.755 160.249 427.651C160.086 426.117 159.947 424.588 160.03 422.817C172.546 424.856 184.9 424.534 197.468 422.558C197.58 424.75 197.162 426.604 196.964 428.464ZM256.399 438.403C255.223 437.398 254.183 436.231 253.107 435.112C251.891 433.846 250.746 432.509 249.493 431.282C245.862 427.729 241.437 425.945 236.41 425.567C234.525 425.425 232.641 425.199 230.746 425.322C230.028 425.369 229.217 425.333 229.045 426.432C229.723 427.14 230.623 427.084 231.466 427.16C234.088 427.398 236.704 427.644 239.287 428.214C246.572 429.616 250.988 435.948 255.691 441.083C255.995 441.418 256.379 441.771 256.159 442.353C255.351 442.965 254.809 442.297 254.221 441.905C252.31 440.632 250.394 439.366 248.501 438.066C244.972 435.643 241.044 434.327 236.832 433.754C232.279 433.162 227.719 432.602 223.257 431.477C222.747 431.409 222.291 431.533 222.096 432.056C221.898 432.584 222.16 432.969 222.614 433.232C223.384 433.676 224.218 433.934 225.092 434.076C229.09 434.724 233.082 435.416 237.087 436.011C242.106 436.757 246.406 439.092 250.487 441.928C251.14 442.382 251.817 442.868 252.135 443.769C251.456 444.764 250.414 444.633 249.435 444.512C246.822 444.191 244.185 443.898 241.67 443.115C238.627 442.168 235.564 442.217 232.453 442.432C220.514 443.474 210.793 443.905 199.16 440.146C198.773 440.032 198.382 439.91 197.977 439.276C198.556 433.62 199.16 427.722 199.743 422.029C200.318 421.308 200.958 421.28 201.53 421.122C201.987 420.996 202.586 420.995 202.792 420.571C203.295 419.535 204.236 419.459 205.159 419.293C210.941 418.253 216.694 417.074 222.421 415.769C224.514 415.292 226.577 415.307 228.631 415.878C232.598 416.982 236.56 418.101 240.515 419.245C243.371 420.071 245.759 421.672 247.871 423.741C251.673 427.375 255.592 430.951 258.39 435.474C259.49 436.982 258.462 440.169 256.399 438.403ZM273.538 434.865C269.958 437.92 265.71 438.817 260.858 438.697C261.482 435.731 259.704 433.977 258.26 431.909C256.142 428.874 253.638 426.286 250.896 423.866C249.832 422.928 248.769 421.978 247.805 420.941C246.193 419.205 244.255 418.053 241.998 417.402C237.846 416.203 233.693 415.011 229.541 413.814C226.745 413.007 223.958 412.945 221.154 413.81C220.594 413.983 220.022 414.274 219.389 414.135C219.37 413.532 219.887 413.505 220.247 413.347C220.988 413.021 221.741 412.721 222.499 412.435C230.092 409.569 228.858 409.688 236.747 411.773C241.517 413.034 246.134 414.781 250.714 416.609C251.131 416.776 251.587 416.896 251.975 417.122C252.616 417.306 254.539 417.471 254.99 417.659C257.502 418.704 260.111 419.219 262.825 419.526C268.41 420.155 273.946 425.849 274.697 431.371C274.887 432.771 274.57 433.984 273.538 434.865ZM280.837 433.948C279.971 436.286 278.849 436.798 276.123 436C277.42 431.06 276.119 426.699 272.906 422.823C269.717 418.977 265.137 417.979 260.561 416.814C262.716 415.533 264.677 414.132 267.427 414.572C277.483 416.177 281.303 423.365 281.388 430.976C281.399 432.003 281.191 432.991 280.837 433.948ZM317.762 423.142C306.837 428.97 294.846 431.941 282.612 435.456C284.118 429.713 283.354 424.505 280.306 419.882C277.243 415.234 272.371 413.23 266.805 412.123C275.037 405.46 282.823 399.181 291.016 392.627C293.613 390.553 296.359 388.716 299.559 387.67C299.935 387.548 300.353 387.463 300.64 387.019C300.963 384.643 297.394 386.205 296.33 386.738C295.359 387.202 294.47 387.838 293.351 388.147C293.165 387.993 292.91 387.861 292.769 387.652C287.372 379.687 283.273 371.113 281.307 361.67C279.216 351.623 280.378 341.775 283.887 332.171C285.533 327.664 287.357 323.228 289.213 318.805C289.552 317.995 289.871 317.176 290.158 316.347C290.319 315.881 290.342 315.397 289.774 315.142C289.177 314.873 288.914 315.271 288.679 315.71C281.946 329.621 276.133 344.323 278.71 360.052C278.806 360.791 278.862 361.504 278.691 362.258C276.811 370.495 275.584 378.854 274.101 387.165C273.081 392.886 271.989 398.594 271.572 404.401C271.505 405.331 271.186 406.063 270.443 406.668C267.191 409.313 263.942 411.958 260.264 414.01C257.564 415.644 254.923 416.121 251.859 414.823C245.537 412.269 239.08 410.059 232.434 408.447C230.256 407.919 228.166 407.967 226.084 408.827C222.196 410.399 218.262 412.102 214.316 413.483C213.483 412.809 213.71 412.007 213.673 411.302C212.642 390.784 211.545 370.269 210.565 349.749C210.251 342.925 210.315 336.097 211.168 329.305C211.59 325.947 212.397 322.666 213.483 319.457C214.349 316.899 215.805 314.808 217.97 313.11C222.831 309.299 227.974 305.967 233.571 303.353C242.85 298.789 252.886 301.036 257.924 310.447C258.27 311.088 258.496 311.826 259.166 312.253C260.409 312.373 260.3 310.942 260.248 310.102C258.428 295.067 257.961 279.011 250.166 265.592C249.786 264.96 249.471 264.289 249.146 263.674C249.366 263.303 249.609 263.341 249.86 263.479C256.095 266.886 262.816 268.824 269.751 270.169C274.278 271.047 278.588 272.595 282.767 274.572C291.582 278.632 297.619 286.163 300.883 295.162C303.126 301.327 305.839 307.293 308.447 313.303C308.894 314.333 309.05 315.353 308.98 316.453C308.644 321.715 308.439 326.982 308.621 332.256C308.647 333.039 308.424 333.715 308.044 334.368C306.904 336.325 306.683 338.433 306.981 340.64C310.567 367.356 314.194 394.065 317.756 420.784C317.844 421.449 318.027 422.112 317.762 423.142ZM280.414 367.015C283.18 375.116 286.73 382.644 291.579 389.841C285.574 394.202 279.847 398.725 274.206 403.608C273.673 400.375 278.888 369.61 280.414 367.015ZM488.511 404.114C487.62 414.613 487.063 425.144 485.884 435.616C484.911 444.413 476.565 447.652 468.729 447.526C422.711 447.594 376.687 447.926 330.67 447.598C325.924 447.427 322.933 444.846 322.274 440.19C321.412 434.104 320.689 427.999 319.889 421.904C316.42 395.859 313.085 369.796 309.51 343.766C309.32 342.36 309.214 340.941 308.969 339.545C308.361 336.071 311.685 332.447 315.189 332.643C344.1 333.288 373.033 332.587 401.953 332.746V332.787C431.006 332.948 460.077 332.459 489.122 332.996C492.36 333.201 493.642 334.579 493.442 337.816C491.775 359.915 490.436 382.04 488.511 404.114ZM530.062 418.973C517.551 422.68 504.537 424.489 491.513 424.917C490.784 424.928 490.031 425.107 489.389 424.742C489.079 424.425 489.093 424.081 489.117 423.748C489.508 418.357 489.959 412.969 490.269 407.573C490.369 405.838 491.074 405.064 492.72 404.457C503.063 400.639 513.121 396.182 522.541 390.396C523.977 389.514 525.395 388.585 526.617 387.399C526.807 387.213 527.023 386.962 527.257 386.925C530.1 386.474 532.749 385.027 535.753 385.355C538.521 385.638 542.449 386.898 543.411 389.803C543.657 390.491 544.126 391.517 545.027 391.291C545.532 391.14 545.769 390.745 545.818 390.228C545.878 389.583 545.583 389.044 545.286 388.514C542.734 383.891 536.218 382.325 531.344 383.463C530.97 383.555 530.576 383.784 530.19 383.465C529.969 382.965 530.286 382.547 530.424 382.12C537.135 360.961 542.658 339.237 543.761 316.987C544.397 309.019 545.599 299.288 551.806 293.595C557.537 288.675 566.278 287.23 573.517 285.976C573.772 285.936 574.048 285.882 574.322 286.246C574.066 286.886 573.461 287.344 572.994 287.89C569.802 291.619 567.238 295.722 565.524 300.337C564.931 301.934 564.585 303.58 564.555 305.285C564.515 307.518 565.399 309.15 567.488 310.164C569.21 310.998 571.019 311.494 572.84 312.002C573.664 312.232 574.595 312.249 575.237 312.96C575.133 313.709 574.54 314.112 574.104 314.607C566.591 322.942 561.046 331.814 565.101 343.29C572.007 363.817 584.324 381.803 594.643 400.672C596.168 403.406 597.087 406.353 597.807 409.653C594.704 410.327 591.734 410.707 588.735 409.947C581.107 407.902 574.548 403.385 567.297 400.357C567.132 398.967 567.607 397.739 567.76 396.485C568.08 393.87 568.449 391.263 568.549 388.624C568.581 387.754 568.72 386.869 568.953 386.03C569.476 384.15 569.178 382.432 568.191 380.78C567.152 379.04 566.237 377.219 565.113 375.538C562.134 371.082 560.838 366.109 560.34 360.858C558.745 348.003 562.72 334.606 557.302 322.351C556.902 321.418 556.531 320.473 555.906 319.662C555.531 319.175 555.122 318.625 554.407 319.026C553.679 319.434 553.967 320.034 554.211 320.615C556.418 325.547 558.294 330.711 558.134 336.199C558.044 341.064 557.95 345.928 557.872 350.793C557.654 358.412 558.272 366.164 561.471 373.206C561.83 374.089 562.093 374.969 561.937 375.959C560.765 383.411 558.894 390.636 555.216 397.305C554.46 398.675 553.697 399.619 551.916 399.8C549.842 400.011 547.883 400.932 546.118 402.093C543.353 403.911 540.638 405.807 537.895 407.659C537.492 407.931 537.165 408.25 536.936 408.679C535.447 411.477 533.505 414.042 532.467 417.07C532.049 418.291 531.12 418.654 530.062 418.973ZM566.799 389.015C566.371 388.224 566.554 387.735 566.59 387.02C566.997 387.748 566.785 388.237 566.799 389.015ZM564.512 396.94C564.515 397.533 564.625 398.155 564.172 398.823C561.981 398.348 559.707 398.247 556.866 398.313C560.838 392.022 561.795 385.1 563.633 378.244C564.332 378.858 564.386 379.443 564.488 380.004C564.876 382.136 565.023 384.288 564.835 386.443C564.532 389.938 564.494 393.437 564.512 396.94ZM603.218 428.015C602.44 427.953 602.355 427.413 602.346 426.661C603.785 426.768 603.785 426.768 603.218 428.015ZM604.436 423.891C603.963 424.498 603.541 424.486 603.143 424.501C598.473 424.681 593.869 425.464 589.266 426.167C581.317 427.375 576.174 425.365 569.584 421.16C565.422 418.364 561.058 418.626 556.586 420.189C553.885 421.134 551.554 422.791 549.053 424.121C548.5 424.415 548.033 425.053 547.067 424.662C551.187 420.067 556.137 417.185 562.116 416.159C562.468 413.562 559.513 414.336 558.074 414.835C554.445 416.101 551.26 418.08 548.543 420.811C547.514 421.845 546.559 422.969 545.115 424.04C545.172 422.837 545.706 422.224 546.177 421.616C549.351 417.52 552.888 413.837 557.695 411.618C558.124 411.421 558.538 411.188 558.944 410.947C559.385 410.685 559.687 410.319 559.442 409.78C559.187 409.218 558.65 409.273 558.214 409.426C554.382 410.797 551.072 413.327 548.338 416.307C546.626 418.219 544.982 420.194 543.264 422.101C542.574 422.868 541.944 423.79 540.351 423.997C542.105 420.933 543.949 418.327 545.841 415.765C547.717 413.226 549.454 410.521 552.411 409.249C552.535 408.358 552.163 408.017 551.538 407.991C550.539 407.948 549.796 408.404 549.071 409.124C544.922 413.25 541.405 417.843 538.556 422.954C537.716 424.46 537.691 424.446 536.1 424.32C535.942 423.506 536.522 422.936 536.798 422.274C539.729 415.252 544.656 409.906 550.821 405.599C551.482 405.137 552.111 404.624 552.722 404.096C552.993 403.863 553.057 403.511 552.854 403.177C552.616 402.788 552.246 402.602 551.824 402.783C544.255 406.933 538.683 413.406 535.017 421.162C534.683 421.876 534.502 422.68 533.828 423.381C533.363 422.8 533.563 422.291 533.703 421.826C534.791 418.188 536.275 414.716 538.137 411.407C538.675 410.452 539.441 409.688 540.268 408.983C542.848 406.787 545.617 404.858 548.552 403.171C550.144 402.256 551.826 401.58 553.686 401.406C554.422 401.337 555.173 401.216 555.869 400.978C562.039 398.888 568.75 403.182 574.16 405.821C578.17 407.918 582.191 409.976 586.485 411.476C589.372 412.484 592.266 412.719 595.263 412.318C596.936 412.094 598.623 411.973 600.297 411.758C602.059 411.491 602.86 412.962 603.425 414.352C604.572 417.535 604.52 420.825 604.436 423.891ZM636.468 427.64C627.077 427.867 617.688 428.131 608.297 428.368C607.569 428.386 606.816 428.577 605.954 428.122C607.44 421.796 606.696 415.721 603.201 410.056C603.859 409.255 604.792 409.21 605.593 409.004C624.792 403.691 643.97 398.317 663.336 393.62C670.22 391.804 676.131 394.077 681.063 398.892C681.91 399.601 682.507 399.327 683.046 398.289C680.268 394.965 676.763 392.73 672.206 391.279C675.092 390.284 677.322 391.345 679.735 392.133C680.659 392.476 681.4 390.927 680.565 390.426C677.271 388.52 672.979 388.334 669.366 389.384C667.876 389.823 666.4 390.306 664.916 390.764C664.352 390.938 663.809 391.276 662.956 390.941C663.663 383.197 664.791 375.427 665.023 367.629C665.357 357.882 664.058 348.354 661.577 338.955C660.246 333.912 659.169 328.835 659.354 323.566C659.669 311.032 664.068 297.762 677.248 293.839C676.624 292.493 676.259 292.274 674.803 292.734C668.167 294.63 663.443 300.311 660.814 306.481C654.526 321.033 658.083 332.813 661.463 347.346C664.457 362.045 662.852 377.176 660.641 391.865C647.522 395.36 634.36 398.866 621.282 402.35C620.906 402.193 620.777 401.95 620.739 401.683C619.588 393.994 618.412 386.041 622.338 378.892C624.29 374.806 626.41 370.807 628.665 366.881C634.591 356.56 639.729 345.832 645.062 335.204C646.246 332.846 647.125 330.362 647.957 327.857C648.63 325.828 648.139 324.165 646.729 322.649C643.498 319.306 639.558 316.676 635.988 313.705C635.582 313.381 635.033 313.163 634.928 312.461C636.162 311.898 637.54 311.915 638.829 311.578C640.136 311.236 641.454 310.955 642.713 310.444C648.711 308.177 648.723 301.021 647.77 295.689C646.783 289.191 644.511 283.064 641.591 277.207C641.76 276.903 641.949 276.863 642.143 276.941C652.475 281.189 663.685 281.881 674.395 284.71C680.043 286.314 684.231 289.693 686.829 294.954C697.688 318.826 697.307 348.107 696.882 373.901C696.645 381.535 696.288 389.161 695.542 396.764C695.126 401.005 694.394 405.184 693.221 409.298C691.95 413.755 689.263 416.84 685.096 418.831C670.061 426.45 653 427.179 636.468 427.64ZM687.055 420.97C687.099 419.986 687.729 419.878 688.142 419.629C691.039 417.88 692.98 415.368 694.197 412.245C695.754 408.247 696.513 404.066 697.06 399.836C698.216 390.909 698.578 381.933 698.759 372.942C699.502 350.109 698.743 327.13 693.186 304.869C693.461 304.707 693.515 304.651 693.576 304.643C702.485 303.546 711.174 303.858 718.886 309.201C725.189 313.328 729.277 320.844 727.722 328.494C722.253 359.283 716.843 390.115 711.263 420.857C703.196 420.901 695.142 420.719 687.055 420.97ZM718.938 420.795C717.14 421.044 715.496 421.019 713.721 420.675C713.811 418.305 714.241 416.056 714.639 413.816C718.449 392.339 722.297 370.867 726.128 349.393C727.278 342.944 728.426 336.494 729.542 330.039C733.051 311.807 715.46 300.747 698.997 302.086C696.846 302.201 694.697 302.332 692.452 302.462C691.833 301.263 691.437 300.275 691.353 299.211C691.818 298.621 692.454 298.645 693.05 298.615C699.472 298.282 705.886 298.283 712.247 299.369C723.836 301.078 733.751 309.416 734.459 321.571C734.861 326.19 734.35 330.757 733.491 335.277C728.841 360.381 725.202 385.653 720.504 410.75C719.923 414.109 719.542 417.424 718.938 420.795Z" fill="#DCA86A"/>
</svg>
