<svg width="617" height="479" viewBox="0 0 617 479" fill="none" xmlns="http://www.w3.org/2000/svg">
<path d="M-1.35899e-05 476.464C-1.35899e-05 476.464 215.068 477.814 246.016 476.135C255.479 475.623 250.448 438.318 249.258 418.169C248.582 406.727 254.417 369.7 260.107 358.46C264.001 350.765 270.841 355.849 276.753 359.691C282.225 363.247 288.874 366.026 294.933 369.084C298.132 370.698 298.148 385.823 297.565 396.521C296.551 415.147 280.614 477.326 304.97 477.849C325.521 478.29 370.658 477.681 380.785 477.1C388.003 476.688 389.418 475.144 390.389 468.432C391.087 463.619 395.584 443.508 389.057 442.303C385.697 441.68 379.942 441.953 375.304 441.943C365.319 441.919 358.867 439.978 351.964 433.138C339.596 420.88 308.887 379.387 300.479 370.913C297.205 367.611 290.92 364.223 286.143 361.707C281.019 359.005 267.784 352.454 268.318 345.858C269.508 331.204 280.264 244.834 283.602 219.093C284.684 210.751 290.28 186.853 294.464 177.406C298.561 168.152 299.456 177.626 298.254 182.132C294.474 196.321 284.756 201.422 271.408 198.431C241.207 191.658 217.812 187.88 202.254 160.193C195.511 148.189 187.459 132.345 185.409 126.718C183.695 122.017 188.356 126.53 194.81 125.06C205.073 122.724 211.787 118.542 211.124 107.315C210.806 101.932 209.229 100.348 208.665 97.6728C207.144 90.4908 207.301 105.196 198.422 106.249C190.71 107.165 181.823 101.937 179.339 96.5777C176.855 91.2187 176.071 88.3425 173.458 86.5128C170.844 84.6831 168.622 82.3302 167.184 78.1476C165.936 74.5165 167.643 74.7278 167.686 70.995C167.769 63.613 162.586 61.7991 159.812 54.8488C158.842 52.4168 157.738 49.3485 157.048 46.8147C154.857 38.7806 158.653 37.1499 163.317 44.6867C165.433 48.1099 167.999 52.5467 168.556 53.7063C169.407 55.4715 169.537 58.2155 169.667 59.1309C169.795 60.0452 169.47 65.4054 168.162 63.8367C167.056 62.5077 169.856 59.5377 172.248 55.8015C173.534 53.7922 176.4 48.5246 179.263 46.2847C182.784 43.5294 188.304 47.2385 185.06 52.9107C182.241 57.838 174.702 68.8511 173.023 70.3067C171.061 72.0053 168.055 69.6535 170.408 68.346C172.435 67.2204 176.012 68.8082 179.387 66.2665C181.33 64.8019 185.68 57.6075 187.065 63.1485C187.85 66.2846 184.917 72.5286 184.001 74.6193C183.084 76.7112 179.949 85.5985 177.729 84.8142C175.78 84.1271 181.058 82.4364 183.802 79.7433C185.019 78.5465 186.041 75.6274 187.272 74.2159C189.363 71.8223 192.279 75.3132 190.666 79.4551C189.751 81.8081 188.574 88.8657 187.268 91.4797C185.962 94.0937 181.649 97.6231 183.74 93.3105C185.457 89.7664 188.587 93.1037 190.518 91.1475C192.784 88.8533 193.419 78.3827 192.236 75.2725C191.556 73.4892 189.884 68.0646 189.119 64.0888C187.459 55.4761 192.093 60.4181 194.849 64.5555C195.961 66.2224 197.748 69.241 199.126 71.5589C202.84 77.8052 208.287 86.3681 206.391 94.2112C202.716 109.428 195.453 101.157 188.097 106.015C182.831 109.491 183.569 114.216 185.899 119.386C187.404 122.719 189.363 123.895 191.78 123.241C194.199 122.588 199.036 120.888 200.538 120.169C202.042 119.45 205.163 118.629 208.121 114.615C211.745 109.699 217.227 101.186 220.682 111.346C223.662 120.131 241.656 145.118 249.816 147.159C268.53 151.838 277.388 143.245 289.68 134.222C313.486 116.748 314.283 129.323 338.957 133.304C344.689 134.228 347.936 132.667 351.011 130.749C362.958 123.3 359.799 136.587 359.814 144.377C359.834 156.936 360.255 186.319 359.606 189.767C359.068 192.641 359.947 196.87 359.278 200C358.264 204.774 350.314 205.891 344.764 205.816C338.067 205.73 339.217 205.584 338.503 199.259C337.377 189.294 335.57 169.645 333.989 164.801C331.898 158.397 331.636 158.79 332.029 155.13C332.422 151.47 335.163 147.941 338.3 148.986C341.437 150.032 344.051 151.338 343.136 153.299C342.222 155.26 335.555 149.509 335.163 145.195C334.771 140.882 337.055 138.463 339.737 137.678C342.835 136.772 352.477 133.538 356.924 130.377C360.291 127.981 359.839 123.78 358.674 120.13M358.688 120.162C358.688 120.162 354.044 107.481 352.998 100.685C351.953 93.888 354.435 80.1649 356.918 74.2825C362.145 61.8986 365.101 47.6974 380.759 48.4173C408.881 49.7101 411.466 66.8372 426.137 72.5783C430.431 74.2588 435.116 74.0633 431.057 67.7854C428.07 63.1643 417.421 56.0038 411.909 52.4609C405.114 48.0952 389.545 41.4184 381.366 39.6712C376.456 38.6236 368.629 37.1634 376.399 32.5423C382.023 29.2005 395.456 22.6899 403.061 19.9651C413.991 16.0492 439.349 26.6781 436.754 44.3578C435.758 51.1296 434.462 58.6393 432.828 61.2058C431.281 63.6378 426.754 59.6202 423.578 56.8209C417.689 51.637 391.909 40.3357 384.491 38.7287C380.082 37.7737 356.931 35.918 348.625 40.5651C341.931 44.307 349.093 53.678 351.943 60.8453C353.708 65.2833 354.086 73.8463 357.61 63.9791C359.282 59.3004 361.924 51.5285 365.148 48.7936C377.715 38.1274 413.171 53.0734 419.752 64.3148C422.888 69.6739 419.132 77.222 419.132 82.3189C419.132 83.9565 419.023 85.4991 418.947 86.8518C418.522 94.3028 426.662 93.4812 429.686 91.7679C431.356 90.8197 431.438 88.7516 431.265 87.1095C431.019 84.8018 427.716 83.4784 425.816 83.3609C421.185 83.0727 428.989 86.4518 431.162 84.8877C432.4 83.9994 431.282 78.2855 428.8 77.4763C427.021 76.8954 424.069 76.8671 423.969 78.0707C423.851 79.4834 429.612 78.4584 429.858 77.1915C430.072 76.0659 421.103 71.8618 417.293 69.8072C411.28 66.5638 416.329 79.9547 416.872 87.4825C417.128 91.0525 415.44 99.7986 413.84 102.708C412.402 105.322 412.84 109.644 416.368 109.644C419.897 109.644 422.857 107.543 425.081 104.799C426.852 102.61 428.459 97.7587 427.809 95.72C427.343 94.2587 423.786 93.697 421.295 94.5582C417.971 95.7064 415.675 101.811 414.951 104.931C412.719 114.529 400.415 129.863 408.61 138.992C415.776 146.969 439.614 167.461 431.27 170.66C421.729 174.319 425.913 162.949 433.231 153.407C440.551 143.867 441.464 142.69 439.242 138.508C437.02 134.325 423.296 131.972 423.818 135.763C424.179 138.377 439.875 141.777 436.081 131.1C434.779 127.439 432.736 123.852 430.615 121.124C427.871 117.596 418.067 121.386 418.33 125.699C418.544 129.263 434.743 120.813 429.275 115.506C424.247 110.631 413.453 109.722 408.954 114.182C402.22 120.855 387.324 124.584 379.498 123.401C360.06 120.466 405.742 111.176 403.965 127.461C402.991 136.35 402.696 156.13 401.726 164.123C401.171 168.708 401.575 175.581 401.642 181.368C401.854 199.3 367.511 206.034 346.619 208.485C299.109 214.058 250.947 216.702 203.322 222.806C194.646 223.919 188.526 224.368 184.578 224.942C177.83 225.92 177.474 227.491 181.252 232.185C192.906 246.659 258.096 318.404 273.625 336.621C275.402 338.706 281.464 344.638 275.728 344.49C273.178 344.424 272.396 345.143 270.826 343.183C269.256 341.223 269.91 340.374 268.016 340.242C266.122 340.111 264.29 339.132 263.048 336.712C261.806 334.294 260.695 333.837 259.452 333.706C258.211 333.576 253.768 332.334 254.093 329.262C254.42 326.191 255.726 326.06 253.178 324.622C243.721 319.288 250.241 315.213 257.753 316.127C260.432 316.454 264.224 317.891 265.006 320.178C265.791 322.466 263.57 323.707 261.021 324.1C258.472 324.493 255.923 325.996 255.988 324.167C256.056 322.336 258.472 325.212 260.695 325.342C262.916 325.472 264.483 325.901 267.492 325.735C270.499 325.569 271.412 324.493 273.569 326.584C275.725 328.676 275.588 329.218 274.344 330.003C273.104 330.786 269.134 331.847 267.497 332.107C265.864 332.369 258.768 333.409 261.051 331.327C263.332 329.246 264.24 334.16 266.903 333.969C269.565 333.778 272.524 332.401 275.333 332.203C282.331 331.716 280.525 335.804 278.42 336.995C276.46 338.106 272.567 339.407 271.541 339.506C270.516 339.605 270.24 338.818 271.673 338.184C272.797 337.688 273.444 339.074 274.097 339.713C275.143 340.733 277.439 338.268 280.528 340.276C285.018 343.195 274.081 340.584 277.368 344.599C282.598 350.99 306.503 374.551 306.503 374.551C314.517 384.701 344.68 425.84 361.204 435.753C369.372 440.657 410.821 439.195 431.398 438.842C463.31 438.301 529.878 425.409 564.578 416.527C579.059 412.819 588.275 404.387 580.965 390.554C571.041 371.777 543.514 318.478 543.514 318.478C543.514 318.478 486.028 201.742 471.709 175.257C464.362 161.672 409.024 173.648 420.477 197.151C457.52 273.189 502.975 336.746 539.585 406.308C546.634 419.705 554.285 418.92 564.246 414.327C576.688 408.59 586.674 395.938 585.111 381.703C583.999 371.596 579.125 344.179 577.88 337.95C570.59 301.509 546.683 199.344 555.789 169.999C559.854 156.904 563.527 147.903 559.906 145.356C558.575 144.422 544.214 143.296 538.537 140.983C534.077 139.166 529.093 135.468 525.503 133.456C516.964 128.671 514.291 148.515 509.404 159.737C503.39 173.548 499.734 181.667 495.537 197.315C492.662 208.032 492.353 215.403 497.58 219.586C502.81 223.768 506.255 222.671 509.262 217.183C512.268 211.693 531.085 165.816 533.439 159.804C535.791 153.792 524.943 147.06 523.964 151.047C522.984 155.034 534.355 154.184 535.857 152.615C537.361 151.047 539.844 147.127 538.472 144.317C537.099 141.506 533.048 140.264 528.015 137.847C515.02 131.603 512.016 122.932 509.643 109.806C508.152 101.57 503.382 80.7232 505.405 73.9311C509.43 60.4147 523.298 68.4002 516.645 85.4335C513.377 93.7976 512.592 94.1909 512.592 99.2878C512.592 104.385 513.507 119.024 519.388 124.906C525.27 130.788 528.276 130.265 533.504 132.357C538.732 134.447 550.104 135.101 543.698 137.061C537.294 139.022 534.288 133.925 532.067 128.435C529.846 122.945 530.89 123.207 529.321 119.548C527.755 115.887 522.264 111.836 521.872 114.711C521.589 116.779 528.729 118.783 528.024 112.406C527.839 110.735 527.402 108.735 526.446 106.215C525.838 104.61 524.643 103.216 523.437 102.43C521.797 101.359 520.137 101.416 519.91 103.601C519.591 106.694 528.782 107.773 526.08 100.134C524.581 95.8985 521.438 89.2703 519.649 87.8498C517.429 86.0856 516.969 88.5685 516.316 90.9214C515.663 93.2744 515.075 95.8884 514.421 97.0648C513.768 98.2413 510.631 99.0256 509.192 96.4116C507.974 94.1943 507.317 86.0031 506.268 80.1389C505.096 73.5773 501.789 69.6095 497.789 65.3477C481.25 47.7279 476.854 43.0333 451.9 46.9085C442.464 48.3743 436.954 52.992 436.954 63.361C436.954 65.3477 436.624 68.4398 436.015 70.8074C434.696 75.9291 430.385 73.6237 427.205 70.7667C422.946 66.9412 413.377 54.4657 416.914 49.5734C420.835 44.1487 437.623 38.0585 443.056 36.6142C469.181 29.6695 499.029 35.2908 521.343 48.8998C524.715 50.9567 528.648 53.5266 531.32 54.6872C536.912 57.1147 531.741 44.6358 528.308 37.2493C522.79 25.3773 499.971 4.07321 487.886 4.19978C487.886 4.19978 484.93 3.44487 482.839 9.32606C480.748 15.2084 478.772 22.9419 474.85 24.6416C470.929 26.3402 459.654 26.2893 456.909 23.1521C454.164 20.0148 460.046 12.0418 463.705 9.2978C465.891 7.65911 484.868 -4.46491 482.396 3.93873C480.686 9.74986 477.892 24.1974 469.456 24.1974C467.562 24.1974 460.374 24.0675 458.936 22.4333C457.498 20.7991 458.152 17.9896 460.243 15.7023C461.36 14.4795 463.039 13.051 464.35 11.8169C469.801 6.67816 462.956 6.80926 458.517 11.1331C453.551 15.9701 445.6 26.6532 443.513 29.9487C438.339 38.1173 448.421 33.5041 455.47 32.4971C457.602 32.1931 468.755 31.2189 475.592 30.9816C485.84 30.6279 508.532 39.1287 517.357 43.5419C526.365 48.0466 533.843 53.3819 536.831 63.5395C538.792 70.205 538.529 80.1377 532.126 84.0593C517.711 92.8845 522.87 76.6016 518.533 63.0163C513.417 46.9876 486.81 43.1757 471.873 42.4976C460.83 41.9958 440.017 41.2296 436.672 54.5844C432.765 70.1576 432.306 92.3917 440.033 107.577C442.871 113.157 446.905 117.706 450.204 123.139C454.064 129.502 457.909 136 467.298 134.382C471.252 133.699 481.541 128.677 489.326 123.918C521.622 104.173 462.515 121.453 468.343 141.178C471.742 152.68 477.229 167.318 470.695 165.75C464.16 164.181 470.955 157.123 483.502 157.384C496.05 157.647 499.971 150.85 506.767 141.177C512.312 133.287 535.037 142.755 545.917 147.008C564.629 154.319 593.793 126.705 601.309 187.72C604.271 211.771 611.631 246.935 614.489 273.101C616.271 289.421 619.371 312.778 603.875 322.985C593.157 330.041 569.892 338.928 564.403 336.316C558.912 333.702 559.437 330.564 559.437 318.54C559.437 304.224 558.897 294.914 548.658 284.48C548.258 284.072 547.751 283.696 547.36 283.18M547.411 283.248C547.411 283.248 544.795 279.457 539.959 279.457C535.122 279.457 526.888 285.469 523.752 287.691C521.368 289.381 515.125 292.734 511.927 295.852C509.675 298.052 507.434 302.721 512.642 302.721C515.909 302.721 520.092 300.631 522.575 299.585C525.06 298.54 533.816 292.265 535.644 291.482C537.476 290.698 545.088 286.397 541.331 286.581C537.481 286.77 540.334 289.919 537.136 292.691C533.746 295.631 524.103 302.232 522.118 303.048C520.516 303.708 513.743 305.15 509.678 307.129C502.648 310.55 505.595 320.653 515.126 316.183C517.217 315.204 537.803 303.897 541.201 302.851C544.599 301.806 549.826 296.708 547.016 297.689C544.538 298.555 544.795 302.628 540.014 305.49C535.122 308.421 525.468 313.851 524.277 314.679C522.774 315.726 507.089 319.711 506.24 323.044C505.391 326.377 508.07 326.768 509.444 326.506C510.816 326.246 526.694 322.456 533.097 319.843C539.502 317.228 546.953 314.157 547.999 313.111C549.044 312.065 551.268 307.164 548.521 308.798C545.379 310.667 548.792 314.413 545.099 316.527C540.047 319.424 520.535 325.118 518.852 327.032C516.998 329.143 520.03 329.646 522.644 330.037C525.256 330.43 530.093 329.777 535.452 329.385C539.741 329.07 548.551 326.412 552.566 324.559C556.861 322.58 558.607 314.444 557.147 310.432C555.58 306.119 555.318 305.728 555.187 302.591C555.056 299.454 554.664 297.886 552.834 294.749C551.005 291.612 551.658 290.697 556.101 289.651C560.546 288.606 559.759 289.911 561.068 284.423C561.769 281.477 561.868 272.362 561.083 265.554C559.7 253.549 555.463 255.867 556.475 265.861C558.047 281.336 567.527 316.32 573.182 336.63C575.63 345.426 588.985 449.724 590.788 475.481" stroke="#DCA86A" stroke-miterlimit="10"/>
</svg>
