<svg width="74" height="74" viewBox="0 0 74 74" fill="none" xmlns="http://www.w3.org/2000/svg">
<circle cx="37" cy="37" r="36.5" fill="white" stroke="#DCA86A"/>
<path d="M31.123 25.0771C31.5377 25.0266 31.9578 25.1108 32.3203 25.3184C32.6377 25.5002 32.8964 25.7679 33.0674 26.0889L33.1348 26.2295L33.1357 26.2305L35.7764 32.1182V32.1309L35.7812 32.1436C35.8755 32.3638 35.928 32.5989 35.9365 32.8369L35.9307 33.0752C35.9097 33.3139 35.8443 33.5459 35.7393 33.7598L35.6211 33.9668C35.6004 33.9978 35.5785 34.0269 35.5547 34.0566L32.957 37.1455L32.9307 37.1768L32.9492 37.2139C33.8917 39.1287 35.8914 41.1134 37.8311 42.0557L37.8682 42.0742L37.8994 42.0469L40.9404 39.4531L40.9414 39.4541L41.0293 39.3877C41.2973 39.209 41.606 39.0999 41.9268 39.0703C42.2474 39.0407 42.5702 39.0922 42.8662 39.2188V39.2178L42.8809 39.2256H42.8818L48.7705 41.8643H48.7715C49.1548 42.0307 49.4741 42.317 49.6816 42.6797C49.8632 42.9971 49.9505 43.3584 49.9355 43.7217L49.9229 43.877C49.7019 45.5555 48.8774 47.0967 47.6035 48.2119C46.3296 49.3271 44.6931 49.9405 43 49.9375L42.5381 49.9316C32.8603 49.6858 25.0626 41.7359 25.0625 32L25.0693 31.6826C25.1384 30.1033 25.7427 28.5907 26.7881 27.3965C27.8338 26.202 29.2538 25.4022 30.8105 25.125L31.123 25.0771ZM31.3506 26.9375C30.2021 27.0911 29.1428 27.6321 28.3457 28.4668L28.1904 28.6377C27.3784 29.5692 26.9327 30.7642 26.9375 32L26.9434 32.3984C27.0498 36.5125 28.7303 40.4353 31.6475 43.3525C34.5647 46.2697 38.4875 47.9503 42.6016 48.0566L43 48.0625C44.2372 48.0666 45.4336 47.6197 46.3652 46.8057C47.2968 45.9917 47.8996 44.8661 48.0615 43.6396L48.0713 43.5684H47.999L42.1367 40.9424L42.1006 40.9268L42.0703 40.9521L39.0322 43.5449L38.9453 43.6104C38.6665 43.7963 38.344 43.9065 38.0098 43.9307C37.7174 43.9518 37.4246 43.9068 37.1533 43.7988L37.0381 43.748C34.855 42.6931 32.6761 40.6008 31.4844 38.4453L31.2598 38.0137C31.1146 37.7132 31.0491 37.3799 31.0703 37.0469C31.0889 36.7556 31.1737 36.4731 31.3164 36.2197L31.3809 36.1123L31.3818 36.1113L31.4473 36.0234L31.4482 36.0225L34.0312 32.9297L34.0566 32.8994L34.041 32.8643L31.4209 27.001L31.4287 26.9277L31.3506 26.9375Z" fill="#DCA86A" stroke="#DCA86A" stroke-width="0.125"/>
</svg>
