<svg width="361" height="736" viewBox="0 0 361 736" fill="none" xmlns="http://www.w3.org/2000/svg">
<path d="M360 732.307C345.736 694.521 329.759 657.392 312.159 621.029C256.023 631.953 199.756 642.308 143.4 652.05C140.262 643.293 137.146 634.514 134.337 623.327C182.858 611.002 231.95 600.953 290.763 589.263C268.971 562.992 258.328 527.811 261.883 493.9C263.968 474.044 270.683 453.859 265.679 434.528C260.61 414.912 244.612 400.398 232.74 383.957C218.936 364.823 210.311 355.146 208.029 331.678C206.976 320.754 205.703 307.312 195.828 302.714C188.827 298.577 179.808 298.051 172.39 301.357C164.973 304.663 158.455 315.215 156.853 323.162C155.558 329.686 175.462 323.249 183.714 309.676C184.416 308.516 185.052 307.268 185.162 305.911C185.25 304.641 177.547 260.462 173.356 237.256C171.337 226.004 180.993 168.602 180.576 170.616C176.296 191.217 189.222 266.329 195.784 307.421C200.897 308.976 206.23 309.742 211.562 309.698C213.845 314.208 212.265 319.9 209.039 323.819C205.813 327.737 201.248 330.255 196.815 332.663C185.908 338.596 181.146 333.035 181.761 331.065C187.708 312.238 198.812 310.377 210.399 311.252C216.215 311.69 211.123 280.1 212.352 246.298C213.318 219.348 217.773 196.624 215.929 167.77C210.816 168.909 205.725 170.047 200.612 171.163C196.837 154.153 196.157 136.749 196.003 119.322C195.608 77.2236 191.548 91.0595 193.699 83.638C185.535 82.828 176.274 87.2502 169.669 82.3901C167.387 80.7044 165.916 78.1649 164.578 75.6692C157.709 62.9716 153.407 58.3524 149.128 44.5602C152.113 41.4515 156.107 39.2842 159.113 38.0363C160.496 29.5202 148.755 18.2019 144.542 20.9603C138.112 25.1417 151.059 35.6063 148.623 43.6188C151.476 42.3929 154.329 41.1888 157.204 39.9628C157.84 39.6782 158.543 39.4155 159.223 39.5907C160.013 39.7877 160.518 40.5539 160.935 41.2545C166.267 50.1209 171.183 55.0466 176.516 63.913C177.086 64.8544 177.767 65.8614 178.842 66.0366C179.654 66.1679 180.466 65.752 181.19 65.3579C189.771 60.8262 198.593 53.6017 209.478 53.0544C212.901 53.0544 216.829 53.2952 218.958 55.9661C221.021 58.5494 220.472 62.3368 219.199 65.3798C216.039 72.9764 208.907 79.2595 200.699 80.1571C191.943 81.1423 209.28 74.3119 214.306 74.9467C218.058 92.8109 217.268 110.719 222.25 123.526C223.325 126.284 224.883 136.245 226.375 138.785C229.536 144.148 232.476 149.665 235.132 155.292C230.435 160.436 224.73 164.683 218.431 167.704C215.688 169.018 212.418 170.113 209.653 168.843C206.559 167.442 205.374 163.764 204.496 160.502C202.85 154.328 201.204 148.177 199.536 142.003C198.768 139.135 198 136.201 198.088 133.224C198.329 126.525 206.01 114.966 206.91 108.311C208.073 99.6632 202.872 91.6068 199.097 85.1048C197.495 84.4699 195.608 84.5794 194.204 83.6161C192.668 82.5434 192.141 80.3979 192.602 78.5809C193.063 76.7638 194.291 75.2313 196.376 73.2172C199.756 72.1883 203.201 71.1375 206.142 69.1672C209.083 67.1969 211.497 64.1538 211.804 60.6292C212.133 57.1264 209.829 53.2952 206.361 52.6823C204.606 52.3539 202.784 52.8355 201.029 52.6385C198.461 52.3539 196.245 50.6682 194.379 48.873C190.517 45.1294 183.78 40.1161 181.87 35.1027C185.535 33.8987 189.068 28.4694 186.984 25.2293C184.921 21.9892 180.729 23.6749 178.096 26.4772C174.826 19.1213 167.145 15.0932 159.113 15.5748C156.985 24.4193 158.126 31.7532 161.549 40.2036C162.91 43.5751 164.995 49.6611 168.44 50.8433C172.522 52.2444 176.867 50.0114 181.015 48.1287C178.908 48.8511 176.801 49.5954 174.672 50.3179C175.66 53.3171 177.24 56.1194 179.303 58.5056C179.676 58.9435 180.115 59.3813 180.685 59.3813C181.168 59.3813 181.585 59.0529 181.98 58.7464C185.908 55.4626 189.639 51.9379 193.831 48.2819C200.831 53.5798 210.048 55.8348 218.717 54.3461C215.71 49.683 210.18 47.2311 206.756 42.8526C203.026 38.0801 202.301 31.6875 200.261 25.9736C196.201 14.5021 186.172 5.26351 174.321 2.13291C170.261 1.06019 164.951 1.16965 162.998 4.89134C162.537 5.76703 162.186 6.90543 161.242 7.19003C160.562 7.38706 159.859 7.08057 159.179 6.90543C156.699 6.27056 154.022 7.58409 152.354 9.51062C150.686 11.4371 149.786 13.9329 148.667 15.3121C148.031 17.8735 147.373 20.4568 146.736 23.0182C152.793 22.8868 158.894 24.1128 164.424 26.5866C164.314 28.9948 164.205 31.381 164.117 33.7892C155.141 33.4608 146.209 32.7384 137.3 31.6219C137.87 33.4827 136.532 35.4968 134.798 36.3725C133.042 37.2482 131.023 37.2482 129.07 37.2263C100.541 36.9636 72.0345 35.9346 42.4304 34.0081C36.9002 33.7016 31.5894 30.6586 28.539 26.0393C25.5106 21.42 24.8083 15.334 26.7395 10.1674C28.8463 4.51917 34.8154 -0.0563219 40.6967 1.21343C44.6468 2.06723 47.763 5.39486 49.1895 9.16034C50.6159 12.9477 50.55 17.1291 49.8697 21.1135C48.97 26.5428 45.6343 32.804 40.1261 32.6508C36.571 32.5632 33.4328 29.564 32.555 26.1269C26.4761 2.30805 42.8692 3.33699 42.5839 1.95777C72.5611 6.27056 101.792 10.2331 131.243 15.8156C134.008 16.8227 136.312 19.0119 137.475 21.7265C138.858 22.1644 140.218 22.6022 141.601 23.0182C139.757 22.5147 137.278 22.2738 136.4 23.9814C135.785 25.2074 136.466 26.7618 135.983 28.0534C135.632 29.0167 134.688 29.6515 133.745 30.0675C129.487 31.9065 124.549 30.3521 119.963 31.0746C116.474 31.6219 113.226 33.5484 110.131 36.9198C112.984 49.88 117 62.5776 122.135 74.8154C123.847 78.9093 126.042 83.3315 130.167 85.0391C133.569 86.4402 137.431 85.6521 141.03 84.8421C144.125 84.1415 147.241 83.4191 150.335 82.7185C152.003 82.3463 153.781 81.9085 155.031 80.7482C156.304 79.5879 156.809 77.4206 155.668 76.1508C152.552 84.3386 153.605 93.402 153.276 102.137C152.486 122.497 143.883 142.638 147.614 163.26C150.225 160.305 152.947 157.109 153.473 153.212C154.022 149.14 152.2 144.411 154.724 141.171C157.467 137.624 162.954 138.697 167.343 139.682C177.152 141.85 187.466 141.675 197.188 139.157C194.752 141.018 191.439 141.127 188.388 141.062C178.271 140.843 168.177 139.682 158.279 137.581C157.687 125.627 157.84 113.652 158.938 99.5537C157.358 94.5404 155.778 89.133 157.27 84.0977C157.818 82.2588 158.762 80.5512 159.464 78.7341C162.076 71.9475 160.759 63.8255 156.129 58.1991C155.712 57.6956 155.251 57.1921 154.614 57.0607C153.759 56.8856 152.925 57.4329 152.222 57.9583C146.999 61.8551 141.755 65.752 136.532 69.6488C136.246 70.8091 138.507 70.9405 138.858 69.8021C139.209 68.6637 138.375 67.5253 137.629 66.5839C131.001 58.4837 126.217 48.873 123.496 39.2623C120.292 37.686 116.847 36.6133 113.313 36.1098C115.135 47.6689 118.493 58.9872 123.277 69.6926C124.791 73.064 126.525 76.5011 129.465 78.7779C134.578 82.7185 141.776 82.0836 148.097 80.7482C149.326 80.4855 150.642 80.2009 151.827 80.6387C154.636 81.6896 154.636 85.5207 155.119 88.4543C156.216 95.0439 162.251 99.9478 168.681 101.787C175.111 103.626 181.98 103.013 188.652 102.378C187.445 101.743 186.04 101.721 184.679 101.699C179.237 101.612 173.795 101.524 168.352 101.458C166.509 101.436 164.468 101.48 163.107 102.728C162.142 103.626 161.747 104.983 161.417 106.253C151.674 142.769 146.978 170.879 146.144 208.84C145.529 237.103 155.887 273.51 168.396 299.343C173.487 300.197 178.469 301.773 183.099 304.05C182.529 312.982 171.688 323.534 163.195 320.622C154.263 353.921 168.067 388.62 181.607 420.342C183.143 423.954 184.855 427.741 188.103 429.953C191.351 432.164 196.64 431.813 198.351 428.289C199.734 425.465 198.176 421.918 195.674 420.035C193.172 418.131 189.968 417.496 186.874 416.883C156.194 410.906 125.427 404.93 94.2211 403.266C77.433 402.368 60.4034 402.74 44.164 407.053C39.1165 408.389 33.8278 410.359 30.8213 414.606C27.2003 419.751 28.0123 426.997 31.2163 432.404C34.4203 437.79 39.6433 441.687 44.8443 445.19C60.579 455.764 77.7402 464.236 95.7134 470.3C113.73 476.386 133.569 480.02 151.674 474.219C158.894 471.898 166.421 467.016 167.299 459.485C168.308 450.838 160.189 444.073 152.683 439.651C124.176 422.816 91.2585 413.489 58.1431 412.855C45.4807 412.614 31.348 414.321 23.2063 423.976C19.3878 428.508 17.3689 434.331 16.6227 440.22C14.3185 458.15 23.4257 476.211 36.9221 488.274C50.4184 500.336 67.7991 507.21 85.2894 511.961C98.1493 515.464 111.295 517.938 124.571 519.12C130.848 519.667 137.322 519.908 143.269 517.828C149.216 515.749 154.549 510.91 155.492 504.693C157.05 494.294 146.626 486.369 137.3 481.531C108.924 466.819 78.0694 456.902 46.4463 452.305C33.5206 450.422 18.6856 450.028 9.29302 459.091C4.15783 464.061 1.56834 471.241 1.08555 478.356C0.119956 492.849 7.42765 507.035 18.0711 516.953C28.7145 526.87 42.3426 533 56.212 537.4C75.4799 543.53 105.128 550.995 124.703 545.96C133.437 543.705 143.905 521.265 134.578 518.507C100.124 508.283 63.4101 505.722 27.8588 511.064C17.5884 512.596 18.6417 518.77 16.3374 528.862C15.306 533.394 16.6228 538.144 18.5759 542.37C24.9181 556.205 36.2857 566.889 50.8573 571.355C126.195 594.429 134.864 551.192 131.484 546.332C130.365 544.712 128.412 543.858 127.139 542.37C125.339 540.246 125.186 537.203 125.23 534.401C125.844 502.547 142.523 471.373 168.747 453.158C173.817 449.634 179.435 446.503 185.579 445.89C196.64 444.817 206.866 452.129 213.91 460.711C223.786 472.73 229.579 487.639 233.047 502.788C237.919 524.155 238.116 547.558 227.758 566.867C217.4 586.176 194.445 599.727 173.202 594.254C159.925 590.817 149.435 581.009 137.826 573.741C126.195 566.473 119.239 571.683 107.937 575.821C100.015 578.733 137.344 599.29 140.109 621.948C189.266 606.711 239.959 596.334 291.158 591.036C292.628 590.883 294.208 590.752 295.503 591.496C296.842 592.284 297.522 593.816 298.114 595.239C301.757 604.128 305.4 613.016 309.065 621.904C251.525 632.04 194.006 642.198 136.466 652.335C142.698 681.057 149.501 709.627 149.611 735" stroke="#DCA86A" stroke-width="2" stroke-miterlimit="10" stroke-linecap="round" stroke-linejoin="round"/>
</svg>
