<svg width="644" height="434" viewBox="0 0 644 434" fill="none" xmlns="http://www.w3.org/2000/svg">
<path d="M86.7073 432.998V39.2206L223.726 114.344V148.235L92.91 90.0564L93.4738 29.0536L1 49.9528V427.078H35.9596V109.261L234.628 182.69L218.204 203.155L92.346 163.297V200.577L199.856 228.819L199.48 50.3296L179.181 35.6436V84.9732L195.346 94.0105V50.3292L175.798 37.9027L157.755 45.8103V73.4875L174.671 82.3366V1L166.902 4.89119V68.1534L96.9825 30.4975V237.48L191.357 259.312L194.015 288.213L97.6091 271.371L96.8571 426.514H49.4925V298.483L199.48 322.018L202.509 357.949L92.3463 345.647V379.255L197.789 387.728L187.934 432.999C187.934 432.999 207.938 373.042 205.119 345.647C202.3 318.253 192.714 260.639 194.405 248.777C196.097 236.915 214.704 204.72 225.418 201.048C236.132 197.377 263.479 200.755 272.783 217C282.086 233.244 274.474 217.418 252.766 217C231.057 216.582 227.11 258.945 229.929 283.515C232.748 308.086 245.154 363.158 260.66 373.89C276.166 384.622 308.87 392.247 306.897 393.942C304.923 395.636 259.25 405.521 259.25 402.697C259.25 399.873 259.25 387.163 259.25 387.163L312.817 395.636L316.764 432.999L309.716 393.094C309.716 393.094 348.623 406.933 350.596 405.803C352.569 404.673 366.102 376.431 364.129 370.501C362.156 364.57 372.587 373.325 372.587 373.325C372.587 373.325 357.362 399.025 358.772 399.308C360.182 399.59 375.688 408.345 380.199 403.826C384.71 399.308 386.119 402.414 388.939 398.178C391.758 393.942 392.233 396.484 397.775 391.118C403.317 385.751 380.763 372.478 383.018 373.89C385.274 375.302 394.295 380.95 392.886 378.126C391.476 375.302 391.476 375.302 391.476 375.302C391.476 375.302 389.315 371.348 374.466 369.842C359.618 368.336 295.149 335.952 292.142 336.14C289.135 336.328 268.084 352.52 268.084 352.52C268.084 352.52 288.571 330.115 290.263 332.374C291.954 334.634 290.263 268.736 288.947 262.146C287.631 255.556 285.94 234.092 282.18 229.385C278.421 224.678 261.882 207.168 248.724 204.344C235.568 201.52 225.606 202.461 225.606 202.461L233.876 188.717C233.876 188.717 258.31 191.164 264.513 199.637C270.715 208.11 285.564 226.937 285.564 226.937L277.763 202.838C277.763 202.838 284.436 191.259 284.999 191.823C285.563 192.388 291.672 192.671 293.551 185.986C295.431 179.303 299.284 162.357 298.344 157.744C297.404 153.131 299.472 150.684 299.942 150.59C300.411 150.496 299.754 139.199 299.754 139.199C299.754 139.199 286.879 140.705 282.086 147.954C277.293 155.203 248.097 160.286 241.456 156.521C234.815 152.755 230.931 150.998 228.424 150.37C225.918 149.742 225.166 131.918 225.918 126.772C226.67 121.626 228.049 110.015 233.687 103.99C239.326 97.9654 255.49 89.4927 255.49 89.4927V77.6312L244.965 71.418L227.297 78.0077V110.204L202.863 96.8357L203.239 84.7856L229.678 99.0948L241.206 93.6348V45.0574L232.936 48.2584V92.1276L252.671 85.7261V68.969L245.466 63.6972V92.6296C245.466 92.6296 254.237 88.9266 258.811 88.8014C263.384 88.6758 280.927 90.747 290.074 101.667C299.221 112.588 302.354 127.022 305.235 128.968C308.117 130.914 302.792 135.244 299.973 137.064C297.153 138.884 294.584 146.603 294.209 154.386C293.833 162.168 291.577 164.553 291.577 164.553C291.577 164.553 292.078 146.854 287.317 149.365C282.555 151.875 281.553 158.026 282.681 165.682C283.808 173.339 263.259 182.126 251.731 179.49C240.203 176.854 239.451 175.222 239.451 175.222C239.451 175.222 233.186 154.637 233.562 155.013C233.938 155.389 238.073 165.557 241.456 166.937C244.839 168.318 263.509 168.318 269.775 164.427C276.04 160.536 281.146 152.283 281.146 152.283C281.146 152.283 278.139 185.138 281.334 190.127C284.529 195.117 239.514 179.113 239.514 179.113C239.514 179.113 256.9 185.985 263.29 190.88C269.681 195.776 276.259 201.236 276.259 201.236L281.428 199.572L378.506 236.35V209.238L298.438 175.912L302.479 150.306L367.135 182.878L368.075 112.65L321.556 128.465L331.142 131.289L476.149 80.0772L369.391 112.21L363.752 86.6669L359.899 118.11L335.183 126.645L335.433 133.423L329.419 134.553L329.168 128.402L323.153 126.394L324.03 121.875L338.19 117.105L335.308 122.377L363.25 85.4738L476.149 79.7L370.644 114.469L370.424 128.375L359.147 124.323V176.853L362.436 178.736V121.876L355.764 124.135V174.877V180.431L375.405 190.88V278.431L390.535 275.983V240.681L473.517 269.676V254.676L464.997 251.789V263.588L468.756 264.968V227.564L471.638 229.572V252.417L464.621 249.781L458.481 251.664V262.709L462.992 264.09V227.313L460.235 230.074V279.56L394.201 259.697V236.476L432.48 251.036H432.576V206.092L427.666 204.152V245.989L430.086 246.988V206.602L423.48 207.857L423.446 198.703L375.406 182.737L427.596 178.925L440.362 202.066L439.376 198.248L447.54 201.302L448.185 204.627L443.759 206.104L443.703 210.426L440.5 209.048L440.454 205.207L429.532 201.382L427.479 180.261L424.368 197.041L374.918 182.897L444.787 208.882L449.36 206.151L425.336 197.365L425.365 246.769L438.119 251.727V255.43L390.504 237.92L377.159 239.865L377.264 255.179L287.912 224.772L299.847 252.167L372.304 272.783L300.787 256.309C300.787 256.309 310.56 296.036 309.057 314.488C307.553 332.939 310.56 341.6 310.56 341.6L304.734 307.145C304.734 307.145 311.125 303.756 312.127 300.869C313.129 297.982 310.122 294.718 313.881 295.095C317.641 295.472 324.532 287.438 322.151 286.058C319.771 284.677 307.616 290.074 309.496 287.815C311.375 285.556 321.274 263.746 328.323 264.876C335.371 266.006 348.622 275.608 364.128 279.28C379.634 282.951 428.972 277.585 441.377 279.562C453.782 281.539 475.679 281.822 476.149 280.127C476.619 278.432 478.874 243.977 492.407 246.236C505.94 248.496 526.803 291.706 519.473 315.712C512.142 339.717 502.557 353.274 501.993 358.922C501.429 364.571 489.588 433 489.588 433L507.067 370.219C507.067 370.219 500.583 357.228 501.523 354.215C502.463 351.203 486.862 390.553 475.773 393.942C464.684 397.331 422.206 389.8 422.018 386.976C421.83 384.152 397.775 384.34 397.775 384.34L419.763 387.164C419.763 387.164 419.011 367.018 425.401 359.863C431.792 352.709 438.934 351.203 444.197 354.215C449.459 357.228 442.126 342.932 441.565 341.506C439.059 335.136 435.206 333.818 433.295 329.739C431 324.839 428.224 326.196 428.6 330.464C428.976 334.731 433.201 336.14 433.201 336.14L414.876 307.051L423.744 328.424L433.483 340.094C433.483 340.094 422.93 328.11 420.862 329.554C418.795 330.997 418.668 333.124 419.763 335.262C420.459 336.621 422.037 338.63 422.466 339.08C422.466 339.08 417.382 339.655 417.131 343.797C416.88 347.939 412.969 350.077 412.686 353.465C412.404 356.854 412.119 361.872 414.625 365.387C417.131 368.901 421.892 372.918 421.892 372.918C421.892 372.918 425.025 363.629 429.16 360.052C433.295 356.475 448.519 355.533 450.211 355.91C451.903 356.286 459.045 380.763 459.045 380.763C459.045 380.763 447.204 361.747 447.955 358.358C448.707 354.968 450.775 358.358 452.09 352.144C453.406 345.931 471.074 289.824 475.397 285.493C479.72 281.162 483.479 248.967 493.253 244.071C503.026 239.176 516.873 233.967 521.007 227.817C525.142 221.666 534.665 213.758 540.805 212.378C546.945 210.997 571.379 208.361 571.379 208.361C571.379 208.361 565.365 199.449 567.62 193.675C569.876 187.901 548.073 194.177 537.798 189.156C527.523 184.135 526.521 169.575 521.007 165.057C515.494 160.538 522.511 178.738 519.128 183.006C515.745 187.274 526.27 178.236 521.383 169.575C516.497 160.914 514.993 160.663 513.865 162.923C512.738 165.182 512.487 169.575 512.487 169.575C512.487 169.575 513.646 155.674 507.444 153.038C501.241 150.402 495.697 147.484 500.489 147.107C505.282 146.731 511.673 134.304 519.191 121.501C526.709 108.698 554.714 97.9657 572.946 114.534C591.177 131.103 595.312 163.299 587.418 168.571C579.524 173.842 525.894 159.282 522.01 156.144C518.126 153.006 530.029 175.725 544.439 179.742C558.849 183.759 573.259 183.131 574.763 181.122C576.266 179.114 579.148 171.144 579.148 171.144C579.148 171.144 555.184 170.547 544.752 166.499C534.321 162.451 519.097 155.673 514.304 154.449C509.511 153.226 506.128 152.378 506.786 155.297C507.444 158.215 506.786 162.451 508.477 163.675C510.169 164.899 508.759 179.114 508.947 183.633C509.135 188.152 508.853 204.814 512.518 206.509C516.183 208.203 521.634 206.509 521.916 207.544C522.198 208.58 523.263 217.774 523.263 217.774C523.263 217.774 532.285 208.109 542.811 204.846C553.336 201.582 565.616 201.456 567.746 203.465C569.876 205.473 574.888 208.736 574.888 208.736L584.787 222.167C584.787 222.167 563.611 219.406 551.832 221.916C540.054 224.426 520.381 230.075 520.381 230.075L553.085 219.029C553.085 219.029 579.023 218.025 581.779 219.656C584.536 221.288 611.852 236.351 621.626 240.116C631.399 243.882 630.836 310.91 627.734 322.489C624.633 334.068 646.906 276.737 642.394 266.005C637.884 255.273 626.888 242.564 626.888 242.564C626.888 242.564 632.339 262.71 631.963 276.831C631.587 290.952 623.693 329.738 621.814 339.34C619.934 348.942 620.623 431.535 623.631 431.535C626.638 431.535 551.331 417.1 551.331 417.1L522.386 432.999" stroke="#DCA86A" stroke-width="2" stroke-miterlimit="10" stroke-linecap="round" stroke-linejoin="round"/>
</svg>
