<svg width="23" height="18" viewBox="0 0 23 18" fill="none" xmlns="http://www.w3.org/2000/svg">
<path d="M21.0815 3.848C20.9693 3.38753 20.7409 2.96563 20.4193 2.62491C20.0976 2.28419 19.6942 2.03673 19.2497 1.9075C17.6256 1.5 11.1293 1.5 11.1293 1.5C11.1293 1.5 4.63297 1.5 3.00889 1.94631C2.56439 2.07553 2.16094 2.323 1.83931 2.66372C1.51767 3.00444 1.28924 3.42634 1.17707 3.8868C0.879844 5.58042 0.734452 7.29849 0.742727 9.01941C0.732132 10.7533 0.877533 12.4844 1.17707 14.1908C1.30073 14.637 1.53428 15.0428 1.85517 15.3692C2.17605 15.6955 2.57342 15.9313 3.00889 16.0537C4.63297 16.5 11.1293 16.5 11.1293 16.5C11.1293 16.5 17.6256 16.5 19.2497 16.0537C19.6942 15.9245 20.0976 15.677 20.4193 15.3363C20.7409 14.9956 20.9693 14.5737 21.0815 14.1132C21.3764 12.4323 21.5218 10.7274 21.5158 9.01941C21.5264 7.28553 21.381 5.55436 21.0815 3.848V3.848Z" stroke="#292929" stroke-linecap="round" stroke-linejoin="round"/>
<path d="M8.90234 12L14.8378 9L8.90234 6V12Z" stroke="#292929" stroke-linecap="round" stroke-linejoin="round"/>
</svg>
